<svg width="224" height="198" viewBox="0 0 224 198" fill="none" xmlns="http://www.w3.org/2000/svg">
<g clip-path="url(#clip0)">
<g opacity="0.5">
<g opacity="0.5">
<path opacity="0.5" d="M59.4469 52.8107L59.3643 61.0586L66.2873 61.1277L66.3699 52.8798L59.4469 52.8107Z" fill="url(#paint0_linear)"/>
</g>
<path opacity="0.5" d="M59.3699 60.8124L66.0601 60.873L66.132 52.962L59.4418 52.9014L59.3699 60.8124Z" fill="#E6E6E6"/>
<path opacity="0.5" d="M63.9704 56.6897C63.9766 56.0096 63.4293 55.4532 62.7481 55.447C62.0668 55.4409 61.5096 55.9872 61.5034 56.6674C61.4972 57.3475 62.0444 57.9039 62.7257 57.9101C63.4069 57.9163 63.9642 57.3699 63.9704 56.6897Z" fill="white"/>
<path opacity="0.5" d="M63.8579 57.0973C63.8635 56.4791 63.3661 55.9734 62.747 55.9678C62.1278 55.9622 61.6213 56.4588 61.6156 57.077C61.61 57.6951 62.1074 58.2008 62.7266 58.2064C63.3458 58.2121 63.8523 57.7155 63.8579 57.0973Z" fill="white"/>
<path opacity="0.5" d="M62.4583 58.6383L62.981 58.6431L62.9891 57.7481L62.4664 57.7434L62.4583 58.6383Z" fill="white"/>
<path opacity="0.5" d="M63.9326 60.853L61.3532 60.8297L61.3639 59.6529C61.367 59.3118 61.5058 58.9858 61.7496 58.7468C61.9934 58.5077 62.3223 58.3752 62.664 58.3783C63.0057 58.3814 63.3322 58.5199 63.5716 58.7633C63.811 59.0067 63.9438 59.3351 63.9407 59.6763L63.93 60.853L63.9326 60.853Z" fill="white"/>
<path opacity="0.5" d="M63.197 55.448C63.1993 55.2002 62.9999 54.9975 62.7516 54.9952C62.5034 54.993 62.3003 55.1921 62.298 55.4399C62.2958 55.6878 62.4952 55.8905 62.7434 55.8927C62.9917 55.895 63.1948 55.6959 63.197 55.448Z" fill="white"/>
<path opacity="0.5" d="M62.6058 54.7117C62.3653 54.686 62.1224 54.7257 61.9027 54.8265C61.7039 54.887 61.5192 54.9864 61.3591 55.1188C61.1005 55.421 60.9718 55.813 61.0011 56.2094C61.031 56.6021 60.9749 56.9966 60.8365 57.3654C60.7365 57.5583 60.5837 57.7188 60.3958 57.8283C60.2079 57.9378 59.9928 57.9917 59.7754 57.9838C59.9066 58.0604 60.0549 58.1031 60.2069 58.1081C60.3588 58.1131 60.5096 58.0803 60.6457 58.0125C60.8907 57.903 61.096 57.7207 61.2337 57.4906C61.3174 57.3298 61.3874 57.1622 61.4428 56.9896C61.632 56.479 61.8849 55.9942 62.1954 55.5467C62.2418 55.474 62.2981 55.4081 62.3627 55.351C62.4559 55.2794 62.5672 55.2351 62.6842 55.2231C62.7809 55.2231 62.9455 55.2545 63.003 55.1605C63.1285 54.9544 62.7338 54.7404 62.6058 54.7117Z" fill="white"/>
</g>
<g opacity="0.5">
<g opacity="0.5">
<path opacity="0.5" d="M158.029 51.2974L148.721 51.3813L148.822 62.4703L158.131 62.3864L158.029 51.2974Z" fill="url(#paint1_linear)"/>
</g>
<path opacity="0.5" d="M157.891 51.5175L148.894 51.5991L148.99 62.2367L157.988 62.1551L157.891 51.5175Z" fill="#E6E6E6"/>
<path opacity="0.5" d="M153.477 58.2317C154.394 58.2234 155.13 57.4749 155.122 56.5599C155.113 55.6448 154.364 54.9098 153.447 54.9181C152.531 54.9264 151.794 55.6749 151.803 56.5899C151.811 57.505 152.561 58.24 153.477 58.2317Z" fill="white"/>
<path opacity="0.5" d="M153.481 58.6335C154.313 58.626 154.982 57.9459 154.975 57.1144C154.967 56.2829 154.286 55.615 153.453 55.6226C152.62 55.6301 151.951 56.3103 151.959 57.1417C151.967 57.9732 152.648 58.6411 153.481 58.6335Z" fill="white"/>
<path opacity="0.5" d="M153.826 58.0278L153.123 58.0342L153.134 59.2396L153.837 59.2333L153.826 58.0278Z" fill="white"/>
<path opacity="0.5" d="M153.545 58.8833C154.006 58.8791 154.449 59.0577 154.777 59.3796C155.105 59.7016 155.292 60.1406 155.296 60.6001L155.311 62.176L151.853 62.2074L151.839 60.6418C151.835 60.1824 152.014 59.74 152.336 59.4122C152.659 59.0843 153.098 58.8978 153.559 58.8936L153.545 58.8833Z" fill="white"/>
<path opacity="0.5" d="M153.45 55.5237C153.783 55.5207 154.051 55.2484 154.048 54.9155C154.045 54.5826 153.772 54.3152 153.439 54.3183C153.105 54.3213 152.837 54.5936 152.84 54.9265C152.843 55.2593 153.116 55.5267 153.45 55.5237Z" fill="white"/>
<path opacity="0.5" d="M153.635 53.9569C153.958 53.9226 154.284 53.9758 154.579 54.1109C154.846 54.1923 155.094 54.3263 155.308 54.5049C155.695 54.865 155.776 55.4416 155.789 55.9687C155.802 56.4958 155.773 57.0515 156.008 57.5343C156.143 57.793 156.348 58.0083 156.6 58.1552C156.852 58.3021 157.141 58.3745 157.433 58.364C157.256 58.4663 157.057 58.5232 156.853 58.5295C156.649 58.5359 156.447 58.4916 156.264 58.4005C155.935 58.2501 155.661 58.0012 155.48 57.6882C155.367 57.4722 155.273 57.247 155.198 57.015C154.944 56.3281 154.604 55.6759 154.187 55.0737C154.124 54.9768 154.049 54.8889 153.962 54.8128C153.837 54.7165 153.688 54.6569 153.531 54.6406C153.403 54.6223 153.183 54.6823 153.102 54.5571C152.93 54.2805 153.447 53.9935 153.635 53.9569Z" fill="white"/>
</g>
<g opacity="0.5">
<g opacity="0.5">
<path opacity="0.5" d="M150.343 4.89574L135.58 5.02881L135.741 22.6146L150.504 22.4815L150.343 4.89574Z" fill="url(#paint2_linear)"/>
</g>
<path opacity="0.5" d="M150.121 5.2457L135.853 5.375L136.006 22.2459L150.275 22.1166L150.121 5.2457Z" fill="#E6E6E6"/>
<path opacity="0.5" d="M143.122 15.8956C144.576 15.8824 145.743 14.6954 145.73 13.2443C145.717 11.7932 144.528 10.6275 143.075 10.6407C141.621 10.6539 140.454 11.8409 140.467 13.292C140.48 14.7431 141.669 15.9088 143.122 15.8956Z" fill="white"/>
<path opacity="0.5" d="M143.128 16.5295C144.449 16.5175 145.509 15.4389 145.497 14.1204C145.485 12.8019 144.405 11.7427 143.085 11.7547C141.764 11.7667 140.703 12.8452 140.715 14.1638C140.727 15.4823 141.807 16.5415 143.128 16.5295Z" fill="white"/>
<path opacity="0.5" d="M143.678 15.5695L142.562 15.5796L142.58 17.4895L143.696 17.4794L143.678 15.5695Z" fill="white"/>
<path opacity="0.5" d="M143.293 16.7578C144.02 16.7505 144.72 17.031 145.24 17.5378C145.76 18.0446 146.059 18.7366 146.069 19.4623L146.094 21.9698L140.606 22.0246L140.581 19.5171C140.577 18.7931 140.86 18.0969 141.368 17.5801C141.876 17.0634 142.568 16.7678 143.293 16.7578Z" fill="white"/>
<path opacity="0.5" d="M143.083 11.5961C143.612 11.5913 144.036 11.1599 144.031 10.6324C144.026 10.105 143.594 9.68137 143.066 9.68616C142.538 9.69094 142.113 10.1224 142.118 10.6498C142.123 11.1772 142.555 11.6009 143.083 11.5961Z" fill="white"/>
<path opacity="0.5" d="M143.385 9.10636C143.897 9.05195 144.415 9.13669 144.883 9.35163C145.306 9.48127 145.7 9.69419 146.04 9.97785C146.652 10.5519 146.783 11.4625 146.804 12.3001C146.824 13.1377 146.777 14.017 147.151 14.7659C147.366 15.1743 147.692 15.5136 148.092 15.7445C148.493 15.9754 148.95 16.0885 149.412 16.0705C149.132 16.2327 148.816 16.3228 148.493 16.3328C148.169 16.3428 147.848 16.2724 147.559 16.1279C147.033 15.8911 146.594 15.496 146.304 14.9981C146.126 14.6564 145.976 14.3003 145.857 13.9335C145.454 12.844 144.915 11.8095 144.253 10.8546C144.154 10.6996 144.035 10.5591 143.897 10.4371C143.698 10.2887 143.461 10.1984 143.213 10.1762C143.009 10.1475 142.659 10.244 142.531 10.0431C142.264 9.62038 143.085 9.16376 143.385 9.10636Z" fill="white"/>
</g>
<g opacity="0.5">
<g opacity="0.5">
<path opacity="0.5" d="M88.0499 4.22334L72.8506 4.36035L73.0119 22.0114L88.2112 21.8744L88.0499 4.22334Z" fill="url(#paint3_linear)"/>
</g>
<path opacity="0.5" d="M87.7945 4.571L73.1597 4.70361L73.317 22.0076L87.9518 21.875L87.7945 4.571Z" fill="#E6E6E6"/>
<path opacity="0.5" d="M80.453 15.4957C81.9425 15.4822 83.139 14.2657 83.1255 12.7786C83.112 11.2914 81.8935 10.0968 80.404 10.1103C78.9145 10.1238 77.718 11.3403 77.7315 12.8274C77.745 14.3145 78.9635 15.5092 80.453 15.4957Z" fill="white"/>
<path opacity="0.5" d="M80.4587 16.1475C81.8125 16.1352 82.9001 15.0295 82.8878 13.6779C82.8755 12.3262 81.768 11.2404 80.4142 11.2527C79.0604 11.265 77.9729 12.3706 77.9851 13.7223C77.9974 15.074 79.1049 16.1598 80.4587 16.1475Z" fill="white"/>
<path opacity="0.5" d="M81.0221 15.1639L79.8774 15.1743L79.8953 17.1338L81.0399 17.1234L81.0221 15.1639Z" fill="white"/>
<path opacity="0.5" d="M80.5854 16.5531C81.3333 16.5463 82.0532 16.8364 82.5869 17.3596C83.1205 17.8828 83.4241 18.5961 83.4309 19.3428L83.4542 21.9128L77.8146 21.9639L77.7912 19.3965C77.7875 19.0266 77.8569 18.6596 77.9953 18.3164C78.1338 17.9733 78.3386 17.6607 78.5981 17.3966C78.8576 17.1326 79.1667 16.9221 79.5077 16.7774C79.8487 16.6326 80.2149 16.5564 80.5854 16.5531Z" fill="white"/>
<path opacity="0.5" d="M78.5322 10.8546C78.5322 10.8546 80.1578 9.86048 80.4766 8.7959C80.9648 9.75899 81.6085 10.6353 82.3819 11.3895L78.5322 10.8546Z" fill="white"/>
</g>
<path d="M61.9574 137.386H0V198H61.9574V137.386Z" fill="url(#paint4_linear)"/>
<path d="M61.6464 137.851H0.311035V197.533H61.6464V137.851Z" fill="white"/>
<path d="M55.4182 142.809H6.53857V180.695H55.4182V142.809Z" fill="#447EF2"/>
<path d="M52.6745 184.742H9.51318V186.728H52.6745V184.742Z" fill="#E0E0E0"/>
<path d="M45.7878 188.711H16.3994V190.697H45.7878V188.711Z" fill="#E0E0E0"/>
<g opacity="0.5">
<path opacity="0.5" d="M121.942 41.1143H100.075V65.9494H121.942V41.1143Z" fill="url(#paint5_linear)"/>
</g>
<path d="M121.479 41.4614H100.767V65.9521H121.479V41.4614Z" fill="#E6E6E6"/>
<path d="M110.892 56.825C113.001 56.825 114.71 55.1182 114.71 53.0128C114.71 50.9074 113.001 49.2007 110.892 49.2007C108.783 49.2007 107.074 50.9074 107.074 53.0128C107.074 55.1182 108.783 56.825 110.892 56.825Z" fill="white"/>
<path d="M110.892 57.7486C112.809 57.7486 114.363 56.1972 114.363 54.2835C114.363 52.3697 112.809 50.8184 110.892 50.8184C108.975 50.8184 107.421 52.3697 107.421 54.2835C107.421 56.1972 108.975 57.7486 110.892 57.7486Z" fill="white"/>
<path d="M111.702 56.3633H110.082V59.1369H111.702V56.3633Z" fill="white"/>
<path d="M110.492 58.3276H111.637C112.543 58.3276 113.413 58.6872 114.054 59.3273C114.695 59.9673 115.055 60.8354 115.055 61.7406V65.952H107.074V61.7406C107.074 60.8354 107.434 59.9673 108.075 59.3273C108.716 58.6872 109.586 58.3276 110.492 58.3276Z" fill="white"/>
<path d="M109.099 48.9475C108.853 49.0762 108.613 49.2127 108.378 49.3571C108.161 49.4627 107.98 49.6285 107.855 49.8346C107.826 49.9174 107.786 49.9956 107.735 50.0668C107.625 50.1869 107.442 50.1843 107.285 50.2208C106.763 50.3408 106.501 50.9018 106.373 51.408C106.29 51.7085 106.224 52.0134 106.175 52.3213C106.126 52.5202 106.133 52.7283 106.193 52.924C106.227 53.0075 106.276 53.0806 106.303 53.1667C106.397 53.4798 106.13 53.7772 106.065 54.0956C106.032 54.3861 106.082 54.6798 106.209 54.9436C106.235 55.0282 106.273 55.1089 106.321 55.1836C106.364 55.2397 106.412 55.2929 106.462 55.3428C106.574 55.464 106.662 55.6046 106.723 55.7577C107.276 55.8571 107.817 56.0083 108.341 56.2091C109.19 56.5405 110.032 57.0075 110.955 56.9658C111.202 56.9539 111.446 56.9037 111.678 56.817C112.133 56.6474 112.53 56.3395 112.985 56.1908C113.416 56.0926 113.853 56.0195 114.292 55.9716C114.498 55.9299 114.755 55.7733 114.676 55.5776C114.781 55.6162 114.895 55.6251 115.004 55.6035C115.114 55.5819 115.216 55.5305 115.298 55.455C115.462 55.3018 115.592 55.1172 115.682 54.9123C115.867 54.5717 116.012 54.211 116.114 53.8372C116.288 53.1129 116.191 52.3497 115.839 51.6924C115.778 51.563 115.689 51.4489 115.578 51.3584C115.494 51.2984 115.395 51.2619 115.316 51.1967C115.235 51.1218 115.167 51.0336 115.115 50.9357C114.826 50.4608 114.52 49.9973 114.198 49.545C113.879 49.0962 113.516 48.637 113.001 48.4413C112.238 48.1516 111.681 48.6135 110.955 48.6422C110.63 48.6422 110.359 48.5248 110.016 48.5926C109.695 48.6661 109.386 48.7856 109.099 48.9475Z" fill="white"/>
<g opacity="0.5">
<path opacity="0.5" d="M79.0702 13.2158H60.3735V34.4528H79.0702V13.2158Z" fill="url(#paint6_linear)"/>
</g>
<path d="M78.6756 13.5137H60.9668V34.4531H78.6756V13.5137Z" fill="#E6E6E6"/>
<path d="M69.6226 26.6484C71.4254 26.6484 72.8868 25.1893 72.8868 23.3894C72.8868 21.5895 71.4254 20.1304 69.6226 20.1304C67.8198 20.1304 66.3584 21.5895 66.3584 23.3894C66.3584 25.1893 67.8198 26.6484 69.6226 26.6484Z" fill="white"/>
<path d="M69.6227 27.4415C71.2624 27.4415 72.5916 26.1144 72.5916 24.4773C72.5916 22.8403 71.2624 21.5132 69.6227 21.5132C67.983 21.5132 66.6538 22.8403 66.6538 24.4773C66.6538 26.1144 67.983 27.4415 69.6227 27.4415Z" fill="white"/>
<path d="M70.3153 26.2544H68.9302V28.6236H70.3153V26.2544Z" fill="white"/>
<path d="M69.7794 27.9321C70.6819 27.9363 71.5461 28.2971 72.1828 28.9358C72.8195 29.5744 73.1769 30.4388 73.1769 31.3399V34.4423H66.3584V31.3399C66.3584 30.8917 66.4469 30.4479 66.619 30.034C66.791 29.62 67.0431 29.244 67.3609 28.9275C67.6786 28.6109 68.0558 28.3601 68.4708 28.1893C68.8859 28.0185 69.3305 27.9311 69.7794 27.9321Z" fill="white"/>
<path d="M68.0939 19.9141C67.8848 20.0236 67.6792 20.1411 67.4771 20.2663C67.2959 20.358 67.1446 20.4991 67.0407 20.6734C67.0163 20.744 66.982 20.8108 66.9387 20.8717C66.8447 20.9734 66.6774 20.9708 66.5546 21.0021C66.1181 21.1039 65.8934 21.584 65.7705 22.0171C65.6995 22.2747 65.6427 22.5361 65.6007 22.7999C65.5583 22.9721 65.5637 23.1525 65.6163 23.3218C65.6451 23.3922 65.6869 23.4575 65.7104 23.5279C65.7914 23.7888 65.5641 24.0498 65.5066 24.3107C65.4793 24.5592 65.5218 24.8104 65.6294 25.0361C65.6524 25.1087 65.685 25.178 65.7261 25.2422C65.7632 25.29 65.8033 25.3353 65.8463 25.3779C65.9414 25.4817 66.0167 25.6019 66.0685 25.7327C66.5397 25.8198 67.0017 25.9508 67.4484 26.1241C68.1749 26.4059 68.8936 26.8078 69.6724 26.7712C69.8843 26.7609 70.0932 26.7178 70.2918 26.6434C70.6812 26.4973 71.021 26.2363 71.4156 26.1215C71.7819 26.0377 72.1528 25.975 72.5263 25.9337C72.704 25.8997 72.921 25.7641 72.8556 25.5971C72.9441 25.6281 73.0393 25.6348 73.1313 25.6164C73.2233 25.598 73.3086 25.5553 73.3783 25.4927C73.5174 25.3614 73.6285 25.2034 73.705 25.0282C73.8629 24.7373 73.9865 24.4291 74.0735 24.1098C74.22 23.4926 74.1364 22.8433 73.8383 22.2833C73.7851 22.1717 73.7074 22.0736 73.6109 21.9963C73.5404 21.9441 73.4541 21.9128 73.3862 21.858C73.3164 21.7944 73.2581 21.7194 73.2137 21.6362C72.9663 21.2309 72.7049 20.8351 72.4296 20.449C72.1877 20.0417 71.8315 19.7142 71.4052 19.507C70.7518 19.2461 70.2761 19.6557 69.6568 19.6792C69.3797 19.6792 69.1471 19.5775 68.8544 19.6375C68.5893 19.694 68.3333 19.7871 68.0939 19.9141Z" fill="white"/>
<g opacity="0.5">
<path opacity="0.5" d="M213.114 42.4119L192.488 42.6172L192.735 67.1888L213.361 66.9835L213.114 42.4119Z" fill="url(#paint7_linear)"/>
</g>
<path d="M212.737 43.1402L192.802 43.3208L193.017 66.8921L212.951 66.7114L212.737 43.1402Z" fill="#E6E6E6"/>
<path d="M202.959 58.0161C204.988 57.9977 206.618 56.3404 206.6 54.3143C206.581 52.2883 204.921 50.6607 202.892 50.6791C200.863 50.6975 199.233 52.3548 199.251 54.3809C199.27 56.4069 200.93 58.0345 202.959 58.0161Z" fill="white"/>
<path d="M202.967 58.9059C204.811 58.8892 206.293 57.3827 206.276 55.5411C206.26 53.6995 204.751 52.2201 202.906 52.2368C201.062 52.2535 199.58 53.76 199.597 55.6016C199.613 57.4432 201.122 58.9226 202.967 58.9059Z" fill="white"/>
<path d="M203.734 57.565L202.174 57.5791L202.198 60.2483L203.758 60.2341L203.734 57.565Z" fill="white"/>
<path d="M202.716 59.4656L203.563 59.4579C204.469 59.4497 205.342 59.8014 205.989 60.4356C206.636 61.0698 207.004 61.9346 207.012 62.8398L207.048 66.7535L199.364 66.8231L199.329 62.9094C199.321 62.0043 199.673 61.1329 200.308 60.4871C200.943 59.8413 201.81 59.4738 202.716 59.4656Z" fill="white"/>
<path d="M202.905 52.0129C203.642 52.0062 204.235 51.4038 204.228 50.6675C204.221 49.9311 203.618 49.3396 202.88 49.3463C202.143 49.353 201.55 49.9553 201.557 50.6917C201.564 51.428 202.167 52.0196 202.905 52.0129Z" fill="white"/>
<path d="M203.322 48.5325C204.025 48.3995 204.744 48.6265 205.413 48.8744C206.004 49.0556 206.553 49.3527 207.028 49.7485C207.883 50.5495 208.073 51.8359 208.094 52.9944C208.115 54.1529 208.058 55.3923 208.58 56.4387C208.878 57.0126 209.334 57.4902 209.893 57.8158C210.452 58.1415 211.093 58.3018 211.74 58.2782C210.99 58.7792 209.973 58.7296 209.15 58.3591C208.416 58.0272 207.803 57.4744 207.399 56.7779C207.149 56.2997 206.94 55.8013 206.775 55.288C206.211 53.7674 205.459 52.3236 204.535 50.9905C204.397 50.7744 204.23 50.5786 204.038 50.4086C203.761 50.1954 203.43 50.0635 203.082 50.0276C202.797 49.9885 202.298 50.1216 202.13 49.8398C201.757 49.2501 202.904 48.6108 203.322 48.5325Z" fill="white"/>
<g opacity="0.5">
<path opacity="0.5" d="M49.8598 24.2306L32.2241 24.4058L32.4357 45.4157L50.0713 45.2405L49.8598 24.2306Z" fill="url(#paint8_linear)"/>
</g>
<path d="M49.5482 24.7342L32.5039 24.8887L32.6871 45.0419L49.7314 44.8875L49.5482 24.7342Z" fill="#E6E6E6"/>
<path d="M41.188 37.4525C42.9229 37.4368 44.3165 36.0199 44.3008 34.2878C44.285 32.5557 42.8659 31.1643 41.131 31.18C39.3961 31.1958 38.0025 32.6126 38.0183 34.3447C38.034 36.0768 39.4532 37.4682 41.188 37.4525Z" fill="white"/>
<path d="M41.1954 38.2144C42.7729 38.2001 44.0402 36.9117 44.0258 35.3367C44.0115 33.7617 42.721 32.4964 41.1435 32.5107C39.566 32.525 38.2987 33.8134 38.313 35.3884C38.3274 36.9635 39.6178 38.2287 41.1954 38.2144Z" fill="white"/>
<path d="M41.8514 37.0651L40.5186 37.0771L40.5393 39.3576L41.8721 39.3455L41.8514 37.0651Z" fill="white"/>
<path d="M41.3431 38.6875C42.2143 38.6796 43.053 39.0176 43.6747 39.6271C44.2963 40.2366 44.65 41.0676 44.6579 41.9375L44.6851 44.9328L38.1151 44.9923L38.0879 41.997C38.08 41.1272 38.4185 40.2898 39.029 39.6692C39.6395 39.0485 40.4719 38.6954 41.3431 38.6875Z" fill="white"/>
<path d="M41.1418 32.3204C41.7725 32.3146 42.2792 31.7995 42.2734 31.1698C42.2677 30.5401 41.7518 30.0342 41.121 30.0399C40.4903 30.0457 39.9836 30.5608 39.9894 31.1905C39.9951 31.8202 40.511 32.3261 41.1418 32.3204Z" fill="white"/>
<path d="M41.4994 29.3338C42.1005 29.219 42.7147 29.4147 43.2896 29.626C43.7956 29.7805 44.2656 30.0342 44.6721 30.3723C45.4039 31.0559 45.5607 32.1466 45.5842 33.1486C45.6078 34.1505 45.5529 35.1995 45.9998 36.0945C46.2554 36.5836 46.6448 36.9903 47.1226 37.2674C47.6005 37.5445 48.1473 37.6807 48.6995 37.66C48.0592 38.0879 47.1889 38.0462 46.4859 37.7305C45.8578 37.4468 45.3342 36.9743 44.9884 36.3789C44.7786 35.9698 44.6038 35.5439 44.4657 35.1055C43.9835 33.8036 43.339 32.5675 42.5474 31.4264C42.4302 31.2414 42.2877 31.0737 42.124 30.9281C41.887 30.7455 41.6037 30.6326 41.306 30.6019C41.0629 30.568 40.6448 30.6828 40.4932 30.4401C40.1613 29.947 41.144 29.4016 41.4994 29.3338Z" fill="white"/>
<g opacity="0.5">
<path opacity="0.5" d="M22.3561 44.5352L1.12256 44.7266L1.3479 69.3859L22.5814 69.1944L22.3561 44.5352Z" fill="url(#paint9_linear)"/>
</g>
<path d="M22.0024 45.0223L1.55811 45.2075L1.77786 69.3815L22.2221 69.1962L22.0024 45.0223Z" fill="#E6E6E6"/>
<path d="M11.747 60.2807C13.8283 60.2619 15.5002 58.5621 15.4813 56.4842C15.4624 54.4062 13.7599 52.737 11.6786 52.7559C9.59735 52.7748 7.92547 54.4745 7.94436 56.5525C7.96325 58.6304 9.66576 60.2996 11.747 60.2807Z" fill="white"/>
<path d="M11.7554 61.1916C13.6476 61.1744 15.1676 59.629 15.1504 57.7399C15.1332 55.8507 13.5854 54.3332 11.6932 54.3503C9.80101 54.3674 8.28101 55.9128 8.29819 57.802C8.31536 59.6911 9.8632 61.2087 11.7554 61.1916Z" fill="white"/>
<path d="M12.5427 59.8166L10.9434 59.8311L10.9682 62.5681L12.5676 62.5536L12.5427 59.8166Z" fill="white"/>
<path d="M11.4105 61.7654L12.4558 61.7559C13.3624 61.7477 14.2351 62.0994 14.882 62.7336C15.5288 63.3678 15.8969 64.2326 15.9051 65.1378L15.9425 69.2498L8.06059 69.3213L8.02324 65.2118C8.01501 64.3067 8.36726 63.4354 9.00249 62.7895C9.63772 62.1437 10.5039 61.7762 11.4105 61.768L11.4105 61.7654Z" fill="white"/>
<path d="M9.06641 53.8033C9.06641 53.8033 11.3375 52.4152 11.7818 50.9331C11.7818 50.9331 12.8272 53.091 14.4423 54.5574L9.06641 53.8033Z" fill="white"/>
<path d="M30.7047 165.256C34.3 165.224 37.1881 162.287 37.1555 158.698C37.1229 155.108 34.1818 152.225 30.5865 152.257C26.9912 152.29 24.1031 155.226 24.1357 158.816C24.1684 162.405 27.1094 165.289 30.7047 165.256Z" fill="white"/>
<path d="M30.7191 166.832C33.9882 166.802 36.6143 164.132 36.5846 160.868C36.5549 157.605 33.8807 154.983 30.6116 155.012C27.3425 155.042 24.7164 157.712 24.7461 160.976C24.7758 164.24 27.45 166.861 30.7191 166.832Z" fill="white"/>
<path d="M32.0802 164.455L29.3179 164.48L29.3608 169.208L32.1232 169.183L32.0802 164.455Z" fill="white"/>
<path d="M30.8165 167.816L31.232 167.812C32.0995 167.805 32.9599 167.968 33.7642 168.292C34.5685 168.616 35.3008 169.096 35.9193 169.703C36.5378 170.311 37.0302 171.034 37.3685 171.831C37.7068 172.629 37.8842 173.485 37.8907 174.351L37.949 180.765L24.3361 180.888L24.2778 174.475C24.2685 173.609 24.4304 172.749 24.7541 171.946C25.0778 171.142 25.5571 170.41 26.1644 169.792C26.7717 169.173 27.4952 168.681 28.2934 168.342C29.0917 168.003 29.9491 167.824 30.8165 167.816Z" fill="white"/>
<path d="M26.0742 154.057C26.0742 154.057 29.9944 151.657 30.7628 149.1C30.7628 149.1 32.5713 152.826 35.3572 155.362L26.0742 154.057Z" fill="white"/>
<g opacity="0.5">
<path opacity="0.5" d="M162.252 14.0816L144.543 14.2412L144.728 34.4388L162.436 34.2792L162.252 14.0816Z" fill="url(#paint10_linear)"/>
</g>
<path d="M161.955 14.4817L144.905 14.6362L145.085 34.4346L162.135 34.2801L161.955 14.4817Z" fill="#E6E6E6"/>
<path d="M153.399 26.9825C155.135 26.9668 156.53 25.5744 156.515 23.8726C156.5 22.1708 155.079 20.8039 153.343 20.8197C151.607 20.8354 150.212 22.2277 150.227 23.9296C150.243 25.6314 151.663 26.9983 153.399 26.9825Z" fill="white"/>
<path d="M153.408 27.729C154.986 27.7147 156.253 26.4485 156.239 24.9009C156.225 23.3532 154.935 22.1102 153.357 22.1245C151.78 22.1388 150.512 23.405 150.526 24.9526C150.541 26.5003 151.831 27.7433 153.408 27.729Z" fill="white"/>
<path d="M154.115 26.4218L152.782 26.4351L152.804 28.6764L154.137 28.6631L154.115 26.4218Z" fill="white"/>
<path d="M153.554 28.1938C154.425 28.1859 155.264 28.5239 155.886 29.1334C156.507 29.7429 156.861 30.574 156.869 31.4438L156.895 34.3269L150.323 34.3865L150.296 31.5034C150.292 31.0724 150.374 30.645 150.535 30.2454C150.697 29.8458 150.936 29.4819 151.238 29.1746C151.541 28.8672 151.901 28.6224 152.299 28.4541C152.696 28.2859 153.123 28.1974 153.554 28.1938Z" fill="white"/>
<path d="M151.163 21.6672C151.163 21.6672 153.057 20.5296 153.426 19.3188C153.996 20.4243 154.746 21.4277 155.645 22.2882L151.163 21.6672Z" fill="white"/>
<g opacity="0.5">
<path opacity="0.5" d="M93.8311 97.3862V97.8611L104.139 115.703V126.328L111.71 130.373V130.135V115.703L121.939 97.8611V97.3862H93.8311Z" fill="url(#paint11_linear)"/>
</g>
<path d="M121.469 97.6182H94.145V98.0878H121.469V97.6182Z" fill="#CFD8DC"/>
<path opacity="0.1" d="M121.469 97.6182H94.145V98.0878H121.469V97.6182Z" fill="black"/>
<path d="M94.145 98.0879L104.165 115.677V126.151L111.527 129.903V115.677L121.469 98.0879H94.145Z" fill="#CFD8DC"/>
<path opacity="0.2" d="M104.635 126.151V115.677L94.6128 98.0879H94.145L104.165 115.677V126.151H104.635Z" fill="white"/>
<path d="M104.165 126.151L111.527 130.138V129.903L104.635 126.151H104.165Z" fill="#CFD8DC"/>
<path opacity="0.1" d="M104.165 126.151L111.527 130.138V129.903L104.635 126.151H104.165Z" fill="black"/>
<path d="M224 136.525H162.042V197.139H224V136.525Z" fill="url(#paint12_linear)"/>
<path d="M223.692 136.992H162.356V196.674H223.692V136.992Z" fill="white"/>
<path d="M217.461 141.947H168.582V179.834H217.461V141.947Z" fill="#447EF2"/>
<path d="M215.198 185.157H172.037V187.143H215.198V185.157Z" fill="#E0E0E0"/>
<path d="M208.311 189.126H178.923V191.112H208.311V189.126Z" fill="#E0E0E0"/>
<path d="M143.001 136.322H80.5967V197.374H143.001V136.322Z" fill="url(#paint13_linear)"/>
<path d="M142.687 136.792H80.9102V196.904H142.687V136.792Z" fill="white"/>
<path d="M136.415 141.783H87.1826V179.944H136.415V141.783Z" fill="#447EF2"/>
<path d="M132.5 184.515H89.0278V186.514H132.5V184.515Z" fill="#E0E0E0"/>
<path d="M125.564 188.513H95.9614V190.511H125.564V188.513Z" fill="#E0E0E0"/>
<path d="M11.0104 73.9521C11.0104 73.9521 10.749 102.915 36.361 97.4357C61.9729 91.9562 62.757 83.0846 92.0277 94.5655" stroke="#3AD29F" stroke-width="2" stroke-miterlimit="10" stroke-dasharray="12 12"/>
<path d="M202.839 71.3428C202.839 71.3428 203.1 100.306 177.488 94.8263C151.876 89.3468 151.092 80.4753 121.821 91.9561" stroke="#3AD29F" stroke-width="2" stroke-miterlimit="10" stroke-dasharray="12 12"/>
<path d="M110.845 71.3428C110.845 71.3428 107.448 79.4315 112.413 83.3455C117.379 87.2594 111.89 95.6091 111.89 95.6091" stroke="#3AD29F" stroke-width="2" stroke-miterlimit="10" stroke-dasharray="12 12"/>
<path d="M41.1753 50.7925C41.1753 50.7925 45.0955 69.8402 64.1738 69.8402C83.2521 69.8402 99.9782 91.2363 96.3194 93.8456" stroke="#3AD29F" stroke-width="2" stroke-miterlimit="10" stroke-dasharray="12 12"/>
<path d="M68.8777 40.0942C68.8777 40.0942 63.8547 49.318 69.3769 58.7167C72.0315 63.1497 76.3137 66.3737 81.3126 67.703C93.1542 70.9438 98.3393 69.4382 105.992 88.8852" stroke="#3AD29F" stroke-width="2" stroke-miterlimit="10" stroke-dasharray="12 12"/>
<path d="M153.293 40.6162C153.293 40.6162 157.304 45.493 149.799 55.8127C146.808 59.8572 142.688 62.9291 137.954 64.6425C130.375 67.4527 122.977 75.5806 122.977 87.5833" stroke="#3AD29F" stroke-width="2" stroke-miterlimit="10" stroke-dasharray="12 12"/>
<g opacity="0.5">
<g opacity="0.5">
<path opacity="0.5" d="M119.32 0H103.668V17.777H119.32V0Z" fill="url(#paint14_linear)"/>
</g>
<path opacity="0.5" d="M118.988 0.248047H104.165V17.7772H118.988V0.248047Z" fill="#E6E6E6"/>
<path opacity="0.5" d="M111.409 11.2457C112.919 11.2457 114.143 10.0238 114.143 8.51642C114.143 7.00906 112.919 5.78711 111.409 5.78711C109.899 5.78711 108.675 7.00906 108.675 8.51642C108.675 10.0238 109.899 11.2457 111.409 11.2457Z" fill="white"/>
<path opacity="0.5" d="M111.409 11.9087C112.782 11.9087 113.895 10.7977 113.895 9.42723C113.895 8.05677 112.782 6.9458 111.409 6.9458C110.037 6.9458 108.924 8.05677 108.924 9.42723C108.924 10.7977 110.037 11.9087 111.409 11.9087Z" fill="white"/>
<path opacity="0.5" d="M111.992 10.9146H110.832V12.9002H111.992V10.9146Z" fill="white"/>
<path opacity="0.5" d="M111.535 12.3208C112.292 12.3208 113.019 12.6213 113.555 13.1561C114.09 13.691 114.391 14.4164 114.391 15.1727V17.782H108.678V15.1727C108.678 14.7982 108.752 14.4274 108.896 14.0814C109.039 13.7353 109.25 13.4209 109.515 13.1561C109.78 12.8913 110.095 12.6812 110.442 12.5379C110.788 12.3946 111.16 12.3208 111.535 12.3208Z" fill="white"/>
<path opacity="0.5" d="M110.128 5.60718C109.954 5.69938 109.78 5.79766 109.606 5.90203C109.454 5.97893 109.327 6.0975 109.24 6.24385C109.219 6.30339 109.19 6.35964 109.154 6.41084C109.075 6.49695 108.945 6.49434 108.832 6.52043C108.466 6.60654 108.278 7.00836 108.179 7.36845C108.119 7.58394 108.071 7.80258 108.035 8.02338C108.001 8.16547 108.005 8.31415 108.048 8.45391C108.072 8.51392 108.108 8.5661 108.127 8.62612C108.194 8.85052 108.004 9.06187 107.957 9.29148C107.933 9.49966 107.969 9.71018 108.059 9.89945C108.078 9.96015 108.105 10.0181 108.14 10.0717C108.171 10.1112 108.205 10.1487 108.242 10.1839C108.321 10.2701 108.384 10.37 108.427 10.4787C108.822 10.5519 109.208 10.662 109.582 10.8075C110.191 11.0449 110.792 11.3789 111.446 11.3476C111.624 11.3394 111.801 11.3033 111.968 11.2406C112.295 11.118 112.577 10.8988 112.909 10.7944C113.216 10.7245 113.527 10.6722 113.84 10.6379C113.989 10.6092 114.171 10.497 114.114 10.3561C114.189 10.3842 114.271 10.391 114.35 10.3758C114.428 10.3606 114.502 10.324 114.561 10.27C114.673 10.159 114.762 10.0268 114.822 9.88118C114.956 9.63757 115.061 9.37926 115.136 9.11144C115.262 8.59249 115.192 8.04551 114.94 7.57458C114.895 7.48123 114.83 7.39916 114.749 7.33453C114.689 7.29017 114.618 7.26407 114.561 7.21711C114.503 7.16319 114.454 7.09963 114.417 7.02924C114.21 6.68133 113.991 6.34996 113.761 6.0351C113.558 5.6963 113.26 5.42421 112.904 5.25232C112.358 5.04358 111.958 5.37496 111.44 5.39583C111.218 5.36349 110.993 5.35127 110.769 5.3593C110.545 5.41146 110.329 5.4949 110.128 5.60718Z" fill="white"/>
</g>
<g opacity="0.5">
<g opacity="0.5">
<path opacity="0.5" d="M194.327 18.5259H178.675V36.3029H194.327V18.5259Z" fill="url(#paint15_linear)"/>
</g>
<path opacity="0.5" d="M193.995 18.7739H179.171V36.3031H193.995V18.7739Z" fill="#E6E6E6"/>
<path opacity="0.5" d="M186.416 29.7716C187.926 29.7716 189.149 28.5496 189.149 27.0423C189.149 25.5349 187.926 24.313 186.416 24.313C184.906 24.313 183.682 25.5349 183.682 27.0423C183.682 28.5496 184.906 29.7716 186.416 29.7716Z" fill="white"/>
<path opacity="0.5" d="M186.416 30.4345C187.789 30.4345 188.901 29.3236 188.901 27.9531C188.901 26.5826 187.789 25.4717 186.416 25.4717C185.043 25.4717 183.931 26.5826 183.931 27.9531C183.931 29.3236 185.043 30.4345 186.416 30.4345Z" fill="white"/>
<path opacity="0.5" d="M186.999 29.4404H185.838V31.4261H186.999V29.4404Z" fill="white"/>
<path opacity="0.5" d="M186.542 30.8467C187.299 30.8467 188.026 31.1472 188.561 31.682C189.097 32.2168 189.398 32.9422 189.398 33.6986V36.3079H183.685V33.6986C183.685 32.9422 183.986 32.2168 184.522 31.682C185.057 31.1472 185.784 30.8467 186.542 30.8467Z" fill="white"/>
<path opacity="0.5" d="M185.135 24.1331C184.961 24.2253 184.787 24.3235 184.613 24.4279C184.461 24.5048 184.334 24.6234 184.247 24.7697C184.226 24.8293 184.197 24.8855 184.16 24.9367C184.082 25.0228 183.951 25.0202 183.839 25.0463C183.473 25.1324 183.285 25.5342 183.186 25.8943C183.126 26.1098 183.078 26.3285 183.042 26.5493C183.008 26.6913 183.012 26.84 183.055 26.9798C183.078 27.0398 183.115 27.092 183.133 27.152C183.201 27.3764 183.011 27.5877 182.964 27.8174C182.94 28.0255 182.976 28.2361 183.065 28.4253C183.085 28.486 183.112 28.5439 183.146 28.5975C183.178 28.6371 183.212 28.6746 183.248 28.7097C183.328 28.796 183.39 28.8959 183.434 29.0046C183.828 29.0778 184.215 29.1879 184.589 29.3334C185.198 29.5708 185.799 29.9048 186.452 29.8735C186.631 29.8653 186.808 29.8292 186.975 29.7665C187.302 29.6439 187.584 29.4247 187.916 29.3203C188.223 29.2503 188.534 29.1981 188.846 29.1638C188.995 29.135 189.178 29.0229 189.121 28.8819C189.196 28.91 189.278 28.9169 189.356 28.9017C189.435 28.8865 189.508 28.8499 189.568 28.7958C189.68 28.6849 189.769 28.5527 189.829 28.4071C189.963 28.1634 190.068 27.9051 190.143 27.6373C190.268 27.1184 190.199 26.5714 189.947 26.1005C189.902 26.0071 189.837 25.925 189.756 25.8604C189.696 25.816 189.625 25.79 189.568 25.743C189.509 25.6891 189.461 25.6255 189.424 25.5551C189.217 25.2072 188.998 24.8758 188.768 24.561C188.565 24.2222 188.267 23.9501 187.911 23.7782C187.365 23.5695 186.965 23.9008 186.447 23.9217C186.225 23.8894 186 23.8771 185.776 23.8852C185.552 23.9373 185.336 24.0208 185.135 24.1331Z" fill="white"/>
</g>
<path d="M110.981 165.379C114.395 165.349 117.139 162.56 117.108 159.15C117.077 155.741 114.283 153.002 110.868 153.033C107.453 153.064 104.71 155.853 104.741 159.262C104.772 162.672 107.566 165.41 110.981 165.379Z" fill="white"/>
<path d="M110.991 166.877C114.096 166.849 116.59 164.314 116.562 161.214C116.534 158.114 113.994 155.625 110.889 155.653C107.785 155.681 105.291 158.216 105.319 161.316C105.347 164.416 107.887 166.905 110.991 166.877Z" fill="white"/>
<path d="M112.283 164.618L109.659 164.642L109.7 169.132L112.324 169.109L112.283 164.618Z" fill="white"/>
<path d="M111.282 167.81C112.997 167.795 114.648 168.46 115.871 169.659C117.095 170.859 117.791 172.495 117.806 174.207L117.86 180.098L104.932 180.215L104.878 174.324C104.862 172.612 105.528 170.965 106.729 169.743C107.93 168.522 109.568 167.826 111.282 167.81Z" fill="white"/>
<path d="M111.053 155.141C112.295 155.128 113.291 154.114 113.278 152.874C113.266 151.635 112.25 150.64 111.008 150.653C109.767 150.665 108.771 151.68 108.783 152.919C108.796 154.159 109.812 155.153 111.053 155.141Z" fill="white"/>
<path d="M111.585 149.397C112.768 149.172 113.976 149.556 115.105 149.971C116.08 150.331 117.068 150.733 117.823 151.443C119.26 152.789 119.569 154.936 119.618 156.904C119.668 158.871 119.558 160.938 120.439 162.702C120.94 163.667 121.705 164.471 122.646 165.019C123.586 165.568 124.664 165.838 125.752 165.799C124.49 166.642 122.778 166.558 121.393 165.937C120.157 165.379 119.128 164.449 118.447 163.278C118.029 162.474 117.679 161.636 117.402 160.773C116.453 158.212 115.184 155.78 113.626 153.535C113.394 153.171 113.112 152.841 112.789 152.554C112.323 152.195 111.765 151.973 111.179 151.912C110.699 151.847 109.873 152.071 109.58 151.597C108.953 150.605 110.884 149.53 111.585 149.397Z" fill="white"/>
<path d="M194.4 165.747C197.711 165.747 200.395 163.067 200.395 159.761C200.395 156.455 197.711 153.775 194.4 153.775C191.089 153.775 188.405 156.455 188.405 159.761C188.405 163.067 191.089 165.747 194.4 165.747Z" fill="white"/>
<path d="M195.8 163.354H193.001V168.142H195.8V163.354Z" fill="white"/>
<path d="M194.405 166.733H194.998C196.749 166.733 198.427 167.427 199.665 168.663C200.902 169.898 201.597 171.574 201.597 173.321V179.902H187.806V173.334C187.804 172.468 187.974 171.61 188.305 170.809C188.636 170.008 189.121 169.28 189.734 168.667C190.347 168.054 191.075 167.568 191.877 167.236C192.678 166.904 193.537 166.733 194.405 166.733Z" fill="white"/>
<path d="M201.119 165.799C200.858 166.06 188.575 166.582 187.791 165.799C188.313 163.189 187.791 156.797 187.791 156.797C187.791 155.032 188.493 153.34 189.742 152.092C190.992 150.844 192.687 150.143 194.455 150.143C196.222 150.143 197.917 150.844 199.167 152.092C200.417 153.34 201.119 155.032 201.119 156.797C201.119 156.797 200.335 164.755 201.119 165.799Z" fill="white"/>
</g>
<defs>
<linearGradient id="paint0_linear" x1="59.5907" y1="60.6362" x2="65.3224" y2="51.6308" gradientUnits="userSpaceOnUse">
<stop stop-color="#808080" stop-opacity="0.25"/>
<stop offset="0.54" stop-color="#808080" stop-opacity="0.12"/>
<stop offset="1" stop-color="#808080" stop-opacity="0.1"/>
</linearGradient>
<linearGradient id="paint1_linear" x1="8732.34" y1="1160.04" x2="8407.81" y2="644.843" gradientUnits="userSpaceOnUse">
<stop stop-color="#808080" stop-opacity="0.25"/>
<stop offset="0.54" stop-color="#808080" stop-opacity="0.12"/>
<stop offset="1" stop-color="#808080" stop-opacity="0.1"/>
</linearGradient>
<linearGradient id="paint2_linear" x1="13075.3" y1="-832.581" x2="12252.8" y2="-2127.55" gradientUnits="userSpaceOnUse">
<stop stop-color="#808080" stop-opacity="0.25"/>
<stop offset="0.54" stop-color="#808080" stop-opacity="0.12"/>
<stop offset="1" stop-color="#808080" stop-opacity="0.1"/>
</linearGradient>
<linearGradient id="paint3_linear" x1="5129.83" y1="4122.51" x2="5724.53" y2="2737.53" gradientUnits="userSpaceOnUse">
<stop stop-color="#808080" stop-opacity="0.25"/>
<stop offset="0.54" stop-color="#808080" stop-opacity="0.12"/>
<stop offset="1" stop-color="#808080" stop-opacity="0.1"/>
</linearGradient>
<linearGradient id="paint4_linear" x1="7343.81" y1="46132.8" x2="7343.81" y2="32052.2" gradientUnits="userSpaceOnUse">
<stop stop-color="#808080" stop-opacity="0.25"/>
<stop offset="0.54" stop-color="#808080" stop-opacity="0.12"/>
<stop offset="1" stop-color="#808080" stop-opacity="0.1"/>
</linearGradient>
<linearGradient id="paint5_linear" x1="9388.24" y1="6318.44" x2="9388.24" y2="3954.39" gradientUnits="userSpaceOnUse">
<stop stop-color="#808080" stop-opacity="0.25"/>
<stop offset="0.54" stop-color="#808080" stop-opacity="0.12"/>
<stop offset="1" stop-color="#808080" stop-opacity="0.1"/>
</linearGradient>
<linearGradient id="paint6_linear" x1="5048.47" y1="2817.34" x2="5048.47" y2="1088.87" gradientUnits="userSpaceOnUse">
<stop stop-color="#808080" stop-opacity="0.25"/>
<stop offset="0.54" stop-color="#808080" stop-opacity="0.12"/>
<stop offset="1" stop-color="#808080" stop-opacity="0.1"/>
</linearGradient>
<linearGradient id="paint7_linear" x1="23766.8" y1="3375.4" x2="22171" y2="847.387" gradientUnits="userSpaceOnUse">
<stop stop-color="#808080" stop-opacity="0.25"/>
<stop offset="0.54" stop-color="#808080" stop-opacity="0.12"/>
<stop offset="1" stop-color="#808080" stop-opacity="0.1"/>
</linearGradient>
<linearGradient id="paint8_linear" x1="8478.87" y1="277.861" x2="7303.35" y2="-1569.12" gradientUnits="userSpaceOnUse">
<stop stop-color="#808080" stop-opacity="0.25"/>
<stop offset="0.54" stop-color="#808080" stop-opacity="0.12"/>
<stop offset="1" stop-color="#808080" stop-opacity="0.1"/>
</linearGradient>
<linearGradient id="paint9_linear" x1="951.438" y1="10524.6" x2="2112.08" y2="7821.63" gradientUnits="userSpaceOnUse">
<stop stop-color="#808080" stop-opacity="0.25"/>
<stop offset="0.54" stop-color="#808080" stop-opacity="0.12"/>
<stop offset="1" stop-color="#808080" stop-opacity="0.1"/>
</linearGradient>
<linearGradient id="paint10_linear" x1="10679.1" y1="5403.96" x2="11457.4" y2="3580.2" gradientUnits="userSpaceOnUse">
<stop stop-color="#808080" stop-opacity="0.25"/>
<stop offset="0.54" stop-color="#808080" stop-opacity="0.12"/>
<stop offset="1" stop-color="#808080" stop-opacity="0.1"/>
</linearGradient>
<linearGradient id="paint11_linear" x1="11696.7" y1="16579.1" x2="11696.7" y2="12408.9" gradientUnits="userSpaceOnUse">
<stop stop-color="#808080" stop-opacity="0.25"/>
<stop offset="0.54" stop-color="#808080" stop-opacity="0.12"/>
<stop offset="1" stop-color="#808080" stop-opacity="0.1"/>
</linearGradient>
<linearGradient id="paint12_linear" x1="45921.9" y1="45932.5" x2="45921.9" y2="31851.4" gradientUnits="userSpaceOnUse">
<stop stop-color="#808080" stop-opacity="0.25"/>
<stop offset="0.54" stop-color="#808080" stop-opacity="0.12"/>
<stop offset="1" stop-color="#808080" stop-opacity="0.1"/>
</linearGradient>
<linearGradient id="paint13_linear" x1="26775.9" y1="46317.8" x2="26775.9" y2="32032.9" gradientUnits="userSpaceOnUse">
<stop stop-color="#808080" stop-opacity="0.25"/>
<stop offset="0.54" stop-color="#808080" stop-opacity="0.12"/>
<stop offset="1" stop-color="#808080" stop-opacity="0.1"/>
</linearGradient>
<linearGradient id="paint14_linear" x1="6780.98" y1="1211.15" x2="6780.98" y2="0" gradientUnits="userSpaceOnUse">
<stop stop-color="#808080" stop-opacity="0.25"/>
<stop offset="0.54" stop-color="#808080" stop-opacity="0.12"/>
<stop offset="1" stop-color="#808080" stop-opacity="0.1"/>
</linearGradient>
<linearGradient id="paint15_linear" x1="11348.1" y1="2491.84" x2="11348.1" y2="1280.69" gradientUnits="userSpaceOnUse">
<stop stop-color="#808080" stop-opacity="0.25"/>
<stop offset="0.54" stop-color="#808080" stop-opacity="0.12"/>
<stop offset="1" stop-color="#808080" stop-opacity="0.1"/>
</linearGradient>
<clipPath id="clip0">
<rect width="224" height="198" fill="white"/>
</clipPath>
</defs>
</svg>
