<svg width="338" height="199" viewBox="0 0 338 199" fill="none" xmlns="http://www.w3.org/2000/svg">
<g clip-path="url(#clip0)">
<path d="M89.9091 107.948L89.5493 107.867C99.5215 63.8508 143.359 36.2365 187.463 46.1888C202.513 49.585 216.295 57.1564 227.221 68.0304C238.146 78.9045 245.77 92.6384 249.214 107.649L248.855 107.731C240.365 70.5279 207.695 44.5442 169.406 44.5442C131.62 44.5458 98.1865 71.2103 89.9091 107.948Z" fill="#E6E6E6"/>
<path d="M337.833 191.21H0.833008V0H337.833V191.21ZM1.45708 190.587H337.209V0.622835H1.45708V190.587Z" fill="#3F3D56"/>
<path d="M23.9236 22.4219C25.4746 22.4219 26.7319 21.1671 26.7319 19.6192C26.7319 18.0712 25.4746 16.8164 23.9236 16.8164C22.3726 16.8164 21.1152 18.0712 21.1152 19.6192C21.1152 21.1671 22.3726 22.4219 23.9236 22.4219Z" fill="#447EF2"/>
<path d="M32.3489 22.4219C33.8999 22.4219 35.1572 21.1671 35.1572 19.6192C35.1572 18.0712 33.8999 16.8164 32.3489 16.8164C30.7979 16.8164 29.5405 18.0712 29.5405 19.6192C29.5405 21.1671 30.7979 22.4219 32.3489 22.4219Z" fill="#F2F2F2"/>
<path d="M40.7737 22.4219C42.3247 22.4219 43.582 21.1671 43.582 19.6192C43.582 18.0712 42.3247 16.8164 40.7737 16.8164C39.2227 16.8164 37.9653 18.0712 37.9653 19.6192C37.9653 21.1671 39.2227 22.4219 40.7737 22.4219Z" fill="#F2F2F2"/>
<path d="M324.415 159.513V180.311H302.224C303.406 175.023 306.155 170.212 310.112 166.503C314.07 162.794 319.053 160.359 324.415 159.513Z" fill="#E6E6E6"/>
<path d="M285.354 57.0205L285.155 56.7808L210.456 118.606L210.216 118.806L261.973 181.089H262.785L211.096 118.887L285.073 57.659L324.415 105.004V104.026L285.354 57.0205Z" fill="#E6E6E6"/>
<path d="M220.674 88.6002C231.306 88.6002 239.924 79.9987 239.924 69.3882C239.924 58.7778 231.306 50.1763 220.674 50.1763C210.042 50.1763 201.424 58.7778 201.424 69.3882C201.424 79.9987 210.042 88.6002 220.674 88.6002Z" fill="#A0616A"/>
<path d="M252.674 109.923L241.961 140.92V140.923L236.799 155.868C236.799 155.868 236.272 179.631 235.742 179.631C235.632 179.631 235.476 179.973 235.3 180.513H184.002L188.119 136.855L187.867 134.821L184.647 108.746C184.281 105.788 184.94 102.794 186.514 100.261C188.088 97.7279 190.482 95.808 193.299 94.8194L198.68 92.9314C205.74 90.4545 213.328 89.8771 220.682 91.2572H220.682C227.217 92.4836 233.373 95.2195 238.658 99.2461L252.674 109.923Z" fill="#447EF2"/>
<path d="M237.367 53.9102C237.367 53.9102 231.255 40.6943 219.539 43.744C207.824 46.7937 201.204 51.3687 200.695 55.9435C200.185 60.5182 200.949 67.3806 200.949 67.3806C200.949 67.3806 202.223 57.9758 210.373 60.01C218.523 62.0441 231.255 60.5182 231.255 60.5182L233.292 78.8174C233.292 78.8174 235.584 75.5132 238.131 77.5465C240.677 79.5797 245.516 57.9767 237.367 53.9102Z" fill="#2F2E41"/>
<path d="M262.727 157.98C262.727 157.98 262.727 170.046 258.284 180.513H243.015L243.15 180.159L247.382 161.675L245.796 155.339L241.961 140.923V140.92C239.969 133.427 240.086 125.53 242.3 118.099L242.474 117.517C243.127 115.323 244.473 113.399 246.311 112.031C248.149 110.662 250.381 109.923 252.674 109.923C252.674 109.923 259.552 115.733 259.022 126.821L262.727 157.98Z" fill="#447EF2"/>
<path d="M306.75 38.005C304.69 38.005 302.677 37.3954 300.964 36.2533C299.251 35.1112 297.916 33.4879 297.128 31.5887C296.34 29.6895 296.134 27.5996 296.536 25.5834C296.937 23.5672 297.929 21.7152 299.386 20.2616C300.842 18.808 302.698 17.8181 304.718 17.417C306.738 17.016 308.832 17.2218 310.735 18.0085C312.638 18.7952 314.265 20.1274 315.409 21.8366C316.554 23.5459 317.164 25.5554 317.164 27.6112C317.164 30.3678 316.067 33.0115 314.114 34.9607C312.161 36.91 309.512 38.005 306.75 38.005ZM306.75 17.7006C304.786 17.7006 302.866 18.2819 301.233 19.3708C299.6 20.4598 298.327 22.0076 297.576 23.8186C296.824 25.6295 296.627 27.6221 297.011 29.5446C297.394 31.4671 298.339 33.233 299.728 34.619C301.117 36.005 302.886 36.9489 304.813 37.3313C306.739 37.7137 308.736 37.5174 310.55 36.7673C312.365 36.0172 313.916 34.7469 315.007 33.1172C316.098 31.4874 316.68 29.5713 316.68 27.6112C316.68 26.3097 316.423 25.021 315.924 23.8186C315.425 22.6161 314.694 21.5236 313.772 20.6033C312.85 19.6831 311.755 18.9531 310.55 18.455C309.345 17.957 308.054 17.7006 306.75 17.7006Z" fill="#CCCCCC"/>
<path d="M324.415 181.089H14.2505V10.1211H324.415V181.089ZM14.8249 180.532H323.841V10.6779H14.8249V180.532Z" fill="#CCCCCC"/>
<path d="M311.138 23.6582L310.91 23.4312L306.681 27.6524L302.451 23.4312L302.224 23.6582L306.453 27.8791L302.787 31.5383L303.014 31.7653L306.68 28.1062L310.347 31.7653L310.574 31.5383L306.908 27.8791L311.138 23.6582Z" fill="#3F3D56"/>
<path d="M130.586 108.201H24.8447C23.856 108.202 22.9082 108.595 22.2091 109.292C21.51 109.99 21.1166 110.936 21.1152 111.923V152.646C21.1162 153.633 21.5094 154.579 22.2086 155.277C22.9077 155.976 23.8557 156.368 24.8447 156.37H130.586C131.575 156.368 132.522 155.976 133.222 155.278C133.921 154.58 134.314 153.634 134.315 152.648V111.923C134.314 110.936 133.921 109.99 133.222 109.292C132.522 108.595 131.575 108.202 130.586 108.201ZM133.877 152.646C133.876 153.517 133.529 154.352 132.912 154.968C132.295 155.583 131.458 155.93 130.586 155.931H24.8447C23.9723 155.93 23.1359 155.583 22.519 154.968C21.9021 154.352 21.555 153.517 21.554 152.646V111.923C21.555 111.052 21.9021 110.217 22.519 109.602C23.1359 108.986 23.9723 108.64 24.8447 108.639H130.586C131.458 108.64 132.295 108.986 132.912 109.602C133.529 110.217 133.876 111.052 133.877 111.923V152.646Z" fill="#3F3D56"/>
<path d="M124.4 120.034H69.0069C67.3981 120.034 66.0769 121.093 66.0142 122.428C66.0102 122.46 66.0087 122.493 66.0095 122.526C66.0117 123.901 67.3513 125.015 69.0069 125.017H124.4C126.056 125.017 127.398 123.901 127.398 122.526C127.398 121.15 126.056 120.034 124.4 120.034Z" fill="#447EF2"/>
<path d="M124.4 130H69.0069C67.3981 130 66.0769 131.059 66.0142 132.394C66.0102 132.426 66.0087 132.459 66.0095 132.491C66.0117 133.867 67.3513 134.981 69.0069 134.983H124.4C126.056 134.983 127.398 133.867 127.398 132.491C127.398 131.115 126.056 130 124.4 130Z" fill="#447EF2"/>
<path d="M124.4 139.965H69.0069C67.3981 139.965 66.0769 141.024 66.0142 142.359C66.0102 142.391 66.0087 142.424 66.0095 142.457C66.0117 143.832 67.3513 144.946 69.0069 144.948H124.4C126.056 144.948 127.398 143.833 127.398 142.457C127.398 141.081 126.056 139.965 124.4 139.965Z" fill="#447EF2"/>
<path d="M42.9545 145.57C40.3407 145.57 37.7855 144.797 35.6122 143.347C33.4389 141.898 31.745 139.838 30.7448 137.428C29.7445 135.018 29.4828 132.366 29.9927 129.808C30.5026 127.249 31.7613 124.899 33.6096 123.055C35.4578 121.21 37.8126 119.954 40.3762 119.445C42.9398 118.936 45.5971 119.197 48.0119 120.195C50.4268 121.194 52.4908 122.884 53.9429 125.053C55.3951 127.222 56.1702 129.772 56.1702 132.381C56.1702 135.879 54.7778 139.234 52.2994 141.707C49.821 144.181 46.4595 145.57 42.9545 145.57ZM42.9545 119.646C40.4308 119.646 37.9638 120.393 35.8655 121.793C33.7672 123.192 32.1317 125.181 31.1659 127.508C30.2002 129.835 29.9475 132.395 30.4398 134.865C30.9322 137.335 32.1474 139.605 33.9319 141.385C35.7164 143.166 37.99 144.379 40.4652 144.871C42.9403 145.362 45.5059 145.11 47.8374 144.146C50.169 143.182 52.1618 141.55 53.5639 139.456C54.9659 137.362 55.7143 134.9 55.7143 132.381C55.7143 129.003 54.37 125.764 51.977 123.376C49.5841 120.988 46.3386 119.646 42.9545 119.646Z" fill="#3F3D56"/>
<path d="M93.1962 175.328H81.9629V164.117H93.1962V175.328ZM82.587 174.705H92.5721V164.74H82.587V174.705Z" fill="#FF6584"/>
<path d="M68.6025 171.754L64.5894 168.083L65.0112 167.624L68.487 170.805L76.3981 158.961L76.9173 159.307L68.6025 171.754Z" fill="#3F3D56"/>
<path d="M72.6014 166.919V174.705H62.6163V164.74H70.4172V164.117H61.9922V175.328H73.2255V166.919H72.6014Z" fill="#E5E5E5"/>
<path d="M38.1214 143.875C42.1713 143.875 45.4543 140.598 45.4543 136.557C45.4543 132.515 42.1713 129.238 38.1214 129.238C34.0716 129.238 30.7886 132.515 30.7886 136.557C30.7886 140.598 34.0716 143.875 38.1214 143.875Z" fill="#447EF2"/>
<path d="M134.042 192.795C134.087 191.944 134.317 191.113 134.718 190.36C135.119 189.608 135.681 188.952 136.363 188.439C137.046 187.926 137.832 187.569 138.668 187.393C139.504 187.217 140.368 187.225 141.2 187.418L152.271 169.889L156.723 179.697L145.528 194.839C145.11 196.213 144.202 197.386 142.976 198.136C141.75 198.886 140.291 199.161 138.875 198.909C137.459 198.657 136.186 197.895 135.295 196.769C134.404 195.642 133.958 194.228 134.042 192.795Z" fill="#A0616A"/>
<path d="M191.855 96.8099L191.244 96.9176C184.38 98.1274 178.56 102.805 176.157 109.335C176.085 109.53 176.015 109.727 175.949 109.925L171.716 128.935L142.614 184.384L151.61 189.665C151.61 189.665 176.479 160.62 179.654 150.586L192.437 126.051C193.076 124.827 193.383 123.457 193.33 122.077L192.372 97.2262C192.369 97.1634 192.353 97.1019 192.325 97.0458C192.297 96.9896 192.257 96.9402 192.208 96.9007C192.159 96.8613 192.102 96.8328 192.041 96.8171C191.98 96.8015 191.917 96.799 191.855 96.8099Z" fill="#447EF2"/>
</g>
<defs>
<clipPath id="clip0">
<rect width="337" height="199" fill="white" transform="translate(0.833008)"/>
</clipPath>
</defs>
</svg>
