<svg width="211" height="201" viewBox="0 0 211 201" fill="none" xmlns="http://www.w3.org/2000/svg">
<g clip-path="url(#clip0)">
<path d="M123.375 47.6408H122.272V17.4652C122.272 15.1716 121.819 12.9005 120.938 10.7815C120.058 8.66258 118.768 6.73724 117.142 5.11548C115.516 3.49372 113.585 2.2073 111.46 1.32967C109.335 0.452033 107.058 0.00037717 104.758 0.000488302H40.6483C38.3484 0.000451258 36.071 0.452171 33.9461 1.32986C31.8213 2.20754 29.8906 3.494 28.2643 5.11578C26.638 6.73757 25.3479 8.66291 24.4678 10.7819C23.5877 12.9008 23.1347 15.1719 23.1348 17.4655V183.011C23.1348 187.642 24.9799 192.085 28.2643 195.36C31.5486 198.635 36.0032 200.475 40.648 200.475H104.758C109.402 200.475 113.857 198.635 117.141 195.36C120.426 192.085 122.271 187.642 122.271 183.011V69.1203H123.374L123.375 47.6408Z" fill="#3F3D56"/>
<path d="M118.7 16.295V184.179C118.7 187.691 117.301 191.059 114.811 193.543C112.321 196.026 108.944 197.422 105.422 197.423H39.9967C36.4737 197.424 33.0948 196.029 30.6031 193.545C28.1114 191.062 26.711 187.693 26.71 184.179V16.295C26.711 12.7819 28.1113 9.41305 30.6029 6.92943C33.0945 4.44581 36.4733 3.05082 39.9962 3.05127H47.9326C47.5429 4.00694 47.3946 5.04344 47.5007 6.06966C47.6068 7.09588 47.964 8.0804 48.541 8.9367C49.118 9.793 49.8971 10.4948 50.8098 10.9806C51.7225 11.4663 52.7408 11.721 53.7754 11.7223H91.0755C92.11 11.721 93.1284 11.4663 94.0411 10.9806C94.9538 10.4948 95.7329 9.793 96.3099 8.9367C96.8868 8.0804 97.2441 7.09588 97.3502 6.06966C97.4562 5.04344 97.3079 4.00694 96.9182 3.05127H105.42C108.941 3.05187 112.318 4.44703 114.809 6.93003C117.299 9.41304 118.699 12.7806 118.7 16.2925V16.295Z" fill="white"/>
<path d="M73.407 83.4594C65.9581 83.4622 58.8131 80.5141 53.5437 75.2637C48.2743 70.0133 45.312 62.8906 45.3086 55.4623V55.4375C45.3086 55.3788 45.3086 55.317 45.312 55.2583C45.3969 39.9134 58.0019 27.4175 73.407 27.4175C77.097 27.4173 80.7508 28.1418 84.1599 29.5498C87.5691 30.9578 90.6667 33.0216 93.276 35.6234C95.8854 38.2252 97.9553 41.3141 99.3675 44.7136C100.78 48.1131 101.507 51.7568 101.507 55.4365C101.507 59.1162 100.781 62.7599 99.3687 66.1596C97.9568 69.5593 95.8873 72.6483 93.2783 75.2504C90.6692 77.8525 87.5718 79.9167 84.1628 81.325C80.7538 82.7334 77.1001 83.4584 73.4101 83.4586H73.407V83.4594ZM73.407 28.007C66.1449 28.0232 59.1825 30.8966 54.0327 36.0028C48.8828 41.1089 45.9616 48.0354 45.9037 55.2772C45.9006 55.3399 45.9006 55.3901 45.9006 55.4377C45.9 60.8638 47.5128 66.1683 50.5353 70.6802C53.5577 75.1922 57.854 78.709 62.8808 80.7859C67.9076 82.8629 73.4391 83.4067 78.7758 82.3485C84.1125 81.2904 89.0147 78.6778 92.8624 74.8413C96.7102 71.0047 99.3306 66.1164 100.392 60.7947C101.454 55.4729 100.91 49.9567 98.8276 44.9435C96.7456 39.9304 93.2196 35.6456 88.6955 32.6309C84.1714 29.6162 78.8524 28.0071 73.4113 28.007H73.407Z" fill="#E6E6E6"/>
<path d="M61.118 55.1992C64.4489 55.1992 67.1492 52.5065 67.1492 49.1848C67.1492 45.8632 64.4489 43.1704 61.118 43.1704C57.7871 43.1704 55.0869 45.8632 55.0869 49.1848C55.0869 52.5065 57.7871 55.1992 61.118 55.1992Z" fill="#3F3D56"/>
<path d="M80.0307 67.7182H50.4436C50.4066 67.7186 50.3695 67.7157 50.333 67.7094L64.3266 43.5395C64.412 43.3889 64.5359 43.2637 64.6857 43.1765C64.8355 43.0894 65.0059 43.0435 65.1793 43.0435C65.3528 43.0435 65.5231 43.0894 65.6729 43.1765C65.8227 43.2637 65.9466 43.3889 66.032 43.5395L75.4229 59.7589L75.8727 60.5348L80.0307 67.7182Z" fill="#447EF2"/>
<path d="M96.5033 67.7184H70.9136L75.8721 60.5356L76.2288 60.018L82.6904 50.6576C82.8047 50.5144 82.9479 50.3968 83.1107 50.3124C83.2736 50.228 83.4524 50.1788 83.6356 50.1678C83.8188 50.1569 84.0023 50.1846 84.174 50.2491C84.3458 50.3135 84.502 50.4133 84.6325 50.542C84.666 50.5785 84.6971 50.6171 84.7256 50.6576L96.5033 67.7184Z" fill="#447EF2"/>
<path d="M102.462 112.92H44.3241C44.0387 112.92 43.765 112.807 43.5632 112.605C43.3614 112.404 43.2479 112.131 43.2476 111.847V97.4652C43.2479 97.1806 43.3615 96.9077 43.5633 96.7065C43.7651 96.5052 44.0387 96.392 44.3241 96.3916H102.462C102.748 96.392 103.021 96.5052 103.223 96.7065C103.425 96.9077 103.538 97.1806 103.539 97.4652V111.847C103.538 112.131 103.425 112.404 103.223 112.606C103.021 112.807 102.748 112.92 102.462 112.92V112.92ZM44.3241 96.8209C44.1528 96.8211 43.9886 96.889 43.8675 97.0098C43.7463 97.1306 43.6782 97.2944 43.6781 97.4652V111.847C43.6782 112.018 43.7463 112.181 43.8675 112.302C43.9886 112.423 44.1528 112.491 44.3241 112.491H102.462C102.634 112.491 102.798 112.423 102.919 112.302C103.04 112.181 103.108 112.018 103.108 111.847V97.4652C103.108 97.2944 103.04 97.1306 102.919 97.0098C102.798 96.889 102.634 96.8211 102.462 96.8209H44.3241Z" fill="#E6E6E6"/>
<path d="M51.8602 109.165C54.3575 109.165 56.382 107.146 56.382 104.655C56.382 102.165 54.3575 100.146 51.8602 100.146C49.3629 100.146 47.3384 102.165 47.3384 104.655C47.3384 107.146 49.3629 109.165 51.8602 109.165Z" fill="#447EF2"/>
<path d="M62.3035 101.649C62.1036 101.649 61.9119 101.729 61.7705 101.87C61.6292 102.011 61.5498 102.202 61.5498 102.401C61.5498 102.6 61.6292 102.792 61.7705 102.932C61.9119 103.073 62.1036 103.153 62.3035 103.153H97.8321C97.9324 103.156 98.0325 103.14 98.1264 103.105C98.2204 103.07 98.3063 103.016 98.3792 102.947C98.4521 102.878 98.5105 102.796 98.5509 102.704C98.5914 102.613 98.613 102.514 98.6147 102.414C98.6163 102.314 98.5979 102.214 98.5605 102.121C98.5231 102.028 98.4674 101.944 98.3968 101.873C98.3262 101.802 98.2421 101.745 98.1493 101.707C98.0566 101.669 97.9571 101.649 97.8567 101.65H62.3035V101.649Z" fill="#E6E6E6"/>
<path d="M62.3035 106.158C62.1036 106.158 61.9119 106.237 61.7705 106.378C61.6292 106.519 61.5498 106.71 61.5498 106.91C61.5498 107.109 61.6292 107.3 61.7705 107.441C61.9119 107.582 62.1036 107.661 62.3035 107.661H97.8321C97.9324 107.665 98.0325 107.649 98.1264 107.614C98.2204 107.579 98.3063 107.525 98.3792 107.456C98.4521 107.387 98.5105 107.305 98.5509 107.213C98.5914 107.121 98.613 107.023 98.6147 106.922C98.6163 106.822 98.5979 106.723 98.5605 106.63C98.5231 106.537 98.4674 106.453 98.3968 106.382C98.3262 106.31 98.2421 106.254 98.1493 106.216C98.0566 106.177 97.9571 106.158 97.8567 106.158H62.3035V106.158Z" fill="#E6E6E6"/>
<path d="M102.462 136.969H44.3241C44.0387 136.969 43.765 136.856 43.5632 136.655C43.3614 136.453 43.2479 136.18 43.2476 135.896V121.515C43.2479 121.23 43.3615 120.957 43.5633 120.756C43.7651 120.555 44.0387 120.441 44.3241 120.441H102.462C102.748 120.441 103.021 120.555 103.223 120.756C103.425 120.957 103.538 121.23 103.539 121.515V135.896C103.538 136.181 103.425 136.453 103.223 136.655C103.021 136.856 102.748 136.969 102.462 136.969ZM44.3241 120.87C44.1528 120.87 43.9886 120.938 43.8675 121.059C43.7463 121.18 43.6782 121.344 43.6781 121.515V135.896C43.6782 136.067 43.7463 136.231 43.8675 136.351C43.9886 136.472 44.1528 136.54 44.3241 136.54H102.462C102.634 136.54 102.798 136.472 102.919 136.351C103.04 136.231 103.108 136.067 103.108 135.896V121.515C103.108 121.344 103.04 121.18 102.919 121.059C102.798 120.938 102.634 120.87 102.462 120.87H44.3241Z" fill="#E6E6E6"/>
<path d="M51.8602 133.214C54.3575 133.214 56.382 131.195 56.382 128.705C56.382 126.215 54.3575 124.196 51.8602 124.196C49.3629 124.196 47.3384 126.215 47.3384 128.705C47.3384 131.195 49.3629 133.214 51.8602 133.214Z" fill="#447EF2"/>
<path d="M62.3035 125.698C62.1036 125.698 61.9119 125.777 61.7705 125.918C61.6292 126.059 61.5498 126.25 61.5498 126.449C61.5498 126.649 61.6292 126.84 61.7705 126.981C61.9119 127.122 62.1036 127.201 62.3035 127.201H97.8321C98.0291 127.2 98.2179 127.122 98.358 126.984C98.498 126.845 98.5783 126.658 98.5815 126.462C98.5847 126.265 98.5107 126.075 98.3752 125.932C98.2397 125.79 98.0536 125.706 97.8567 125.698H62.3035V125.698Z" fill="#E6E6E6"/>
<path d="M62.3035 130.208C62.1036 130.208 61.9119 130.288 61.7705 130.429C61.6292 130.57 61.5498 130.761 61.5498 130.96C61.5498 131.159 61.6292 131.351 61.7705 131.492C61.9119 131.633 62.1036 131.712 62.3035 131.712H97.8321C98.0291 131.711 98.2179 131.633 98.358 131.494C98.498 131.356 98.5783 131.169 98.5815 130.972C98.5847 130.776 98.5107 130.586 98.3752 130.443C98.2397 130.3 98.0536 130.216 97.8567 130.209H62.3035V130.208Z" fill="#E6E6E6"/>
<path d="M102.462 161.019H44.3241C44.0387 161.018 43.765 160.905 43.5632 160.704C43.3614 160.503 43.2479 160.23 43.2476 159.945V145.564C43.2479 145.279 43.3615 145.006 43.5633 144.805C43.7651 144.604 44.0387 144.491 44.3241 144.49H102.462C102.748 144.491 103.021 144.604 103.223 144.805C103.425 145.006 103.538 145.279 103.539 145.564V159.945C103.538 160.23 103.425 160.503 103.223 160.704C103.021 160.905 102.748 161.019 102.462 161.019V161.019ZM44.3241 144.92C44.1528 144.92 43.9886 144.988 43.8675 145.108C43.7463 145.229 43.6782 145.393 43.6781 145.564V159.945C43.6782 160.116 43.7463 160.28 43.8675 160.401C43.9886 160.522 44.1528 160.59 44.3241 160.59H102.462C102.634 160.59 102.798 160.522 102.919 160.401C103.04 160.28 103.108 160.116 103.108 159.945V145.564C103.108 145.393 103.04 145.229 102.919 145.108C102.798 144.988 102.634 144.92 102.462 144.92H44.3241Z" fill="#E6E6E6"/>
<path d="M51.8602 157.264C54.3575 157.264 56.382 155.245 56.382 152.755C56.382 150.264 54.3575 148.246 51.8602 148.246C49.3629 148.246 47.3384 150.264 47.3384 152.755C47.3384 155.245 49.3629 157.264 51.8602 157.264Z" fill="#447EF2"/>
<path d="M62.3035 149.749C62.1036 149.749 61.9119 149.828 61.7705 149.969C61.6292 150.11 61.5498 150.301 61.5498 150.5C61.5498 150.699 61.6292 150.891 61.7705 151.032C61.9119 151.173 62.1036 151.252 62.3035 151.252H97.8321C97.9324 151.256 98.0325 151.239 98.1264 151.204C98.2204 151.169 98.3063 151.115 98.3792 151.046C98.4521 150.978 98.5105 150.895 98.5509 150.803C98.5914 150.712 98.613 150.613 98.6147 150.513C98.6163 150.413 98.5979 150.313 98.5605 150.22C98.5231 150.128 98.4674 150.043 98.3968 149.972C98.3262 149.901 98.2421 149.844 98.1493 149.806C98.0566 149.768 97.9571 149.748 97.8567 149.749H62.3035V149.749Z" fill="#E6E6E6"/>
<path d="M62.3035 154.257C62.1036 154.257 61.9119 154.337 61.7705 154.477C61.6292 154.618 61.5498 154.81 61.5498 155.009C61.5498 155.208 61.6292 155.399 61.7705 155.54C61.9119 155.681 62.1036 155.761 62.3035 155.761H97.8321C97.9324 155.764 98.0325 155.748 98.1264 155.713C98.2204 155.678 98.3063 155.624 98.3792 155.555C98.4521 155.486 98.5105 155.404 98.5509 155.312C98.5914 155.22 98.613 155.122 98.6147 155.022C98.6163 154.922 98.5979 154.822 98.5605 154.729C98.5231 154.636 98.4674 154.552 98.3968 154.481C98.3262 154.409 98.2421 154.353 98.1493 154.315C98.0566 154.276 97.9571 154.257 97.8567 154.258H62.3035V154.257Z" fill="#E6E6E6"/>
<path d="M149.241 197.229H145.719L144.043 183.68H149.242L149.241 197.229Z" fill="#FEB8B8"/>
<path d="M150.14 200.634H138.782V200.491C138.782 199.321 139.248 198.2 140.077 197.373C140.906 196.547 142.03 196.082 143.202 196.082H150.14L150.14 200.634Z" fill="#2F2E41"/>
<path d="M193 194.929L189.571 195.734L184.825 182.928L189.885 181.739L193 194.929Z" fill="#FEB8B8"/>
<path d="M194.658 198.038L183.602 200.633L183.569 200.494C183.436 199.93 183.415 199.346 183.509 198.774C183.602 198.203 183.807 197.655 184.112 197.163C184.418 196.67 184.818 196.242 185.289 195.904C185.76 195.566 186.294 195.323 186.859 195.191L193.611 193.605L194.658 198.038Z" fill="#2F2E41"/>
<path d="M148.522 140.081C148.528 139.376 148.738 122.712 153.318 116.411L153.386 116.318L169.348 118.515L168.991 122.012C169.693 122.693 175.216 128.448 176.81 142.076L193.754 187.452L185.877 188.166L162.561 138.631L150.222 192.475H142.416L148.522 140.081Z" fill="#2F2E41"/>
<path d="M151.449 117.027L153.009 108.858C152.703 108.466 151.35 106.583 151.651 104.376C151.848 102.936 152.71 101.673 154.214 100.622L158.259 91.211L158.313 91.1791C158.586 91.0192 165.025 87.3059 168.535 90.8093C168.623 90.877 177.266 97.7201 173.797 106.949L169.512 119.769L151.449 117.027Z" fill="#CCCCCC"/>
<path d="M146.02 128.078C146.441 128.03 146.846 127.891 147.206 127.67C147.567 127.449 147.875 127.152 148.108 126.799C148.342 126.447 148.495 126.048 148.556 125.63C148.618 125.212 148.587 124.786 148.466 124.381L156.818 118.381L151.818 116.484L144.654 122.473C143.988 122.723 143.436 123.207 143.103 123.835C142.77 124.462 142.679 125.189 142.848 125.879C143.016 126.569 143.431 127.174 144.016 127.579C144.6 127.984 145.313 128.162 146.02 128.079V128.078Z" fill="#FEB8B8"/>
<path d="M147.555 118.371L160.305 108.352L156.515 95.4371C156.336 94.8255 156.286 94.1839 156.367 93.552C156.448 92.9202 156.658 92.3117 156.985 91.7644C157.288 91.2486 157.695 90.8016 158.181 90.4518C158.667 90.1021 159.221 89.8575 159.807 89.7335C161.99 89.2729 163.971 90.4917 165.695 93.3568L165.709 93.3827C165.994 94.078 172.636 110.453 167.564 113.955C162.603 117.38 151.098 122.367 150.982 122.417L150.847 122.475L147.555 118.371Z" fill="#CCCCCC"/>
<path d="M164.501 87.4034C168.767 87.4034 172.225 83.9547 172.225 79.7005C172.225 75.4463 168.767 71.9976 164.501 71.9976C160.235 71.9976 156.777 75.4463 156.777 79.7005C156.777 83.9547 160.235 87.4034 164.501 87.4034Z" fill="#FEB8B8"/>
<path d="M176.611 76.95C180.385 76.95 183.444 73.8991 183.444 70.1357C183.444 66.3722 180.385 63.3213 176.611 63.3213C172.837 63.3213 169.777 66.3722 169.777 70.1357C169.777 73.8991 172.837 76.95 176.611 76.95Z" fill="#2F2E41"/>
<path d="M182.505 75.7789C181.62 76.4159 180.596 76.8326 179.517 76.9939C178.438 77.1553 177.336 77.0567 176.303 76.7064C175.27 76.3561 174.336 75.7643 173.58 74.9804C172.823 74.1966 172.266 73.2434 171.954 72.2008C172.072 73.1357 172.382 74.0361 172.867 74.8451C173.351 75.6542 173.998 76.3543 174.768 76.9013C175.537 77.4483 176.412 77.8303 177.336 78.0231C178.261 78.2159 179.216 78.2154 180.141 78.0216C181.065 77.8277 181.94 77.4448 182.708 76.8969C183.477 76.3491 184.123 75.6482 184.607 74.8386C185.09 74.029 185.4 73.1283 185.516 72.1932C185.633 71.2582 185.554 70.3092 185.284 69.4062C185.437 70.6194 185.26 71.8513 184.771 72.9726C184.282 74.0938 183.499 75.0632 182.505 75.7789Z" fill="#2F2E41"/>
<path d="M155.537 75.7856C156.73 73.6559 157.186 72.7673 158.725 71.4698C160.085 70.3243 161.758 69.9881 163.108 71.0732C164.749 70.3586 166.581 70.2045 168.319 70.6349C170.057 71.0653 171.604 72.0561 172.719 73.4533C173.835 74.8506 174.456 76.576 174.487 78.3617C174.518 80.1474 173.957 81.8933 172.891 83.3282C171.825 84.7631 170.313 85.8066 168.591 86.2968C166.869 86.7869 165.032 86.6961 163.367 86.0386C161.702 85.381 160.301 84.1935 159.383 82.6605C158.464 81.1275 158.079 79.3348 158.287 77.5609C157.113 77.3976 156.71 75.9509 155.537 75.7856Z" fill="#2F2E41"/>
<path d="M210.118 201H1.21468C0.91174 201 0.666504 200.868 0.666504 200.705C0.666504 200.543 0.912023 200.411 1.21468 200.411H210.118C210.421 200.411 210.666 200.543 210.666 200.705C210.666 200.868 210.421 201 210.118 201Z" fill="#E6E6E6"/>
</g>
<defs>
<clipPath id="clip0">
<rect width="210" height="201" fill="white" transform="translate(0.666504)"/>
</clipPath>
</defs>
</svg>
