<svg width="196" height="70" viewBox="0 0 196 70" fill="none" xmlns="http://www.w3.org/2000/svg">
<g filter="url(#filter0_d)">
<path d="M26.4112 49.8577H29.2782V60.6612C27.9578 61.8225 26.3991 62.7127 24.5941 63.3317C22.7891 63.9508 20.8912 64.2624 18.9004 64.2624C16.0738 64.2624 13.5298 63.6433 11.2685 62.4011C9.00719 61.1589 7.23044 59.4392 5.93827 57.2421C4.64609 55.045 4 52.5809 4 49.8577C4 47.1346 4.64609 44.6705 5.93827 42.4734C7.23044 40.2762 9.00719 38.5566 11.2685 37.3144C13.5298 36.0722 16.0859 35.4531 18.9408 35.4531C21.0931 35.4531 23.0717 35.7971 24.8767 36.4849C26.6818 37.1728 28.2001 38.1924 29.4397 39.5398L27.5822 41.4416C25.3492 39.2283 22.5064 38.1236 19.0619 38.1236C16.7724 38.1236 14.7089 38.6294 12.8635 39.641C11.0181 40.6525 9.57252 42.0566 8.52262 43.8491C7.47273 45.6416 6.94778 47.6445 6.94778 49.8577C6.94778 52.071 7.47273 54.0658 8.52262 55.8462C9.57252 57.6265 11.0141 59.0306 12.8433 60.0543C14.6726 61.078 16.732 61.5918 19.0216 61.5918C21.929 61.5918 24.3922 60.8635 26.4112 59.4069V49.8577V49.8577Z" fill="white"/>
<path d="M55.1821 47.7944C54.2534 46.1475 52.9693 44.8689 51.3258 43.9504C49.6823 43.0319 47.841 42.5747 45.7937 42.5747C43.7464 42.5747 41.905 43.0319 40.2615 43.9504C38.618 44.8689 37.3259 46.1475 36.385 47.7944C35.4441 49.4412 34.9717 51.3025 34.9717 53.3782C34.9717 55.4539 35.4441 57.3152 36.385 58.962C37.3259 60.6088 38.618 61.8955 40.2615 62.8262C41.905 63.7568 43.7464 64.2221 45.7937 64.2221C47.841 64.2221 49.6823 63.7568 51.3258 62.8262C52.9693 61.8955 54.2534 60.6088 55.1821 58.962C56.1109 57.3152 56.5753 55.4539 56.5753 53.3782C56.5753 51.3025 56.1109 49.4412 55.1821 47.7944ZM52.6584 57.7076C51.984 58.9741 51.0512 59.9533 49.8519 60.6412C48.6526 61.329 47.2999 61.673 45.7937 61.673C44.2875 61.673 42.9347 61.329 41.7354 60.6412C40.5361 59.9533 39.5953 58.9741 38.9088 57.7076C38.2223 56.4412 37.8791 54.9967 37.8791 53.3782C37.8791 51.7597 38.2223 50.3152 38.9088 49.0487C39.5953 47.7822 40.5361 46.803 41.7354 46.1152C42.9347 45.4273 44.2875 45.0834 45.7937 45.0834C47.2999 45.0834 48.6526 45.4273 49.8519 46.1152C51.0512 46.803 51.984 47.7822 52.6584 49.0487C53.3327 50.3152 53.6679 51.7597 53.6679 53.3782C53.6679 54.9967 53.3327 56.4412 52.6584 57.7076Z" fill="white"/>
<path d="M80.501 47.7944C79.5722 46.1475 78.2881 44.8689 76.6446 43.9504C75.0012 43.0319 73.1598 42.5747 71.1125 42.5747C69.0652 42.5747 67.2239 43.0319 65.5804 43.9504C63.9369 44.8689 62.6447 46.1475 61.7038 47.7944C60.763 49.4412 60.2905 51.3025 60.2905 53.3782C60.2905 55.4539 60.763 57.3152 61.7038 58.962C62.6447 60.6088 63.9369 61.8955 65.5804 62.8262C67.2239 63.7568 69.0652 64.2221 71.1125 64.2221C73.1598 64.2221 75.0012 63.7568 76.6446 62.8262C78.2881 61.8955 79.5722 60.6088 80.501 58.962C81.4297 57.3152 81.8941 55.4539 81.8941 53.3782C81.8941 51.3025 81.4297 49.4412 80.501 47.7944ZM77.9772 57.7076C77.3028 58.9741 76.3701 59.9533 75.1708 60.6412C73.9714 61.329 72.6187 61.673 71.1125 61.673C69.6063 61.673 68.2536 61.329 67.0543 60.6412C65.855 59.9533 64.9141 58.9741 64.2276 57.7076C63.5412 56.4412 63.1979 54.9967 63.1979 53.3782C63.1979 51.7597 63.5412 50.3152 64.2276 49.0487C64.9141 47.7822 65.855 46.803 67.0543 46.1152C68.2536 45.4273 69.6063 45.0834 71.1125 45.0834C72.6187 45.0834 73.9714 45.4273 75.1708 46.1152C76.3701 46.803 77.3028 47.7822 77.9772 49.0487C78.6516 50.3152 78.9867 51.7597 78.9867 53.3782C78.9867 54.9967 78.6516 56.4412 77.9772 57.7076Z" fill="white"/>
<path d="M104.265 33.9966V46.7827C103.376 45.407 102.238 44.3631 100.853 43.6469C99.4675 42.9307 97.9129 42.5746 96.1886 42.5746C94.1978 42.5746 92.3928 43.0278 90.7776 43.9301C89.1624 44.8324 87.8985 46.107 86.9818 47.7538C86.0652 49.4006 85.6089 51.274 85.6089 53.3781C85.6089 55.4821 86.0652 57.3555 86.9818 59.0024C87.8985 60.6492 89.1624 61.9278 90.7776 62.8463C92.3928 63.7648 94.1978 64.222 96.1886 64.222C97.9653 64.222 99.5604 63.8457 100.974 63.0891C102.387 62.3324 103.526 61.2399 104.386 59.8116V64.0197H107.132V33.9966H104.265V33.9966ZM103.275 57.7076C102.589 58.974 101.648 59.9532 100.449 60.6411C99.2494 61.3289 97.9129 61.6729 96.4309 61.6729C94.9247 61.6729 93.5719 61.3289 92.3726 60.6411C91.1733 59.9532 90.2325 58.974 89.546 57.7076C88.8595 56.4411 88.5163 54.9966 88.5163 53.3781C88.5163 51.7596 88.8595 50.3151 89.546 49.0486C90.2325 47.7821 91.1733 46.8029 92.3726 46.1151C93.5719 45.4272 94.9247 45.0833 96.4309 45.0833C97.9129 45.0833 99.2494 45.4272 100.449 46.1151C101.648 46.8029 102.589 47.7821 103.275 49.0486C103.962 50.3151 104.305 51.7596 104.305 53.3781C104.305 54.9966 103.962 56.4411 103.275 57.7076Z" fill="white"/>
<path d="M133.198 47.7944C132.269 46.1475 130.985 44.8689 129.341 43.9504C127.698 43.0319 125.857 42.5747 123.809 42.5747C121.762 42.5747 119.921 43.0319 118.277 43.9504C116.634 44.8689 115.341 46.1475 114.401 47.7944C113.46 49.4412 112.987 51.3025 112.987 53.3782C112.987 55.4539 113.46 57.3152 114.401 58.962C115.341 60.6088 116.634 61.8955 118.277 62.8262C119.921 63.7568 121.762 64.2221 123.809 64.2221C125.857 64.2221 127.698 63.7568 129.341 62.8262C130.985 61.8955 132.269 60.6088 133.198 58.962C134.127 57.3152 134.591 55.4539 134.591 53.3782C134.591 51.3025 134.127 49.4412 133.198 47.7944ZM130.674 57.7076C130 58.9741 129.067 59.9533 127.868 60.6412C126.668 61.329 125.315 61.673 123.809 61.673C122.303 61.673 120.95 61.329 119.751 60.6412C118.552 59.9533 117.611 58.9741 116.924 57.7076C116.238 56.4412 115.895 54.9967 115.895 53.3782C115.895 51.7597 116.238 50.3152 116.924 49.0487C117.611 47.7822 118.552 46.803 119.751 46.1152C120.95 45.4273 122.303 45.0834 123.809 45.0834C125.315 45.0834 126.668 45.4273 127.868 46.1152C129.067 46.803 130 47.7822 130.674 49.0487C131.348 50.3152 131.683 51.7597 131.683 53.3782C131.683 54.9967 131.348 56.4412 130.674 57.7076Z" fill="white"/>
<path d="M143.616 62.8464C141.96 61.9279 140.66 60.6412 139.719 58.9822C138.778 57.3233 138.306 55.4539 138.306 53.3782C138.306 51.3025 138.778 49.4412 139.719 47.7944C140.66 46.1475 141.96 44.8689 143.616 43.9504C145.271 43.0319 147.149 42.5747 149.249 42.5747C151.078 42.5747 152.713 42.9308 154.155 43.647C155.597 44.3631 156.731 45.4071 157.567 46.7828L155.427 48.2394C154.728 47.1874 153.84 46.3984 152.762 45.8724C151.684 45.3464 150.513 45.0834 149.249 45.0834C147.714 45.0834 146.333 45.4273 145.11 46.1152C143.886 46.803 142.929 47.7822 142.243 49.0487C141.556 50.3152 141.213 51.7597 141.213 53.3782C141.213 55.025 141.556 56.4736 142.243 57.7279C142.929 58.9822 143.886 59.9533 145.11 60.6412C146.333 61.329 147.714 61.673 149.249 61.673C150.513 61.673 151.684 61.4181 152.762 60.9042C153.84 60.3903 154.728 59.6094 155.427 58.5574L157.567 60.014C156.731 61.3897 155.589 62.4337 154.135 63.1498C152.681 63.866 151.054 64.2221 149.249 64.2221C147.149 64.2221 145.271 63.7649 143.616 62.8464Z" fill="white"/>
<path d="M187.94 28.3811C188.841 28.4884 189.777 28.1942 190.467 27.5024C191.666 26.3017 191.666 24.3575 190.467 23.1569C189.737 22.4253 188.73 22.139 187.781 22.2981C187.23 20.342 186.186 18.4932 184.651 16.9546C179.858 12.1518 172.089 12.1518 167.296 16.9546C165.717 18.537 164.657 20.4454 164.118 22.4651C164.09 22.5764 164.062 22.6837 164.034 22.7951C163.987 23.0018 163.943 23.2125 163.903 23.4193C163.657 24.7591 163.634 26.1347 163.836 27.4825C163.852 27.5779 163.868 27.6734 163.883 27.7688C163.947 28.1425 164.03 28.5123 164.129 28.882C164.673 30.8818 165.728 32.7743 167.296 34.3447C168.847 35.8993 170.708 36.9489 172.68 37.4976C173.097 37.6129 173.517 37.7083 173.946 37.7759C174.013 37.7878 174.077 37.7997 174.144 37.8077C174.858 36.3883 175.108 34.794 174.89 33.2554C173.303 33.0288 171.771 32.3052 170.553 31.0806C169.335 29.8561 168.609 28.3254 168.383 26.7351C168.165 25.1964 168.415 23.6021 169.129 22.1828C169.486 21.4711 169.962 20.8072 170.553 20.2148C173.549 17.213 178.405 17.213 181.401 20.2148C184.397 23.2165 184.397 28.0829 181.401 31.0846C180.81 31.677 180.143 32.1541 179.437 32.5119C179.687 34.1817 179.592 35.8913 179.155 37.5294C181.171 36.9887 183.076 35.9271 184.655 34.3447C186.349 32.6431 187.444 30.5677 187.94 28.3811Z" fill="url(#paint0_linear)"/>
<path d="M175.973 43.0396C171.18 47.8424 163.411 47.8424 158.618 43.0396C153.825 38.2368 153.825 30.4522 158.618 25.6494C160.197 24.0671 162.102 23.0055 164.118 22.4648C164.09 22.5762 164.062 22.6835 164.034 22.7948C163.987 23.0016 163.943 23.2123 163.903 23.419C163.657 24.7589 163.633 26.1345 163.836 27.4823C163.126 27.8401 162.463 28.3172 161.872 28.9096C158.876 31.9113 158.876 36.7777 161.872 39.7794C164.867 42.7812 169.724 42.7812 172.72 39.7794C173.311 39.187 173.787 38.5191 174.144 37.8114C174.858 36.3921 175.108 34.7978 174.89 33.2591C174.664 31.6688 173.942 30.1342 172.72 28.9136C171.498 27.689 169.97 26.9654 168.383 26.7388C168.165 25.2002 168.415 23.6059 169.129 22.1865C171.636 22.5642 174.049 23.7172 175.977 25.6494C177.905 27.5817 179.06 29.999 179.433 32.5117C179.683 34.1815 179.588 35.8911 179.151 37.5291C178.612 39.5488 177.552 41.4533 175.973 43.0396Z" fill="url(#paint1_linear)"/>
</g>
<defs>
<filter id="filter0_d" x="0" y="0" width="398" height="156" filterUnits="userSpaceOnUse" color-interpolation-filters="sRGB">
<feFlood flood-opacity="0" result="BackgroundImageFix"/>
<feColorMatrix in="SourceAlpha" type="matrix" values="0 0 0 0 0 0 0 0 0 0 0 0 0 0 0 0 0 0 127 0" result="hardAlpha"/>
<feOffset dy="4"/>
<feGaussianBlur stdDeviation="2"/>
<feComposite in2="hardAlpha" operator="out"/>
<feColorMatrix type="matrix" values="0 0 0 0 0 0 0 0 0 0 0 0 0 0 0 0 0 0 0.25 0"/>
<feBlend mode="normal" in2="BackgroundImageFix" result="effect1_dropShadow"/>
<feBlend mode="normal" in="SourceGraphic" in2="effect1_dropShadow" result="shape"/>
</filter>
<linearGradient id="paint0_linear" x1="185.366" y1="16.2385" x2="167.249" y2="34.3184" gradientUnits="userSpaceOnUse">
<stop stop-color="#6787C4"/>
<stop offset="0.1376" stop-color="#6280B9"/>
<stop offset="0.3265" stop-color="#566FA3"/>
<stop offset="0.545" stop-color="#435784"/>
<stop offset="0.7837" stop-color="#28395F"/>
<stop offset="1" stop-color="#0B1A3E"/>
</linearGradient>
<linearGradient id="paint1_linear" x1="175.974" y1="25.6488" x2="158.585" y2="43.0032" gradientUnits="userSpaceOnUse">
<stop stop-color="#0B1A3E"/>
<stop offset="0.2163" stop-color="#28395F"/>
<stop offset="0.455" stop-color="#435784"/>
<stop offset="0.6735" stop-color="#566FA3"/>
<stop offset="0.8624" stop-color="#6280B9"/>
<stop offset="1" stop-color="#6787C4"/>
</linearGradient>
</defs>
</svg>