<svg width="477" height="173" viewBox="0 0 477 173" fill="none" xmlns="http://www.w3.org/2000/svg">
<g filter="url(#filter0_d)">
<path d="M59.5 123.22H66.6V149.92C63.33 152.79 59.47 154.99 55 156.52C50.53 158.05 45.83 158.82 40.9 158.82C33.9 158.82 27.6 157.29 22 154.22C16.4 151.15 12 146.9 8.8 141.47C5.6 136.04 4 129.95 4 123.22C4 116.49 5.6 110.4 8.8 104.97C12 99.5401 16.4 95.2901 22 92.2201C27.6 89.1501 33.93 87.6201 41 87.6201C46.33 87.6201 51.23 88.4701 55.7 90.1701C60.17 91.8701 63.93 94.3901 67 97.7201L62.4 102.42C56.87 96.9501 49.83 94.2201 41.3 94.2201C35.63 94.2201 30.52 95.4701 25.95 97.9701C21.38 100.47 17.8 103.94 15.2 108.37C12.6 112.8 11.3 117.75 11.3 123.22C11.3 128.69 12.6 133.62 15.2 138.02C17.8 142.42 21.37 145.89 25.9 148.42C30.43 150.95 35.53 152.22 41.2 152.22C48.4 152.22 54.5 150.42 59.5 146.82V123.22Z" fill="#0B1A3E"/>
<path d="M130.75 118.12C128.45 114.05 125.27 110.89 121.2 108.62C117.13 106.35 112.57 105.22 107.5 105.22C102.43 105.22 97.8702 106.35 93.8002 108.62C89.7302 110.89 86.5302 114.05 84.2002 118.12C81.8702 122.19 80.7002 126.79 80.7002 131.92C80.7002 137.05 81.8702 141.65 84.2002 145.72C86.5302 149.79 89.7302 152.97 93.8002 155.27C97.8702 157.57 102.43 158.72 107.5 158.72C112.57 158.72 117.13 157.57 121.2 155.27C125.27 152.97 128.45 149.79 130.75 145.72C133.05 141.65 134.2 137.05 134.2 131.92C134.2 126.79 133.05 122.19 130.75 118.12ZM124.5 142.62C122.83 145.75 120.52 148.17 117.55 149.87C114.58 151.57 111.23 152.42 107.5 152.42C103.77 152.42 100.42 151.57 97.4502 149.87C94.4802 148.17 92.1502 145.75 90.4502 142.62C88.7502 139.49 87.9002 135.92 87.9002 131.92C87.9002 127.92 88.7502 124.35 90.4502 121.22C92.1502 118.09 94.4802 115.67 97.4502 113.97C100.42 112.27 103.77 111.42 107.5 111.42C111.23 111.42 114.58 112.27 117.55 113.97C120.52 115.67 122.83 118.09 124.5 121.22C126.17 124.35 127 127.92 127 131.92C127 135.92 126.17 139.49 124.5 142.62Z" fill="#0B1A3E"/>
<path d="M193.45 118.12C191.15 114.05 187.97 110.89 183.9 108.62C179.83 106.35 175.27 105.22 170.2 105.22C165.13 105.22 160.57 106.35 156.5 108.62C152.43 110.89 149.23 114.05 146.9 118.12C144.57 122.19 143.4 126.79 143.4 131.92C143.4 137.05 144.57 141.65 146.9 145.72C149.23 149.79 152.43 152.97 156.5 155.27C160.57 157.57 165.13 158.72 170.2 158.72C175.27 158.72 179.83 157.57 183.9 155.27C187.97 152.97 191.15 149.79 193.45 145.72C195.75 141.65 196.9 137.05 196.9 131.92C196.9 126.79 195.75 122.19 193.45 118.12ZM187.2 142.62C185.53 145.75 183.22 148.17 180.25 149.87C177.28 151.57 173.93 152.42 170.2 152.42C166.47 152.42 163.12 151.57 160.15 149.87C157.18 148.17 154.85 145.75 153.15 142.62C151.45 139.49 150.6 135.92 150.6 131.92C150.6 127.92 151.45 124.35 153.15 121.22C154.85 118.09 157.18 115.67 160.15 113.97C163.12 112.27 166.47 111.42 170.2 111.42C173.93 111.42 177.28 112.27 180.25 113.97C183.22 115.67 185.53 118.09 187.2 121.22C188.87 124.35 189.7 127.92 189.7 131.92C189.7 135.92 188.87 139.49 187.2 142.62Z" fill="#0B1A3E"/>
<path d="M252.3 84.02V115.62C250.1 112.22 247.28 109.64 243.85 107.87C240.42 106.1 236.57 105.22 232.3 105.22C227.37 105.22 222.9 106.34 218.9 108.57C214.9 110.8 211.77 113.95 209.5 118.02C207.23 122.09 206.1 126.72 206.1 131.92C206.1 137.12 207.23 141.75 209.5 145.82C211.77 149.89 214.9 153.05 218.9 155.32C222.9 157.59 227.37 158.72 232.3 158.72C236.7 158.72 240.65 157.79 244.15 155.92C247.65 154.05 250.47 151.35 252.6 147.82V158.22H259.4V84.02H252.3ZM249.85 142.62C248.15 145.75 245.82 148.17 242.85 149.87C239.88 151.57 236.57 152.42 232.9 152.42C229.17 152.42 225.82 151.57 222.85 149.87C219.88 148.17 217.55 145.75 215.85 142.62C214.15 139.49 213.3 135.92 213.3 131.92C213.3 127.92 214.15 124.35 215.85 121.22C217.55 118.09 219.88 115.67 222.85 113.97C225.82 112.27 229.17 111.42 232.9 111.42C236.57 111.42 239.88 112.27 242.85 113.97C245.82 115.67 248.15 118.09 249.85 121.22C251.55 124.35 252.4 127.92 252.4 131.92C252.4 135.92 251.55 139.49 249.85 142.62Z" fill="#0B1A3E"/>
<path d="M323.95 118.12C321.65 114.05 318.47 110.89 314.4 108.62C310.33 106.35 305.77 105.22 300.7 105.22C295.63 105.22 291.07 106.35 287 108.62C282.93 110.89 279.73 114.05 277.4 118.12C275.07 122.19 273.9 126.79 273.9 131.92C273.9 137.05 275.07 141.65 277.4 145.72C279.73 149.79 282.93 152.97 287 155.27C291.07 157.57 295.63 158.72 300.7 158.72C305.77 158.72 310.33 157.57 314.4 155.27C318.47 152.97 321.65 149.79 323.95 145.72C326.25 141.65 327.4 137.05 327.4 131.92C327.4 126.79 326.25 122.19 323.95 118.12ZM317.7 142.62C316.03 145.75 313.72 148.17 310.75 149.87C307.78 151.57 304.43 152.42 300.7 152.42C296.97 152.42 293.62 151.57 290.65 149.87C287.68 148.17 285.35 145.75 283.65 142.62C281.95 139.49 281.1 135.92 281.1 131.92C281.1 127.92 281.95 124.35 283.65 121.22C285.35 118.09 287.68 115.67 290.65 113.97C293.62 112.27 296.97 111.42 300.7 111.42C304.43 111.42 307.78 112.27 310.75 113.97C313.72 115.67 316.03 118.09 317.7 121.22C319.37 124.35 320.2 127.92 320.2 131.92C320.2 135.92 319.37 139.49 317.7 142.62Z" fill="#0B1A3E"/>
<path d="M349.75 155.32C345.65 153.05 342.43 149.87 340.1 145.77C337.77 141.67 336.6 137.05 336.6 131.92C336.6 126.79 337.77 122.19 340.1 118.12C342.43 114.05 345.65 110.89 349.75 108.62C353.85 106.35 358.5 105.22 363.7 105.22C368.23 105.22 372.28 106.1 375.85 107.87C379.42 109.64 382.23 112.22 384.3 115.62L379 119.22C377.27 116.62 375.07 114.67 372.4 113.37C369.73 112.07 366.83 111.42 363.7 111.42C359.9 111.42 356.48 112.27 353.45 113.97C350.42 115.67 348.05 118.09 346.35 121.22C344.65 124.35 343.8 127.92 343.8 131.92C343.8 135.99 344.65 139.57 346.35 142.67C348.05 145.77 350.42 148.17 353.45 149.87C356.48 151.57 359.9 152.42 363.7 152.42C366.83 152.42 369.73 151.79 372.4 150.52C375.07 149.25 377.27 147.32 379 144.72L384.3 148.32C382.23 151.72 379.4 154.3 375.8 156.07C372.2 157.84 368.17 158.72 363.7 158.72C358.5 158.72 353.85 157.59 349.75 155.32Z" fill="#0B1A3E"/>
<path d="M459.515 70.1419C461.745 70.4072 464.064 69.6801 465.774 67.9704C468.741 65.003 468.741 60.1981 465.774 57.2307C463.966 55.4227 461.47 54.7152 459.122 55.1083C457.756 50.2739 455.172 45.7049 451.369 41.9023C439.5 30.0326 420.26 30.0326 408.391 41.9023C404.48 45.813 401.856 50.5294 400.52 55.521C400.451 55.7961 400.383 56.0614 400.314 56.3365C400.196 56.8475 400.088 57.3682 399.99 57.8792C399.38 61.1905 399.321 64.5903 399.823 67.9213C399.862 68.1571 399.901 68.3929 399.94 68.6287C400.098 69.5524 400.304 70.4662 400.55 71.38C401.896 76.3224 404.509 80.9995 408.391 84.8808C412.233 88.7227 416.841 91.3167 421.724 92.6727C422.756 92.9577 423.798 93.1935 424.859 93.3605C425.026 93.39 425.183 93.4195 425.35 93.4391C427.119 89.9313 427.738 85.9911 427.197 82.1885C423.267 81.6284 419.474 79.8401 416.458 76.8137C413.441 73.7873 411.643 70.0043 411.083 66.074C410.543 62.2714 411.162 58.3312 412.93 54.8233C413.815 53.0645 414.994 51.4236 416.458 49.9595C423.876 42.5409 435.903 42.5409 443.322 49.9595C450.74 57.3781 450.74 69.405 443.322 76.8235C441.858 78.2876 440.207 79.4667 438.458 80.351C439.077 84.4779 438.841 88.703 437.76 92.7513C442.752 91.415 447.468 88.7915 451.379 84.8808C455.575 80.6753 458.287 75.5461 459.515 70.1419Z" fill="url(#paint0_linear)"/>
<path d="M429.881 106.37C418.011 118.24 398.772 118.24 386.902 106.37C375.033 94.5007 375.033 75.2616 386.902 63.3919C390.813 59.4812 395.529 56.8576 400.521 55.5213C400.452 55.7964 400.383 56.0617 400.315 56.3369C400.197 56.8478 400.089 57.3686 399.99 57.8795C399.381 61.1909 399.322 64.5906 399.823 67.9216C398.065 68.8059 396.424 69.985 394.96 71.4491C387.541 78.8677 387.541 90.8946 394.96 98.3131C402.378 105.732 414.405 105.732 421.824 98.3131C423.288 96.8491 424.467 95.1983 425.351 93.4493C427.12 89.9414 427.739 86.0013 427.198 82.1986C426.638 78.2683 424.85 74.4755 421.824 71.4589C418.797 68.4326 415.014 66.6442 411.084 66.0842C410.543 62.2815 411.162 58.3413 412.931 54.8335C419.141 55.767 425.115 58.6165 429.891 63.3919C434.666 68.1673 437.525 74.1414 438.449 80.3514C439.068 84.4782 438.832 88.7034 437.751 92.7517C436.415 97.7432 433.791 102.45 429.881 106.37Z" fill="url(#paint1_linear)"/>
</g>
<defs>
<filter id="filter0_d" x="0" y="0" width="481" height="181" filterUnits="userSpaceOnUse" color-interpolation-filters="sRGB">
<feFlood flood-opacity="0" result="BackgroundImageFix"/>
<feColorMatrix in="SourceAlpha" type="matrix" values="0 0 0 0 0 0 0 0 0 0 0 0 0 0 0 0 0 0 127 0" result="hardAlpha"/>
<feOffset dy="4"/>
<feGaussianBlur stdDeviation="2"/>
<feComposite in2="hardAlpha" operator="out"/>
<feColorMatrix type="matrix" values="0 0 0 0 0 0 0 0 0 0 0 0 0 0 0 0 0 0 0.25 0"/>
<feBlend mode="normal" in2="BackgroundImageFix" result="effect1_dropShadow"/>
<feBlend mode="normal" in="SourceGraphic" in2="effect1_dropShadow" result="shape"/>
</filter>
<linearGradient id="paint0_linear" x1="453.14" y1="40.1323" x2="408.366" y2="84.9062" gradientUnits="userSpaceOnUse">
<stop stop-color="#6787C4"/>
<stop offset="0.1376" stop-color="#6280B9"/>
<stop offset="0.3265" stop-color="#566FA3"/>
<stop offset="0.545" stop-color="#435784"/>
<stop offset="0.7837" stop-color="#28395F"/>
<stop offset="1" stop-color="#0B1A3E"/>
</linearGradient>
<linearGradient id="paint1_linear" x1="429.883" y1="63.3903" x2="386.906" y2="106.368" gradientUnits="userSpaceOnUse">
<stop stop-color="#0B1A3E"/>
<stop offset="0.2163" stop-color="#28395F"/>
<stop offset="0.455" stop-color="#435784"/>
<stop offset="0.6735" stop-color="#566FA3"/>
<stop offset="0.8624" stop-color="#6280B9"/>
<stop offset="1" stop-color="#6787C4"/>
</linearGradient>
</defs>
</svg>
