<svg width="319" height="319" viewBox="0 0 319 319" fill="none" xmlns="http://www.w3.org/2000/svg">
<path d="M266.25 203.816C244.041 256.876 184.879 286.6 133.574 278.582C125.226 277.278 102.339 273.392 82.0748 255.056C43.0657 219.76 34.7235 149.868 66.191 100.613C89.0937 64.7648 130.149 44.4434 169.159 45.4597C177.562 45.679 209.765 47.0281 238.067 70.7054C242.223 74.1835 251.392 82.4474 259.655 95.5582C279.058 126.344 280.725 169.236 266.25 203.816Z" fill="url(#paint0_linear)"/>
<path d="M41.1982 193.915C44.9901 177.729 57.3907 165.024 73.1765 161.139C84.0294 158.467 94.442 159.901 103.243 164.23C106.162 165.666 109.631 164.041 110.44 160.826C118.22 129.906 145.602 107.063 178.188 107.063C216.828 107.063 248.151 139.18 248.151 178.799C248.151 179.85 248.13 181.287 248.112 182.666C248.249 185.629 249.51 186.887 251.394 187.202C266.533 188.818 278.431 201.614 279.091 217.397C279.85 235.52 265.464 250.534 247.773 250.534H84.1325C56.119 250.533 34.1863 223.846 41.1982 193.915Z" fill="url(#paint1_linear)"/>
<path opacity="0.21" d="M53.8722 199.98C57.2582 185.529 68.3295 174.184 82.4248 170.716C92.1152 168.33 101.412 169.611 109.27 173.476C111.876 174.758 114.973 173.306 115.695 170.436C122.642 142.828 147.09 122.433 176.185 122.433C210.685 122.433 238.653 151.11 238.653 186.483C238.653 187.422 238.634 188.705 238.619 189.936C238.741 192.58 239.867 193.704 241.549 193.986C255.067 195.429 265.689 206.855 266.279 220.946C266.956 237.128 254.111 250.533 238.315 250.533H92.2063C67.1945 250.533 47.6108 226.705 53.8722 199.98Z" fill="#91B3FA"/>
<path d="M72.8724 269.922C72.8724 271.248 73.9584 272.333 75.286 272.333H205.809C207.136 272.333 208.222 271.248 208.222 269.922L209.308 194.914C209.308 193.588 207.746 190.998 204.882 191.194L77.3204 187.893C75.6549 187.85 74.0444 188.49 72.8647 189.667C71.685 190.843 71.0401 192.45 71.0788 194.114L72.8724 269.922Z" fill="url(#paint2_linear)"/>
<path d="M75.2551 267.608C75.2551 268.865 76.2826 269.892 77.5388 269.892H202.661C203.917 269.892 204.944 268.865 204.944 267.608L205.969 199.516C205.849 195.418 202.256 193.946 200.079 194.033L77.8234 190.753C76.6532 190.721 75.5216 191.172 74.6927 191.998C73.8638 192.825 73.4081 193.956 73.4374 195.127L75.2551 267.608Z" fill="#7D97F4"/>
<path d="M203.592 235.259C203.591 235.259 203.589 235.259 203.589 235.259C203.402 235.257 203.254 235.104 203.258 234.92L203.339 229.398C203.341 229.215 203.491 229.068 203.673 229.068C203.675 229.068 203.677 229.068 203.677 229.068C203.863 229.071 204.011 229.223 204.008 229.408L203.927 234.93C203.924 235.113 203.775 235.259 203.592 235.259Z" fill="white"/>
<path d="M203.791 221.727C203.791 221.727 203.788 221.727 203.786 221.727C203.601 221.725 203.453 221.572 203.457 221.387L203.767 200.237C203.761 198.981 203.38 197.977 202.634 197.263C201.241 195.928 199.028 195.996 198.936 196.001L159.86 194.953C159.675 194.948 159.53 194.794 159.534 194.61C159.539 194.425 159.681 194.267 159.878 194.284L198.93 195.333C199.174 195.318 201.529 195.278 203.097 196.781C203.979 197.626 204.43 198.791 204.437 200.241L204.126 221.399C204.123 221.58 203.973 221.727 203.791 221.727Z" fill="white"/>
<path d="M62.77 278.56H215.678C215.946 278.56 216.164 278.342 216.164 278.074V272.456C216.164 272.189 215.946 271.97 215.678 271.97H62.77C62.5026 271.97 62.2842 272.189 62.2842 272.456V278.074C62.2833 278.341 62.5026 278.56 62.77 278.56Z" fill="url(#paint3_linear)"/>
<path d="M129.539 266.571H81.3642C79.5878 266.571 78.1484 265.13 78.1484 263.355V200.471C78.1484 198.647 79.6643 197.188 81.4881 197.257L129.663 199.101C131.39 199.167 132.756 200.587 132.756 202.315V263.355C132.755 265.13 131.316 266.571 129.539 266.571Z" fill="#91B3FA"/>
<path opacity="0.51" d="M119.957 226.166H88.0467C87.793 226.166 87.5884 225.961 87.5884 225.708V222.384C87.5884 222.13 87.7939 221.925 88.0467 221.925H119.957C120.211 221.925 120.415 222.131 120.415 222.384V225.708C120.415 225.961 120.21 226.166 119.957 226.166Z" fill="white"/>
<path opacity="0.51" d="M120.021 232.939H88.1111C87.8575 232.939 87.6528 232.733 87.6528 232.481V229.157C87.6528 228.903 87.8583 228.698 88.1111 228.698H120.021C120.275 228.698 120.48 228.904 120.48 229.157V232.481C120.48 232.733 120.274 232.939 120.021 232.939Z" fill="white"/>
<path opacity="0.51" d="M120.213 239.853H88.303C88.0494 239.853 87.8447 239.648 87.8447 239.395V236.071C87.8447 235.817 88.0502 235.612 88.303 235.612H120.213C120.467 235.612 120.672 235.818 120.672 236.071V239.395C120.673 239.648 120.467 239.853 120.213 239.853Z" fill="white"/>
<path opacity="0.51" d="M120.279 246.625H88.3684C88.1148 246.625 87.9102 246.419 87.9102 246.167V242.843C87.9102 242.589 88.1157 242.384 88.3684 242.384H120.279C120.532 242.384 120.737 242.59 120.737 242.843V246.167C120.737 246.42 120.532 246.625 120.279 246.625Z" fill="white"/>
<path opacity="0.51" d="M189.94 226.16H143.661C143.407 226.16 143.203 225.955 143.203 225.702V222.378C143.203 222.124 143.408 221.919 143.661 221.919H189.94C190.194 221.919 190.398 222.125 190.398 222.378V225.702C190.398 225.956 190.193 226.16 189.94 226.16Z" fill="white"/>
<path opacity="0.51" d="M190.085 232.939H143.806C143.553 232.939 143.348 232.733 143.348 232.48V229.156C143.348 228.902 143.554 228.698 143.806 228.698H190.085C190.339 228.698 190.544 228.903 190.544 229.156V232.48C190.545 232.733 190.339 232.939 190.085 232.939Z" fill="white"/>
<path opacity="0.51" d="M170.855 239.853H143.805C143.552 239.853 143.347 239.647 143.347 239.394V236.07C143.347 235.816 143.553 235.612 143.805 235.612H170.855C171.109 235.612 171.313 235.817 171.313 236.07V239.394C171.314 239.647 171.109 239.853 170.855 239.853Z" fill="white"/>
<g opacity="0.51">
<path opacity="0.51" d="M168.255 206.114H167.537C167.18 206.114 166.89 205.824 166.89 205.468V203.01C166.89 202.131 166.177 201.418 165.298 201.418H160.843C159.963 201.418 159.25 202.131 159.25 203.01V205.468C159.25 205.824 158.961 206.114 158.604 206.114H157.885C157.528 206.114 157.238 205.824 157.238 205.468V203.01C157.238 201.02 158.852 199.406 160.843 199.406H165.298C167.288 199.406 168.902 201.02 168.902 203.01V205.468C168.902 205.824 168.613 206.114 168.255 206.114Z" fill="white"/>
<path opacity="0.51" d="M169.147 206.694H156.994C156.25 206.694 155.646 207.297 155.646 208.042V217.369C155.646 218.113 156.25 218.717 156.994 218.717H169.147C169.892 218.717 170.495 218.113 170.495 217.369V208.042C170.495 207.298 169.892 206.694 169.147 206.694ZM164.809 215.708C164.885 216.022 164.647 216.325 164.324 216.325H161.818C161.495 216.325 161.256 216.023 161.332 215.708L161.917 213.274C161.226 212.861 160.775 212.09 160.821 211.217C160.881 210.087 161.797 209.162 162.927 209.091C164.237 209.009 165.324 210.047 165.324 211.34C165.324 212.162 164.882 212.881 164.225 213.274L164.809 215.708Z" fill="white"/>
</g>
<path d="M203.631 97.2315C203.584 97.2315 203.536 97.2203 203.491 97.1954C203.351 97.118 203.301 96.9417 203.379 96.8016C203.565 96.4663 203.746 96.1292 203.921 95.7887C203.994 95.6469 204.169 95.5918 204.312 95.6641C204.453 95.7371 204.509 95.9117 204.436 96.0544C204.258 96.3992 204.074 96.7423 203.886 97.0819C203.832 97.1782 203.733 97.2315 203.631 97.2315Z" fill="#91B3FA"/>
<path d="M169.768 117.163C169.597 117.163 169.427 117.162 169.256 117.159C169.096 117.157 168.968 117.026 168.97 116.866C168.973 116.708 169.102 116.581 169.26 116.581H169.264C170.013 116.591 170.769 116.578 171.517 116.544C171.666 116.534 171.812 116.661 171.819 116.82C171.826 116.98 171.703 117.115 171.543 117.122C170.954 117.15 170.357 117.163 169.768 117.163ZM165.579 116.937C165.569 116.937 165.558 116.937 165.548 116.936C164.792 116.854 164.029 116.749 163.283 116.624C163.126 116.597 163.019 116.447 163.046 116.29C163.072 116.133 163.222 116.025 163.379 116.052C164.115 116.176 164.866 116.279 165.612 116.36C165.771 116.377 165.886 116.519 165.869 116.679C165.85 116.827 165.724 116.937 165.579 116.937ZM175.2 116.782C175.059 116.782 174.935 116.677 174.914 116.532C174.892 116.374 175.002 116.228 175.16 116.206C175.901 116.102 176.648 115.974 177.381 115.826C177.536 115.795 177.691 115.896 177.722 116.053C177.753 116.209 177.652 116.362 177.495 116.393C176.752 116.543 175.993 116.673 175.241 116.778C175.227 116.781 175.213 116.782 175.2 116.782ZM159.727 115.846C159.702 115.846 159.677 115.843 159.652 115.836C158.919 115.64 158.182 115.42 157.461 115.182C157.309 115.132 157.227 114.967 157.277 114.816C157.327 114.665 157.49 114.582 157.643 114.632C158.352 114.867 159.078 115.084 159.801 115.277C159.956 115.318 160.047 115.477 160.005 115.631C159.971 115.761 159.854 115.846 159.727 115.846ZM181.015 115.5C180.89 115.5 180.776 115.419 180.738 115.294C180.691 115.141 180.778 114.98 180.931 114.933C181.648 114.716 182.367 114.475 183.067 114.217C183.217 114.162 183.384 114.238 183.439 114.389C183.494 114.539 183.417 114.705 183.267 114.76C182.556 115.023 181.826 115.267 181.098 115.488C181.071 115.496 181.042 115.5 181.015 115.5ZM154.11 113.872C154.072 113.872 154.032 113.864 153.994 113.847C153.299 113.54 152.604 113.209 151.931 112.863C151.789 112.79 151.733 112.616 151.805 112.474C151.878 112.332 152.052 112.276 152.195 112.348C152.858 112.689 153.542 113.015 154.227 113.317C154.373 113.382 154.44 113.553 154.375 113.699C154.328 113.808 154.221 113.872 154.11 113.872ZM186.562 113.338C186.455 113.338 186.351 113.278 186.301 113.174C186.231 113.03 186.292 112.857 186.436 112.788C187.109 112.464 187.782 112.115 188.437 111.75C188.577 111.673 188.752 111.722 188.831 111.863C188.908 112.002 188.858 112.179 188.718 112.256C188.054 112.626 187.371 112.98 186.687 113.31C186.647 113.33 186.604 113.338 186.562 113.338ZM148.867 111.058C148.814 111.058 148.76 111.043 148.711 111.012C148.073 110.602 147.437 110.168 146.824 109.722C146.695 109.628 146.667 109.446 146.76 109.317C146.855 109.189 147.036 109.16 147.165 109.254C147.768 109.693 148.393 110.121 149.024 110.525C149.158 110.611 149.197 110.79 149.111 110.925C149.055 111.011 148.963 111.058 148.867 111.058ZM191.71 110.346C191.618 110.346 191.528 110.302 191.472 110.221C191.381 110.09 191.414 109.909 191.546 109.818C192.162 109.393 192.774 108.944 193.364 108.484C193.49 108.386 193.672 108.409 193.77 108.535C193.868 108.661 193.846 108.843 193.72 108.942C193.12 109.409 192.5 109.863 191.875 110.295C191.824 110.33 191.766 110.346 191.71 110.346ZM144.121 107.468C144.052 107.468 143.984 107.444 143.929 107.396C143.362 106.894 142.802 106.368 142.262 105.831C142.148 105.718 142.148 105.535 142.261 105.422C142.374 105.308 142.557 105.308 142.67 105.421C143.202 105.95 143.754 106.468 144.313 106.962C144.433 107.068 144.444 107.251 144.338 107.371C144.281 107.435 144.201 107.468 144.121 107.468ZM196.341 106.6C196.265 106.6 196.187 106.569 196.131 106.508C196.021 106.392 196.027 106.209 196.143 106.099C196.688 105.585 197.223 105.049 197.736 104.507C197.846 104.391 198.029 104.385 198.145 104.495C198.261 104.605 198.266 104.788 198.157 104.904C197.637 105.455 197.093 105.999 196.54 106.52C196.484 106.573 196.412 106.6 196.341 106.6ZM139.975 103.195C139.892 103.195 139.81 103.159 139.753 103.091C139.268 102.508 138.793 101.903 138.341 101.292C138.246 101.163 138.273 100.982 138.402 100.887C138.532 100.792 138.712 100.82 138.807 100.948C139.252 101.551 139.72 102.146 140.198 102.721C140.301 102.844 140.284 103.026 140.161 103.128C140.107 103.172 140.041 103.195 139.975 103.195ZM200.347 102.197C200.285 102.197 200.223 102.177 200.17 102.136C200.044 102.038 200.021 101.856 200.119 101.73C200.58 101.138 201.028 100.527 201.45 99.9126C201.542 99.781 201.722 99.7475 201.853 99.8378C201.984 99.9289 202.018 100.109 201.928 100.24C201.499 100.864 201.045 101.484 200.576 102.085C200.519 102.158 200.434 102.197 200.347 102.197ZM136.527 98.3417C136.429 98.3417 136.332 98.2918 136.278 98.2015C135.886 97.548 135.509 96.8774 135.159 96.2067C135.085 96.0648 135.14 95.8903 135.282 95.8163C135.423 95.7424 135.598 95.7974 135.672 95.9393C136.017 96.5997 136.387 97.26 136.774 97.904C136.857 98.0407 136.812 98.2187 136.675 98.3013C136.629 98.3279 136.577 98.3417 136.527 98.3417ZM133.865 93.0159C133.751 93.0159 133.643 92.9479 133.597 92.8353C133.311 92.1302 133.043 91.4088 132.8 90.6917C132.749 90.5404 132.83 90.3761 132.982 90.3246C133.132 90.273 133.297 90.3546 133.349 90.506C133.588 91.2119 133.852 91.9221 134.135 92.6169C134.195 92.7648 134.123 92.9342 133.976 92.9944C133.939 93.009 133.902 93.0159 133.865 93.0159Z" fill="#91B3FA"/>
<path d="M132.055 87.3268C131.923 87.3268 131.805 87.2365 131.774 87.1032C131.685 86.724 131.602 86.3448 131.524 85.9639C131.493 85.8074 131.594 85.6544 131.751 85.6226C131.907 85.5908 132.06 85.6914 132.092 85.8487C132.168 86.2236 132.25 86.5976 132.338 86.9708C132.374 87.1264 132.278 87.2821 132.122 87.319C132.099 87.3242 132.076 87.3268 132.055 87.3268Z" fill="#91B3FA"/>
<path d="M136.963 57.808C136.911 57.808 136.857 57.7934 136.809 57.7633C136.674 57.6782 136.634 57.4993 136.719 57.3643C136.925 57.0367 137.138 56.7109 137.354 56.3876C137.444 56.2552 137.623 56.219 137.756 56.3085C137.889 56.3979 137.924 56.5776 137.835 56.71C137.621 57.029 137.412 57.3497 137.208 57.673C137.153 57.7599 137.059 57.808 136.963 57.808Z" fill="#91B3FA"/>
<path d="M206.925 67.505C206.799 67.505 206.684 67.4233 206.647 67.2969C206.426 66.5428 206.178 65.7853 205.911 65.0458C205.857 64.8953 205.934 64.7294 206.085 64.6752C206.234 64.6202 206.401 64.6985 206.455 64.8489C206.727 65.5996 206.978 66.3683 207.203 67.1344C207.248 67.2883 207.16 67.4491 207.006 67.4938C206.979 67.5007 206.951 67.505 206.925 67.505ZM204.681 61.6615C204.573 61.6615 204.47 61.6013 204.42 61.4973C204.078 60.787 203.711 60.0803 203.328 59.395C203.25 59.2557 203.299 59.0794 203.44 59.0012C203.579 58.9238 203.756 58.9728 203.833 59.1129C204.222 59.8077 204.595 60.5257 204.942 61.2471C205.011 61.3915 204.95 61.5643 204.807 61.6331C204.766 61.6529 204.723 61.6615 204.681 61.6615ZM201.52 56.26C201.429 56.26 201.339 56.217 201.283 56.1362C200.833 55.493 200.356 54.8542 199.866 54.2385C199.766 54.113 199.787 53.9316 199.913 53.8318C200.038 53.7321 200.22 53.7527 200.319 53.8782C200.817 54.5042 201.301 55.1517 201.758 55.8051C201.85 55.9358 201.818 56.1164 201.686 56.2084C201.636 56.2428 201.577 56.26 201.52 56.26ZM139.916 53.7329C139.851 53.7329 139.786 53.7114 139.732 53.6659C139.609 53.5635 139.591 53.3813 139.694 53.2583C140.202 52.647 140.737 52.0399 141.285 51.4561C141.395 51.3391 141.578 51.334 141.695 51.4432C141.811 51.5532 141.817 51.7364 141.708 51.8525C141.168 52.4277 140.64 53.0253 140.139 53.628C140.082 53.6977 140 53.7329 139.916 53.7329ZM197.531 51.4363C197.455 51.4363 197.379 51.4071 197.323 51.3486C196.778 50.7863 196.206 50.2317 195.623 49.7012C195.505 49.5937 195.496 49.4105 195.604 49.2919C195.711 49.1732 195.895 49.1646 196.013 49.2729C196.605 49.8121 197.185 50.3753 197.738 50.9453C197.85 51.0597 197.846 51.2437 197.732 51.3546C197.676 51.4096 197.604 51.4363 197.531 51.4363ZM144.287 49.2532C144.206 49.2532 144.126 49.2196 144.069 49.1543C143.965 49.0339 143.977 48.8508 144.097 48.7459C144.7 48.2196 145.325 47.7063 145.956 47.2188C146.083 47.1216 146.265 47.1449 146.362 47.2712C146.459 47.3976 146.436 47.5799 146.309 47.6771C145.688 48.1569 145.071 48.6625 144.478 49.1809C144.423 49.23 144.355 49.2532 144.287 49.2532ZM192.827 47.3117C192.766 47.3117 192.706 47.2927 192.654 47.2549C192.023 46.7863 191.369 46.3314 190.711 45.9024C190.576 45.8155 190.539 45.6358 190.626 45.5017C190.713 45.3676 190.892 45.3297 191.027 45.4174C191.695 45.8525 192.359 46.3142 192.999 46.7906C193.128 46.886 193.154 47.0675 193.059 47.1956C193.003 47.2712 192.915 47.3117 192.827 47.3117ZM149.317 45.5258C149.221 45.5258 149.126 45.4776 149.071 45.3891C148.987 45.2532 149.028 45.0752 149.164 44.9901C149.841 44.5688 150.541 44.1621 151.244 43.782C151.385 43.7055 151.56 43.7588 151.636 43.899C151.712 44.04 151.659 44.2154 151.519 44.291C150.826 44.6651 150.137 45.0658 149.469 45.4802C149.423 45.5112 149.37 45.5258 149.317 45.5258ZM187.518 44.0013C187.473 44.0013 187.428 43.991 187.386 43.9695C186.687 43.6092 185.969 43.267 185.249 42.9497C185.103 42.8852 185.036 42.715 185.1 42.5679C185.164 42.4218 185.335 42.3547 185.482 42.4192C186.213 42.7399 186.943 43.0881 187.651 43.4536C187.793 43.5266 187.849 43.7012 187.776 43.8431C187.724 43.9437 187.623 44.0013 187.518 44.0013ZM154.883 42.6591C154.769 42.6591 154.662 42.592 154.615 42.4811C154.554 42.3332 154.624 42.1638 154.772 42.1028C155.507 41.7975 156.264 41.5095 157.02 41.2489C157.173 41.1973 157.337 41.2773 157.388 41.4278C157.44 41.5791 157.36 41.7442 157.21 41.7958C156.464 42.0529 155.719 42.3358 154.995 42.6367C154.958 42.6522 154.92 42.6591 154.883 42.6591ZM181.742 41.5937C181.713 41.5937 181.683 41.5894 181.653 41.58C180.906 41.3375 180.141 41.1157 179.379 40.9196C179.224 40.8801 179.13 40.7219 179.171 40.5671C179.21 40.4123 179.371 40.3195 179.523 40.359C180.296 40.5585 181.074 40.7838 181.832 41.0297C181.984 41.0787 182.067 41.2421 182.018 41.3943C181.979 41.5163 181.865 41.5937 181.742 41.5937ZM160.838 40.7339C160.707 40.7339 160.588 40.6436 160.557 40.5112C160.521 40.3556 160.617 40.1999 160.773 40.163C161.551 39.9798 162.345 39.8182 163.13 39.684C163.29 39.6582 163.437 39.7631 163.464 39.9205C163.492 40.0778 163.385 40.2275 163.228 40.255C162.454 40.3874 161.673 40.5465 160.906 40.727C160.883 40.7313 160.86 40.7339 160.838 40.7339ZM175.654 40.1501C175.639 40.1501 175.625 40.1492 175.61 40.1466C174.833 40.0271 174.042 39.9308 173.258 39.8594C173.099 39.8448 172.982 39.7038 172.996 39.5447C173.011 39.3857 173.148 39.2679 173.311 39.2825C174.105 39.3547 174.908 39.4527 175.697 39.574C175.855 39.598 175.963 39.7459 175.939 39.9042C175.918 40.0477 175.795 40.1501 175.654 40.1501ZM167.026 39.795C166.876 39.795 166.749 39.678 166.738 39.5258C166.727 39.3659 166.847 39.2275 167.007 39.2171C167.801 39.1613 168.609 39.1294 169.409 39.1226H169.412C169.571 39.1226 169.7 39.2507 169.701 39.4097C169.703 39.5697 169.574 39.7004 169.414 39.7021C168.626 39.709 167.83 39.7399 167.048 39.795C167.04 39.795 167.033 39.795 167.026 39.795Z" fill="#91B3FA"/>
<path d="M208.025 72.4332C207.885 72.4332 207.762 72.3309 207.74 72.1882C207.681 71.8098 207.617 71.4332 207.545 71.0558C207.516 70.8984 207.619 70.7471 207.777 70.7178C207.933 70.6903 208.085 70.7927 208.115 70.9491C208.186 71.3318 208.251 71.7144 208.312 72.0979C208.337 72.2561 208.228 72.404 208.07 72.4289C208.055 72.4315 208.04 72.4332 208.025 72.4332Z" fill="#91B3FA"/>
<path d="M199.499 77.277C199.515 77.0792 199.403 76.8935 199.221 76.8144L194.032 74.5599C193.631 71.9485 192.811 69.3819 191.56 66.9666L194.424 62.0914C194.524 61.9202 194.505 61.7044 194.376 61.554L189.965 56.3966C189.836 56.2462 189.626 56.1937 189.442 56.266L184.181 58.3399C181.989 56.7311 179.58 55.523 177.063 54.7225L175.64 49.2471C175.59 49.0553 175.424 48.916 175.226 48.9006L168.46 48.3735C168.262 48.358 168.076 48.4698 167.997 48.6521L165.743 53.8412C163.132 54.2419 160.565 55.0622 158.15 56.3124L153.274 53.4483C153.103 53.3477 152.887 53.3666 152.737 53.4955L147.58 57.9074C147.429 58.0364 147.377 58.247 147.449 58.431L149.523 63.6907C147.914 65.8832 146.706 68.2908 145.906 70.8093L140.429 72.2323C140.237 72.2822 140.098 72.4481 140.083 72.6459L139.556 79.4119C139.54 79.6097 139.652 79.7954 139.834 79.8745L145.023 82.129C145.424 84.7404 146.244 87.307 147.495 89.7223L144.63 94.5976C144.53 94.7687 144.549 94.9845 144.678 95.135L149.09 100.292C149.218 100.443 149.429 100.495 149.613 100.422L154.873 98.3482C157.065 99.9569 159.474 101.165 161.991 101.966L163.414 107.441C163.464 107.633 163.63 107.772 163.828 107.787L170.594 108.315C170.792 108.33 170.978 108.218 171.057 108.036L173.311 102.847C175.923 102.446 178.489 101.626 180.904 100.376L185.78 103.24C185.951 103.34 186.167 103.321 186.317 103.192L191.474 98.7807C191.625 98.6517 191.677 98.4419 191.605 98.257L189.531 92.9974C191.14 90.8048 192.347 88.3964 193.149 85.8788L198.624 84.4558C198.816 84.4059 198.955 84.2399 198.971 84.0422L199.499 77.277Z" fill="#91B3FA"/>
<path opacity="0.7" d="M169.514 84.8065C168.189 84.8065 166.899 84.399 165.796 83.6183C162.888 81.5607 162.197 77.5211 164.254 74.6132C165.251 73.2047 166.737 72.2684 168.438 71.9778C170.138 71.6871 171.851 72.0758 173.259 73.0723C174.667 74.0697 175.603 75.5547 175.894 77.2554C176.186 78.9562 175.797 80.669 174.8 82.0774C173.803 83.4858 172.317 84.4222 170.616 84.7128C170.25 84.7756 169.88 84.8065 169.514 84.8065ZM169.54 72.7516C169.223 72.7516 168.904 72.7791 168.585 72.8333C167.113 73.0852 165.826 73.8952 164.964 75.1145C163.182 77.6312 163.781 81.1282 166.297 82.9089C167.517 83.7722 168.998 84.1075 170.471 83.8564C171.943 83.6045 173.229 82.7945 174.092 81.5753C174.955 80.356 175.291 78.8737 175.039 77.4016C174.787 75.9296 173.977 74.6433 172.757 73.7808C171.803 73.105 170.687 72.7516 169.54 72.7516Z" fill="white"/>
<path opacity="0.7" d="M169.411 95.1565C168.968 95.1565 168.525 95.1393 168.078 95.1049C163.602 94.7566 159.529 92.6853 156.611 89.2726C153.982 86.2004 152.574 82.3724 152.574 78.3732C152.574 77.9304 152.591 77.4859 152.625 77.0405C152.974 72.5642 155.045 68.4911 158.458 65.5728C161.869 62.6545 166.213 61.2392 170.691 61.5875C175.167 61.9357 179.24 64.0071 182.158 67.4198C182.937 68.3303 183.619 69.3234 184.185 70.369L183.421 70.7817C182.886 69.7895 182.238 68.8479 181.499 67.9838C178.731 64.7482 174.868 62.7835 170.623 62.4533C166.378 62.1257 162.258 63.4654 159.023 66.2323C155.787 69.0001 153.823 72.8625 153.492 77.1076C153.459 77.5306 153.443 77.9519 153.443 78.3715C153.443 82.1643 154.779 85.7945 157.272 88.7085C160.04 91.9441 163.902 93.908 168.147 94.239C172.396 94.57 176.512 93.2278 179.748 90.46C181.944 88.5813 183.587 86.1479 184.5 83.4222L185.323 83.6982C184.361 86.5727 182.629 89.1393 180.312 91.1204C177.239 93.7472 173.411 95.1565 169.411 95.1565Z" fill="white"/>
<path d="M236.282 106.733C236.232 106.733 236.181 106.72 236.135 106.693C235.997 106.611 235.952 106.434 236.033 106.296C236.228 105.968 236.414 105.633 236.586 105.299C236.659 105.157 236.834 105.102 236.976 105.174C237.118 105.247 237.174 105.422 237.101 105.565C236.924 105.908 236.732 106.253 236.532 106.591C236.478 106.683 236.381 106.733 236.282 106.733Z" fill="#91B3FA"/>
<path d="M217.599 116.422C217.592 116.422 217.584 116.422 217.576 116.421C216.791 116.359 216.002 116.251 215.232 116.099C215.076 116.068 214.973 115.916 215.004 115.758C215.035 115.602 215.188 115.5 215.345 115.531C216.094 115.678 216.86 115.784 217.622 115.844C217.782 115.857 217.901 115.997 217.888 116.156C217.876 116.307 217.749 116.422 217.599 116.422ZM221.385 116.361C221.24 116.361 221.114 116.252 221.098 116.104C221.08 115.945 221.194 115.802 221.353 115.784C222.115 115.699 222.878 115.568 223.619 115.396C223.774 115.358 223.93 115.456 223.966 115.612C224.002 115.768 223.906 115.923 223.75 115.96C222.986 116.138 222.201 116.272 221.417 116.36C221.407 116.36 221.396 116.361 221.385 116.361ZM211.66 115.02C211.623 115.02 211.586 115.013 211.55 114.998C210.823 114.703 210.104 114.36 209.414 113.98C209.274 113.903 209.224 113.727 209.301 113.587C209.378 113.447 209.554 113.396 209.694 113.474C210.364 113.843 211.062 114.175 211.769 114.463C211.917 114.523 211.988 114.692 211.928 114.84C211.881 114.952 211.773 115.02 211.66 115.02ZM227.276 114.76C227.165 114.76 227.059 114.697 227.011 114.589C226.946 114.443 227.011 114.272 227.157 114.206C227.855 113.894 228.542 113.537 229.198 113.146C229.334 113.064 229.512 113.109 229.595 113.246C229.677 113.384 229.632 113.561 229.495 113.643C228.82 114.046 228.112 114.414 227.395 114.735C227.355 114.752 227.315 114.76 227.276 114.76ZM206.429 111.879C206.364 111.879 206.298 111.856 206.244 111.812C205.642 111.31 205.062 110.764 204.519 110.192C204.409 110.076 204.415 109.893 204.53 109.783C204.646 109.672 204.829 109.678 204.939 109.793C205.466 110.349 206.03 110.878 206.615 111.366C206.738 111.469 206.754 111.651 206.652 111.774C206.594 111.844 206.513 111.879 206.429 111.879ZM232.398 111.442C232.319 111.442 232.239 111.409 232.182 111.346C232.075 111.226 232.086 111.043 232.205 110.937L232.376 110.783C232.885 110.319 233.375 109.823 233.831 109.31C233.937 109.19 234.12 109.18 234.24 109.286C234.359 109.393 234.37 109.575 234.264 109.695C233.794 110.223 233.29 110.734 232.766 111.212L232.591 111.369C232.535 111.418 232.467 111.442 232.398 111.442ZM202.394 107.301C202.298 107.301 202.205 107.254 202.15 107.168C201.726 106.506 201.336 105.811 200.992 105.102C200.923 104.959 200.983 104.785 201.127 104.716C201.271 104.646 201.444 104.706 201.513 104.85C201.847 105.538 202.225 106.212 202.637 106.856C202.723 106.99 202.685 107.169 202.55 107.255C202.501 107.286 202.447 107.301 202.394 107.301Z" fill="#91B3FA"/>
<path d="M199.931 101.704C199.803 101.704 199.686 101.618 199.652 101.488C199.552 101.112 199.462 100.728 199.384 100.346C199.352 100.189 199.453 100.036 199.61 100.004C199.767 99.9726 199.92 100.073 199.952 100.231C200.027 100.601 200.115 100.975 200.211 101.341C200.253 101.495 200.161 101.654 200.006 101.695C199.981 101.701 199.956 101.704 199.931 101.704Z" fill="#91B3FA"/>
<path d="M202.316 85.9943C202.263 85.9943 202.21 85.9797 202.162 85.9496C202.027 85.8645 201.986 85.6856 202.071 85.5506C202.28 85.2204 202.5 84.8929 202.726 84.5756C202.819 84.4457 203 84.4157 203.129 84.5085C203.26 84.6014 203.289 84.7819 203.196 84.9118C202.976 85.2196 202.762 85.5386 202.56 85.8593C202.506 85.947 202.412 85.9943 202.316 85.9943Z" fill="#91B3FA"/>
<path d="M237.48 88.8093C237.367 88.8093 237.26 88.7431 237.213 88.6331C236.92 87.9418 236.582 87.2599 236.21 86.6064C236.13 86.468 236.179 86.2909 236.318 86.2118C236.456 86.1327 236.634 86.1808 236.713 86.3201C237.096 86.9925 237.443 87.695 237.746 88.4069C237.809 88.554 237.74 88.7242 237.592 88.787C237.556 88.8025 237.517 88.8093 237.48 88.8093ZM234.321 83.7028C234.239 83.7028 234.157 83.6684 234.1 83.6013C233.953 83.4276 233.801 83.2565 233.646 83.0863C233.293 82.6993 232.921 82.3219 232.538 81.9642C232.421 81.855 232.415 81.6718 232.524 81.5549C232.634 81.438 232.817 81.4319 232.934 81.5411C233.327 81.9092 233.71 82.2969 234.074 82.6959C234.233 82.8705 234.389 83.0467 234.541 83.2256C234.644 83.3477 234.629 83.5299 234.508 83.634C234.454 83.6804 234.388 83.7028 234.321 83.7028ZM205.402 82.2178C205.326 82.2178 205.249 82.1877 205.193 82.1284C205.083 82.0123 205.087 81.8292 205.202 81.7191C205.319 81.6074 205.438 81.4964 205.558 81.3872C206.01 80.9745 206.487 80.5781 206.973 80.2084C207.101 80.1112 207.282 80.1362 207.378 80.2634C207.476 80.3907 207.451 80.5721 207.323 80.6684C206.85 81.0278 206.388 81.413 205.948 81.8137C205.831 81.9203 205.716 82.0287 205.602 82.137C205.546 82.1912 205.475 82.2178 205.402 82.2178ZM229.789 79.763C229.737 79.763 229.683 79.7484 229.634 79.7183C228.999 79.3167 228.333 78.9479 227.657 78.6229C227.512 78.5532 227.452 78.3812 227.521 78.2368C227.59 78.0923 227.762 78.0313 227.907 78.1009C228.603 78.4354 229.289 78.8146 229.943 79.2282C230.078 79.3142 230.119 79.4922 230.033 79.628C229.979 79.7157 229.885 79.763 229.789 79.763ZM210.315 78.763C210.208 78.763 210.106 78.7045 210.055 78.6022C209.984 78.4586 210.042 78.2849 210.186 78.2144C210.877 77.8705 211.598 77.5635 212.328 77.3004C212.479 77.2471 212.644 77.3245 212.698 77.475C212.752 77.6254 212.674 77.7914 212.524 77.8456C211.814 78.1009 211.114 78.3993 210.443 78.7329C210.402 78.7536 210.358 78.763 210.315 78.763ZM224.288 77.3623C224.263 77.3623 224.238 77.3589 224.213 77.3529C223.487 77.1603 222.742 77.0072 221.997 76.8989C221.839 76.8757 221.729 76.7286 221.752 76.5713C221.775 76.4131 221.921 76.2996 222.08 76.3262C222.846 76.438 223.613 76.5945 224.361 76.7931C224.515 76.8344 224.608 76.9926 224.567 77.1474C224.533 77.2764 224.416 77.3623 224.288 77.3623ZM216.034 76.9384C215.894 76.9384 215.771 76.837 215.749 76.6942C215.724 76.536 215.831 76.3881 215.99 76.3632C216.752 76.2428 217.531 76.1646 218.307 76.1319C218.467 76.1285 218.602 76.2488 218.608 76.4088C218.615 76.5687 218.491 76.7037 218.331 76.7097C217.578 76.7415 216.821 76.8172 216.08 76.9341C216.064 76.9376 216.049 76.9384 216.034 76.9384Z" fill="#91B3FA"/>
<path d="M238.819 93.5077C238.679 93.5077 238.556 93.4054 238.534 93.2627C238.475 92.8886 238.406 92.5112 238.326 92.1414C238.292 91.985 238.391 91.831 238.548 91.7975C238.707 91.764 238.858 91.8637 238.892 92.0193C238.973 92.4002 239.046 92.7889 239.106 93.1732C239.131 93.3314 239.022 93.4793 238.864 93.5043C238.85 93.506 238.834 93.5077 238.819 93.5077Z" fill="#91B3FA"/>
<path d="M234.44 95.8548C234.447 95.7534 234.391 95.6579 234.297 95.6175L231.631 94.4593C231.426 93.118 231.005 91.799 230.362 90.5591L231.833 88.0544C231.885 87.9667 231.876 87.8558 231.809 87.7784L229.544 85.1292C229.478 85.0518 229.369 85.0252 229.275 85.0622L226.573 86.1275C225.447 85.3012 224.21 84.6804 222.916 84.2694L222.185 81.4569C222.159 81.358 222.074 81.2866 221.973 81.2789L218.497 81.008C218.396 81.0003 218.3 81.0579 218.26 81.1507L217.102 83.8162C215.761 84.0217 214.442 84.4439 213.202 85.0854L210.697 83.6142C210.609 83.5626 210.498 83.5721 210.421 83.6383L207.772 85.9048C207.694 85.971 207.668 86.0793 207.705 86.1739L208.77 88.8755C207.944 90.0019 207.323 91.2384 206.912 92.5324L204.099 93.2633C204.001 93.2891 203.929 93.3742 203.921 93.4757L203.651 96.9511C203.643 97.0526 203.7 97.148 203.793 97.1885L206.459 98.3467C206.664 99.688 207.086 101.007 207.728 102.247L206.257 104.752C206.205 104.839 206.215 104.95 206.281 105.028L208.547 107.677C208.614 107.754 208.722 107.781 208.817 107.744L211.518 106.678C212.644 107.505 213.882 108.126 215.175 108.537L215.906 111.349C215.932 111.448 216.017 111.519 216.118 111.527L219.594 111.798C219.695 111.806 219.791 111.748 219.831 111.655L220.989 108.99C222.331 108.783 223.65 108.362 224.889 107.721L227.394 109.192C227.482 109.243 227.593 109.234 227.67 109.168L230.319 106.902C230.397 106.836 230.423 106.727 230.386 106.633L229.321 103.931C230.147 102.805 230.768 101.568 231.179 100.274L233.992 99.5435C234.091 99.5177 234.162 99.4326 234.17 99.3312L234.44 95.8548Z" fill="#91B3FA"/>
<path opacity="0.7" d="M219.037 99.934C218.313 99.934 217.608 99.7112 217.005 99.2848C215.416 98.1601 215.038 95.9529 216.162 94.3648C216.707 93.5952 217.519 93.0836 218.448 92.9245C219.377 92.7655 220.313 92.9778 221.082 93.5221C221.852 94.0673 222.363 94.8781 222.522 95.8076C222.681 96.7371 222.469 97.6726 221.925 98.4421C221.38 99.2117 220.569 99.7233 219.639 99.8824C219.438 99.9168 219.237 99.934 219.037 99.934ZM219.048 93.7431C218.213 93.7431 217.39 94.1343 216.872 94.8661C216.024 96.0638 216.308 97.7285 217.506 98.5754C218.087 98.9864 218.793 99.1463 219.492 99.026C220.193 98.9064 220.805 98.5204 221.215 97.9408C221.626 97.3605 221.786 96.6545 221.666 95.9546C221.547 95.2538 221.16 94.6416 220.581 94.2315C220.116 93.9013 219.579 93.7431 219.048 93.7431Z" fill="white"/>
<path opacity="0.7" d="M218.984 105.25C218.751 105.25 218.517 105.241 218.283 105.223C215.927 105.04 213.784 103.95 212.247 102.154C210.824 100.49 210.127 98.4457 210.128 96.4096C210.128 93.9118 211.177 91.4286 213.22 89.6814C216.927 86.5103 222.522 86.9462 225.692 90.653C225.717 90.6822 225.742 90.7115 225.766 90.7407C226.11 91.1534 226.416 91.5962 226.677 92.0597C226.678 92.0614 226.68 92.0631 226.681 92.0648C226.685 92.0717 226.688 92.0786 226.692 92.0855C226.699 92.0975 226.706 92.1096 226.713 92.1216C226.716 92.1285 226.72 92.1354 226.724 92.1414C226.735 92.162 226.747 92.1835 226.758 92.2041L225.995 92.6169C225.726 92.1207 225.403 91.6495 225.032 91.2162C223.007 88.8499 219.887 87.9626 217.051 88.6599C215.882 88.9479 214.761 89.5051 213.784 90.34C211.942 91.9161 210.996 94.1551 210.995 96.4079C210.995 98.2436 211.624 100.088 212.907 101.588C215.766 104.931 220.812 105.324 224.155 102.465C225.254 101.525 226.076 100.306 226.533 98.9427L227.357 99.2187C226.85 100.732 225.939 102.082 224.719 103.124C223.104 104.508 221.089 105.25 218.984 105.25Z" fill="white"/>
<path d="M162.616 136.306C163.33 135.638 164.295 135.306 165.269 135.393C175.688 136.33 195.127 131.312 207.832 118.313C208.714 117.41 210.322 117.92 211.333 118.675C225.463 129.236 248.884 131.423 257.014 131.87C258.695 131.963 260.06 133.267 260.234 134.943C267.627 206.356 221.131 232.233 211.488 236.802C210.434 237.301 209.193 237.228 208.202 236.612C160.14 206.674 162.196 167.741 161.531 138.894C161.509 137.916 161.903 136.975 162.616 136.306Z" fill="url(#paint4_linear)"/>
<path opacity="0.61" d="M210.187 231.614C209.972 231.614 209.758 231.554 209.571 231.435C191.145 219.656 179.135 205.574 172.857 188.384C167.249 173.032 166.975 157.399 166.732 143.607L166.699 141.768C166.693 141.461 166.81 141.172 167.024 140.953C167.24 140.733 167.531 140.611 167.841 140.611H167.842C179.253 140.611 196.381 135.572 208.943 124.316C209.328 123.971 209.899 123.929 210.333 124.216C224.136 133.374 243.824 136.041 254.332 136.816C254.891 136.857 255.332 137.293 255.382 137.853C257.825 165.717 252.029 189.279 238.156 207.886C227.795 221.781 215.509 229.021 210.708 231.49C210.543 231.573 210.365 231.614 210.187 231.614ZM210.492 231.074L210.598 231.282L210.492 231.074C215.264 228.62 227.477 221.424 237.78 207.606C251.582 189.095 257.347 165.64 254.914 137.894C254.885 137.565 254.626 137.307 254.297 137.283C243.743 136.504 223.965 133.823 210.073 124.606C209.819 124.437 209.482 124.461 209.255 124.665C196.6 136.004 179.342 141.08 167.851 141.08C167.656 141.08 167.484 141.151 167.357 141.282C167.231 141.41 167.164 141.58 167.167 141.76L167.2 143.599C167.441 157.355 167.715 172.946 173.296 188.224C179.539 205.314 191.487 219.319 209.823 231.04C210.024 231.169 210.28 231.182 210.492 231.074Z" fill="white"/>
<path opacity="0.61" d="M226.988 163.264H224.814C223.735 163.264 222.86 162.39 222.86 161.31V153.881C222.86 151.221 220.704 149.066 218.045 149.066H204.577C201.918 149.066 199.762 151.221 199.762 153.881V161.31C199.762 162.389 198.888 163.264 197.808 163.264H195.634C194.555 163.264 193.68 162.39 193.68 161.31V153.881C193.68 147.863 198.558 142.984 204.576 142.984H218.044C224.062 142.984 228.941 147.863 228.941 153.881V161.31C228.942 162.39 228.067 163.264 226.988 163.264Z" fill="white"/>
<path opacity="0.61" d="M229.682 165.017H192.942C190.691 165.017 188.865 166.843 188.865 169.094V197.29C188.865 199.541 190.691 201.367 192.942 201.367H229.682C231.933 201.367 233.758 199.541 233.758 197.29V169.094C233.758 166.843 231.933 165.017 229.682 165.017ZM216.568 192.27C216.796 193.22 216.077 194.133 215.1 194.133H207.524C206.547 194.133 205.827 193.22 206.055 192.27L207.823 184.911C205.736 183.664 204.372 181.332 204.512 178.693C204.692 175.275 207.462 172.478 210.877 172.266C214.835 172.02 218.122 175.157 218.122 179.063C218.122 181.548 216.789 183.722 214.801 184.911L216.568 192.27Z" fill="white"/>
<path d="M70.4805 155.8C70.4805 155.8 73.4564 155.958 73.821 162.08C73.821 162.08 66.9208 168.265 57.6001 169.737C56.9002 169.848 58.5786 164.961 58.8305 164.299C60.0309 161.149 63.8107 159.121 70.4805 155.8Z" fill="url(#paint5_linear)"/>
<path d="M103.992 148.602H97.7125C97.7125 148.602 78.4392 127.317 65.7987 125.17C65.7987 125.17 57 136.402 66.2674 157.388C67.0128 159.076 69.0979 159.827 70.6534 158.833C71.1186 158.535 71.4522 158.137 71.6551 157.638L70.9096 139.719C70.9096 139.719 87.3497 154.097 90.207 156.872C93.066 159.647 107.591 157.956 103.992 148.602Z" fill="#7D97F4"/>
<path d="M43.2842 193.292C45.9153 190.986 50.1079 188.398 56.1611 187.657L58.2084 188.909C58.2084 188.909 56.9032 190.834 54.5188 192.868C52.3271 194.14 48.9436 195.864 46.138 196.238C43.4097 196.601 43.0073 194.953 43.2842 193.292Z" fill="url(#paint6_linear)"/>
<path d="M58.8303 164.299C60.4511 164.823 61.1648 167.12 65.2783 165.601C69.2576 164.132 72.2163 162.237 73.7382 161.144C73.7718 161.44 73.801 161.749 73.8208 162.08C73.8208 162.08 66.5457 169 57.225 170.472C56.5251 170.583 55.9705 169.883 56.2233 169.221C56.6747 168.034 57.4907 166.233 58.8303 164.299Z" fill="#91B3FA"/>
<path d="M41.302 195.261C41.8205 194.671 42.4825 193.994 43.2839 193.292C43.007 194.954 43.4086 196.602 46.1369 196.238C48.9425 195.864 52.3268 194.14 54.5177 192.868C51.7714 195.21 47.5917 197.696 42.3166 197.55C41.1455 197.518 40.5273 196.14 41.302 195.261Z" fill="#91B3FA"/>
<path d="M103.763 153.146L74.357 153.464C74.357 153.464 57.5643 167.357 54.5179 188.543C54.5179 188.543 54.0123 190.101 57.0475 190.367C57.0475 190.367 67.2005 183.736 73.8204 172.013C81.9373 157.638 98.0189 164.108 98.0189 164.108C105.745 165.813 111.894 165.179 116.394 158.253L103.763 153.146Z" fill="#7D97F4"/>
<path d="M103.068 129.458C103.068 129.458 99.9024 145.322 84.3926 151.598L78.875 150.948L77.5732 153.024L90.5147 153.437C90.5147 153.437 101.577 149.055 107.438 137.116C107.631 136.721 110.859 130.057 103.068 129.458Z" fill="url(#paint7_linear)"/>
<path d="M101.372 152.886C101.372 152.886 104.972 143.101 105.745 133.593C105.745 133.593 103.111 131.33 101.465 130.353C100.932 130.037 100.731 129.368 101 128.81C102.21 126.302 109.529 116.459 110.078 116.321C113.058 115.578 125.279 109.767 133.886 121.541C137.58 126.593 133.153 142.147 116.395 158.255C111.002 159.133 105.96 157.579 101.372 152.886Z" fill="url(#paint8_linear)"/>
<path d="M115.243 135.737C115.243 135.737 105.241 147.579 92.4546 149.31C92.4546 149.31 89.1503 146.297 86.6928 147.373C84.2354 148.449 80.8657 153.197 80.8657 153.197H97.2843C97.2843 153.197 112.809 152.65 120.566 143.236C119.941 139.942 118.072 137.974 115.243 135.737Z" fill="url(#paint9_linear)"/>
<path d="M121.077 108.016L123.265 115.314C123.366 115.649 123.242 116.011 122.954 116.209C121.901 116.93 119.146 118.365 115.369 116.97C114.938 116.811 114.641 116.407 114.604 115.948L114.085 109.59L121.077 108.016Z" fill="url(#paint10_linear)"/>
<path d="M108.264 102.105C108.264 102.105 109.339 109.671 112.246 111.997C115.152 114.324 120.815 112.572 122.727 106.869L118.916 97.1162L108.264 102.105Z" fill="url(#paint11_linear)"/>
<path d="M119.345 103.427C119.124 103.499 118.893 103.357 118.859 103.127C118.754 102.429 118.492 101.047 117.962 100.105C117.962 100.105 118.24 99.1127 115.453 100.612C112.667 102.112 108.482 104.315 106.019 103.003C103.617 101.724 101.184 95.2882 107.532 96.4799C107.774 96.5255 107.996 96.3329 107.977 96.0878C107.899 95.0302 108.004 92.5969 110.468 91.8153C112.774 91.0844 114.037 92.1257 114.557 92.7534C114.71 92.9382 114.994 92.9348 115.14 92.7439C115.83 91.842 117.707 89.9228 120.468 91.1395C122.743 92.142 123.097 93.5436 123.059 94.4163C123.047 94.6992 123.334 94.8909 123.591 94.7723C124.288 94.4516 125.409 94.2848 126.482 95.6295C127.966 97.4894 125.846 99.1016 125.209 99.5246C125.105 99.5943 125.04 99.7086 125.039 99.8341C125.033 100.801 124.883 105.019 122.768 107.399C122.585 107.605 122.247 107.544 122.141 107.291L120.513 103.412C120.437 103.232 120.237 103.139 120.05 103.2L119.345 103.427Z" fill="url(#paint12_linear)"/>
<path d="M119.311 104.215C119.311 104.215 120.305 100.167 121.815 101.481C123.325 102.795 121.421 105.688 119.692 106.24L119.311 104.215Z" fill="url(#paint13_linear)"/>
<path d="M81.692 154.116L74.3206 129.531C74.0196 128.529 73.1288 127.817 72.0841 127.745L62.1315 127.064C61.1195 126.996 60.3671 127.984 60.7033 128.941L68.944 152.418C69.2097 153.175 69.889 153.709 70.686 153.79L80.4873 154.878L81.692 154.116Z" fill="url(#paint14_linear)"/>
<path d="M68.0969 137.864C68.6472 138.975 69.5982 139.626 70.2199 139.318C70.8416 139.01 70.9 137.859 70.3497 136.749C69.7994 135.638 68.8493 134.987 68.2268 135.295C67.6042 135.602 67.5466 136.753 68.0969 137.864Z" fill="#91B3FA"/>
<path d="M80.4872 154.878C80.5036 154.878 80.519 154.878 80.5354 154.876L101.419 153.82C101.935 153.794 102.333 153.355 102.306 152.838C102.281 152.321 101.839 151.916 101.325 151.951L80.4408 153.007C79.9249 153.033 79.5276 153.473 79.5534 153.989C79.5784 154.489 79.992 154.878 80.4872 154.878Z" fill="url(#paint15_linear)"/>
<path d="M105.745 133.738C105.665 133.738 105.601 133.673 105.601 133.593C105.586 129.185 107.283 123.35 107.3 123.291C107.322 123.215 107.402 123.171 107.479 123.193C107.556 123.216 107.6 123.297 107.577 123.373C107.56 123.431 105.876 129.226 105.89 133.592C105.89 133.672 105.825 133.738 105.745 133.738Z" fill="url(#paint16_linear)"/>
<path d="M115.243 135.882C115.212 135.882 115.18 135.872 115.154 135.851C115.091 135.801 115.08 135.711 115.13 135.648C115.175 135.59 119.714 129.819 121.268 125.883C121.297 125.809 121.381 125.77 121.455 125.801C121.529 125.83 121.566 125.915 121.537 125.989C119.968 129.965 115.402 135.769 115.356 135.827C115.328 135.863 115.285 135.882 115.243 135.882Z" fill="url(#paint17_linear)"/>
<path d="M121.677 144.755L120.851 143.587C120.805 143.522 120.821 143.432 120.886 143.385C120.951 143.339 121.042 143.354 121.088 143.42L121.778 144.396C128.219 141.573 132.207 133.867 132.247 133.789C132.283 133.718 132.37 133.69 132.441 133.727C132.513 133.763 132.541 133.851 132.504 133.922C132.464 134.001 128.386 141.883 121.784 144.71L121.677 144.755Z" fill="url(#paint18_linear)"/>
<defs>
<linearGradient id="paint0_linear" x1="296.288" y1="282.063" x2="123.358" y2="130.75" gradientUnits="userSpaceOnUse">
<stop stop-color="#DAE3FE"/>
<stop offset="1" stop-color="#E9EFFD"/>
</linearGradient>
<linearGradient id="paint1_linear" x1="59.1296" y1="56.2957" x2="244.275" y2="343.591" gradientUnits="userSpaceOnUse">
<stop stop-color="#4F52FF"/>
<stop offset="1" stop-color="#4042E2"/>
</linearGradient>
<linearGradient id="paint2_linear" x1="152.469" y1="266.567" x2="121.643" y2="174.087" gradientUnits="userSpaceOnUse">
<stop stop-color="#09005D"/>
<stop offset="1" stop-color="#1A0F91"/>
</linearGradient>
<linearGradient id="paint3_linear" x1="80.745" y1="261.04" x2="218.004" y2="294.427" gradientUnits="userSpaceOnUse">
<stop stop-color="#09005D"/>
<stop offset="1" stop-color="#1A0F91"/>
</linearGradient>
<linearGradient id="paint4_linear" x1="315.453" y1="63.8109" x2="275.508" y2="102.888" gradientUnits="userSpaceOnUse">
<stop stop-color="#FF928E"/>
<stop offset="1" stop-color="#FE7062"/>
</linearGradient>
<linearGradient id="paint5_linear" x1="67.4734" y1="161.619" x2="56.6859" y2="172.886" gradientUnits="userSpaceOnUse">
<stop stop-color="#09005D"/>
<stop offset="1" stop-color="#1A0F91"/>
</linearGradient>
<linearGradient id="paint6_linear" x1="53.1636" y1="189.899" x2="32.7588" y2="204.875" gradientUnits="userSpaceOnUse">
<stop stop-color="#09005D"/>
<stop offset="1" stop-color="#1A0F91"/>
</linearGradient>
<linearGradient id="paint7_linear" x1="86.1293" y1="134.551" x2="99.9821" y2="151.025" gradientUnits="userSpaceOnUse">
<stop stop-color="#FEBBBA"/>
<stop offset="1" stop-color="#FF928E"/>
</linearGradient>
<linearGradient id="paint8_linear" x1="154.816" y1="94.0042" x2="113.132" y2="137.425" gradientUnits="userSpaceOnUse">
<stop stop-color="#FF928E"/>
<stop offset="1" stop-color="#FE7062"/>
</linearGradient>
<linearGradient id="paint9_linear" x1="102.282" y1="149.54" x2="74.5929" y2="111.659" gradientUnits="userSpaceOnUse">
<stop stop-color="#FEBBBA"/>
<stop offset="1" stop-color="#FF928E"/>
</linearGradient>
<linearGradient id="paint10_linear" x1="119.221" y1="118.148" x2="118.201" y2="108.969" gradientUnits="userSpaceOnUse">
<stop stop-color="#FEBBBA"/>
<stop offset="1" stop-color="#FF928E"/>
</linearGradient>
<linearGradient id="paint11_linear" x1="113.781" y1="110.141" x2="118.276" y2="95.314" gradientUnits="userSpaceOnUse">
<stop stop-color="#FEBBBA"/>
<stop offset="1" stop-color="#FF928E"/>
</linearGradient>
<linearGradient id="paint12_linear" x1="117.838" y1="82.916" x2="113.658" y2="106.755" gradientUnits="userSpaceOnUse">
<stop stop-color="#09005D"/>
<stop offset="1" stop-color="#1A0F91"/>
</linearGradient>
<linearGradient id="paint13_linear" x1="118.437" y1="111.553" x2="122.933" y2="96.7257" gradientUnits="userSpaceOnUse">
<stop stop-color="#FEBBBA"/>
<stop offset="1" stop-color="#FF928E"/>
</linearGradient>
<linearGradient id="paint14_linear" x1="81.6923" y1="140.97" x2="60.622" y2="140.97" gradientUnits="userSpaceOnUse">
<stop stop-color="#09005D"/>
<stop offset="1" stop-color="#1A0F91"/>
</linearGradient>
<linearGradient id="paint15_linear" x1="79.1349" y1="150.18" x2="95.9828" y2="154.798" gradientUnits="userSpaceOnUse">
<stop stop-color="#09005D"/>
<stop offset="1" stop-color="#1A0F91"/>
</linearGradient>
<linearGradient id="paint16_linear" x1="110.323" y1="70.6643" x2="103.81" y2="170.962" gradientUnits="userSpaceOnUse">
<stop stop-color="#E1473D"/>
<stop offset="1" stop-color="#E9605A"/>
</linearGradient>
<linearGradient id="paint17_linear" x1="122.18" y1="71.4344" x2="115.667" y2="171.731" gradientUnits="userSpaceOnUse">
<stop stop-color="#E1473D"/>
<stop offset="1" stop-color="#E9605A"/>
</linearGradient>
<linearGradient id="paint18_linear" x1="131.002" y1="72.0075" x2="124.489" y2="172.305" gradientUnits="userSpaceOnUse">
<stop stop-color="#E1473D"/>
<stop offset="1" stop-color="#E9605A"/>
</linearGradient>
</defs>
</svg>
