<svg width="648" height="406" viewBox="0 0 648 406" fill="none" xmlns="http://www.w3.org/2000/svg">
<path d="M569.44 364.539L472.402 365.209L348.646 364.745L71.9622 363.712C71.9622 363.712 32.2702 330.642 33.2341 273.015C33.8497 236.194 42.0529 158.467 128.024 140.296C208.656 123.256 187.219 14.8515 306.107 25.5051C353.018 29.709 373.833 71.426 410.089 60.3128C563.304 13.349 596.937 111.011 608.47 205.817C612.722 240.795 601.232 349.635 569.44 364.539Z" fill="#EBF3FA"/>
<path d="M336.727 100.057H305.809C304.39 100.057 303.229 98.897 303.229 97.4774V67.635C303.229 66.2155 304.39 65.0552 305.809 65.0552H336.727C338.147 65.0552 339.307 66.2155 339.307 67.635V97.4754C339.307 98.8949 338.147 100.057 336.727 100.057Z" fill="#C0D8FB"/>
<path d="M335.386 98.5404H307.148C305.852 98.5404 304.791 97.4793 304.791 96.1833V68.9289C304.791 67.6329 305.852 66.5718 307.148 66.5718H335.386C336.682 66.5718 337.743 67.6329 337.743 68.9289V96.1833C337.743 97.4793 336.682 98.5404 335.386 98.5404Z" fill="#DFEBFD"/>
<path d="M320.521 69.7653C320.521 69.3522 320.855 69.0181 321.268 69.0181C321.681 69.0181 322.016 69.3522 322.016 69.7653C322.016 70.1784 321.681 70.5125 321.268 70.5125C320.855 70.5125 320.521 70.1784 320.521 69.7653Z" fill="#B7D3F3"/>
<path d="M326.551 70.8224C326.752 70.4619 327.208 70.3323 327.568 70.5328C327.928 70.7333 328.058 71.1889 327.858 71.5493C327.657 71.9098 327.201 72.0394 326.841 71.8389C326.48 71.6384 326.351 71.1828 326.551 70.8224Z" fill="#B7D3F3"/>
<path d="M331.717 74.9269C332.063 74.7021 332.527 74.8034 332.75 75.1497C332.975 75.4959 332.874 75.9597 332.527 76.1824C332.181 76.4052 331.717 76.3059 331.494 75.9597C331.272 75.6134 331.371 75.1497 331.717 74.9269Z" fill="#B7D3F3"/>
<path d="M334.277 81.2798C334.69 81.2798 335.024 81.6139 335.024 82.027C335.024 82.4401 334.69 82.7743 334.277 82.7743C333.864 82.7743 333.53 82.4401 333.53 82.027C333.53 81.6139 333.864 81.2798 334.277 81.2798Z" fill="#B7D3F3"/>
<path d="M332.971 88.6523C333.262 88.9439 333.262 89.4177 332.971 89.7093C332.679 90.0009 332.205 90.0009 331.914 89.7093C331.622 89.4177 331.622 88.9439 331.914 88.6523C332.205 88.3607 332.677 88.3607 332.971 88.6523Z" fill="#B7D3F3"/>
<path d="M327.748 94.6326C328.161 94.6326 328.495 94.2981 328.495 93.8854C328.495 93.4727 328.161 93.1382 327.748 93.1382C327.336 93.1382 327.001 93.4727 327.001 93.8854C327.001 94.2981 327.336 94.6326 327.748 94.6326Z" fill="#B7D3F3"/>
<path d="M320.521 95.7824C320.521 95.3693 320.855 95.0352 321.268 95.0352C321.681 95.0352 322.016 95.3693 322.016 95.7824C322.016 96.1955 321.681 96.5296 321.268 96.5296C320.855 96.5296 320.521 96.1955 320.521 95.7824Z" fill="#B7D3F3"/>
<path d="M315.961 70.8224C315.761 70.4619 315.305 70.3323 314.944 70.5328C314.584 70.7333 314.454 71.1889 314.655 71.5493C314.855 71.9098 315.311 72.0394 315.671 71.8389C316.032 71.6384 316.162 71.1828 315.961 70.8224Z" fill="#B7D3F3"/>
<path d="M310.795 74.9269C310.449 74.7021 309.985 74.8034 309.762 75.1497C309.54 75.4959 309.639 75.9597 309.985 76.1824C310.331 76.4052 310.795 76.3059 311.018 75.9597C311.241 75.6134 311.141 75.1497 310.795 74.9269Z" fill="#B7D3F3"/>
<path d="M308.236 81.2793C307.822 81.2793 307.488 81.6134 307.488 82.0265C307.488 82.4396 307.822 82.7738 308.236 82.7738C308.649 82.7738 308.983 82.4396 308.983 82.0265C308.983 81.6134 308.649 81.2793 308.236 81.2793Z" fill="#B7D3F3"/>
<path d="M309.541 88.6523C309.25 88.9439 309.25 89.4177 309.541 89.7093C309.833 90.0009 310.307 90.0009 310.598 89.7093C310.89 89.4177 310.89 88.9439 310.598 88.6523C310.307 88.3607 309.835 88.3607 309.541 88.6523Z" fill="#B7D3F3"/>
<path d="M314.236 93.3586C313.944 93.6502 313.944 94.1241 314.236 94.4157C314.527 94.7073 315.001 94.7073 315.293 94.4157C315.584 94.1241 315.584 93.6502 315.293 93.3586C315.001 93.067 314.527 93.065 314.236 93.3586Z" fill="#B7D3F3"/>
<path d="M321.065 82.0265C321.065 81.6134 321.4 81.2793 321.813 81.2793C322.226 81.2793 322.56 81.6134 322.56 82.0265C322.56 82.4396 322.226 82.7738 321.813 82.7738C321.402 82.7738 321.065 82.4396 321.065 82.0265Z" fill="#B7D3F3"/>
<path d="M321.916 72.6914H321.711V82.0267H321.916V72.6914Z" fill="#B7D3F3"/>
<path d="M326.485 77.8844L321.536 81.7695L321.914 82.2506L326.863 78.3655L326.485 77.8844Z" fill="#B7D3F3"/>
<path d="M153.882 224.735C153.882 224.735 147.568 217.37 153.493 212.69C153.493 212.69 157.82 210.07 161.348 210.283C161.348 210.283 156.348 218.666 157.966 219.501C159.584 220.335 162.864 209.756 162.864 209.756C162.864 209.756 172.712 208.8 175.879 210.325C175.879 210.325 167.461 217.214 169.233 217.623C171.007 218.032 180.099 211.271 180.099 211.271C180.099 211.271 189.264 212.83 188.776 218.421C188.288 224.012 185.129 225.738 183.742 225.59C182.355 225.442 174.235 222.342 174.059 223.48C173.883 224.618 178.769 228.334 182.191 228.508C182.191 228.508 175.729 235.634 171.436 233.576C167.141 231.519 166.775 228.261 164.098 227.038C161.421 225.814 159.136 225.819 160.24 227.064C161.346 228.311 166.19 229.522 167.72 232.232C169.251 234.939 170.624 236.766 166.181 236.097C161.739 235.429 154.517 232.177 154.2 228.455C153.882 224.733 153.882 224.735 153.882 224.735Z" fill="#C8DBF4"/>
<path d="M184.271 218.575C184.271 218.575 159.378 217.615 153.882 224.735C153.882 224.735 152.667 228.376 148.925 231.691L148.341 233.281C148.341 233.281 152.655 228.732 154.198 228.457C154.2 228.457 151.786 219.638 184.271 218.575Z" fill="#C8DBF4"/>
<path d="M148.925 231.693C148.925 231.693 143.581 235.644 143.21 242.705L144.18 242.792C144.18 242.792 145.887 235.492 148.971 232.637C152.055 229.781 148.925 231.693 148.925 231.693Z" fill="#C8DBF4"/>
<path d="M131.807 215.473C131.807 215.473 141.849 209.849 137.163 202.215C137.163 202.215 133.413 197.529 129.398 196.322C129.398 196.322 131.54 207.705 129.398 207.972C127.255 208.239 127.925 195.117 127.925 195.117C127.925 195.117 117.347 190.028 113.195 190.431C113.195 190.431 119.756 201.545 117.614 201.277C115.472 201.01 108.107 189.761 108.107 189.761C108.107 189.761 97.2607 187.752 95.5192 194.18C93.7777 200.607 96.5905 203.821 98.1983 204.224C99.8062 204.625 110.115 204.491 109.848 205.829C109.581 207.168 102.617 209.31 98.7349 208.106C98.7349 208.106 103.02 218.684 108.643 218.15C114.267 217.613 116.008 214.132 119.489 213.865C122.97 213.597 125.516 214.535 123.774 215.473C122.033 216.41 116.142 215.78 113.329 218.17C110.516 220.561 108.24 222.034 113.463 223.105C118.685 224.176 128.059 223.506 129.934 219.49C131.809 215.475 131.807 215.473 131.807 215.473Z" fill="#C8DBF4"/>
<path d="M100.474 196.19C100.474 196.19 128.595 205.297 131.809 215.472C131.809 215.472 131.675 220.025 134.488 225.247V227.256C134.488 227.256 131.542 220.428 129.936 219.49C129.934 219.49 136.227 210.651 100.474 196.19Z" fill="#C8DBF4"/>
<path d="M134.486 225.247C134.486 225.247 138.823 231.832 136.351 239.849L135.235 239.55C135.235 239.55 136.318 230.721 134.048 226.28C131.78 221.839 134.486 225.247 134.486 225.247Z" fill="#C8DBF4"/>
<path d="M147.786 207.717C147.786 207.717 134.547 200.303 140.725 190.241C140.725 190.241 145.668 184.063 150.964 182.475C150.964 182.475 148.139 197.478 150.964 197.833C153.788 198.185 152.906 180.888 152.906 180.888C152.906 180.888 166.85 174.181 172.321 174.709C172.321 174.709 163.673 189.36 166.495 189.008C169.32 188.656 179.028 173.829 179.028 173.829C179.028 173.829 193.327 171.18 195.621 179.652C197.915 188.125 194.209 192.361 192.091 192.892C189.973 193.42 176.381 193.244 176.734 195.01C177.086 196.776 186.265 199.599 191.385 198.011C191.385 198.011 185.737 211.955 178.323 211.25C170.91 210.544 168.616 205.955 164.027 205.603C159.438 205.25 156.083 206.486 158.379 207.721C160.673 208.956 168.439 208.126 172.147 211.277C175.855 214.428 178.854 216.37 171.971 217.781C165.086 219.193 152.731 218.312 150.259 213.014C147.786 207.717 147.786 207.717 147.786 207.717Z" fill="#D4E4F8"/>
<path d="M189.09 182.299C189.09 182.299 152.023 194.301 147.786 207.717C147.786 207.717 147.963 213.719 144.257 220.602V223.249C144.257 223.249 148.141 214.248 150.259 213.01C150.257 213.013 141.96 201.363 189.09 182.299Z" fill="#D4E4F8"/>
<path d="M144.255 220.602C144.255 220.602 138.538 229.283 141.796 239.85L143.266 239.455C143.266 239.455 141.839 227.815 144.83 221.963C147.823 216.109 144.255 220.602 144.255 220.602Z" fill="#D4E4F8"/>
<path d="M147.339 262.764C161.662 262.764 173.271 251.155 173.271 236.832H121.407C121.407 251.153 133.018 262.764 147.339 262.764Z" fill="#D4E4F8"/>
<path d="M173.629 264.083H121.048C121.048 262.315 122.48 260.883 124.248 260.883H170.43C172.198 260.883 173.629 262.317 173.629 264.083Z" fill="#D4E4F8"/>
<path d="M173.86 236.832H120.554V237.628H173.86V236.832Z" fill="#9FC1F4"/>
<path d="M179.054 265.667V268.155C179.054 269.026 178.773 269.739 178.429 269.739H87.6135C87.2693 269.739 86.9878 269.028 86.9878 268.155V265.667C86.9878 264.798 87.2693 264.083 87.6135 264.083H178.429C178.773 264.083 179.054 264.796 179.054 265.667Z" fill="#9ABFE2"/>
<path d="M179.054 265.666V268.155C179.054 269.026 178.795 269.738 178.479 269.738H106.381C106.065 269.738 105.806 269.028 105.806 268.155V265.666C105.806 264.797 106.065 264.083 106.381 264.083H178.479C178.795 264.083 179.054 264.795 179.054 265.666Z" fill="#BAD4F4"/>
<path d="M156.071 269.738H91.5967V363.71H156.071V269.738Z" fill="#C8DBF4"/>
<path d="M174.138 269.738H109.664V363.71H174.138V269.738Z" fill="#DFEBFD"/>
<path d="M170.673 358.522H113.128V272.393H170.673V358.522ZM113.75 357.901H170.051V273.013H113.75V357.901Z" fill="#B7D3F3"/>
<path d="M170.363 300.885H113.44V301.506H170.363V300.885Z" fill="#B7D3F3"/>
<path d="M170.363 329.934H113.44V330.555H170.363V329.934Z" fill="#B7D3F3"/>
<path d="M147.734 277.947H137.171C136.659 277.947 136.24 277.528 136.24 277.016C136.24 276.504 136.659 276.084 137.171 276.084H147.734C148.246 276.084 148.665 276.504 148.665 277.016C148.665 277.528 148.246 277.947 147.734 277.947Z" fill="#B7D3F3"/>
<path d="M147.734 306.352H137.171C136.659 306.352 136.24 305.933 136.24 305.421C136.24 304.908 136.659 304.489 137.171 304.489H147.734C148.246 304.489 148.665 304.908 148.665 305.421C148.665 305.933 148.246 306.352 147.734 306.352Z" fill="#B7D3F3"/>
<path d="M147.734 335.964H137.171C136.659 335.964 136.24 335.544 136.24 335.032C136.24 334.52 136.659 334.101 137.171 334.101H147.734C148.246 334.101 148.665 334.52 148.665 335.032C148.665 335.544 148.246 335.964 147.734 335.964Z" fill="#B7D3F3"/>
<path d="M105.875 251.195V264.252H92.7104V251.155C92.7104 251.027 92.7165 250.903 92.7307 250.78C92.8684 249.279 93.8323 248.022 95.1607 247.457C96.1084 247.056 96.7726 246.189 96.8253 245.163L96.9225 243.277H101.756L101.787 245.159C101.807 246.183 102.455 247.064 103.398 247.461C104.733 248.024 105.701 249.283 105.853 250.78C105.867 250.918 105.875 251.055 105.875 251.195Z" fill="#C8DBF4"/>
<path d="M102.1 244.104H96.4629L96.6127 242.631H101.951L102.1 244.104Z" fill="#B7D3F3"/>
<path d="M105.875 251.195V259.615H92.7104V251.152C92.7104 251.025 92.7165 250.901 92.7307 250.778H105.855C105.867 250.918 105.875 251.055 105.875 251.195Z" fill="white"/>
<path d="M116.691 256.95V264.254H109.328V256.928C109.328 256.857 109.332 256.788 109.338 256.717C109.415 255.879 109.953 255.174 110.697 254.858C111.227 254.634 111.6 254.15 111.628 253.575L111.683 252.52H114.386L114.402 253.573C114.412 254.146 114.777 254.638 115.305 254.86C116.051 255.176 116.593 255.881 116.678 256.717C116.686 256.792 116.691 256.871 116.691 256.95Z" fill="#C8DBF4"/>
<path d="M114.579 252.983H111.426L111.509 252.159H114.496L114.579 252.983Z" fill="#B7D3F3"/>
<path d="M116.691 256.95V261.66H109.328V256.928C109.328 256.857 109.332 256.788 109.338 256.717H116.678C116.686 256.792 116.691 256.871 116.691 256.95Z" fill="white"/>
<path d="M533.012 88.8408H382.192V364.541H533.012V88.8408Z" fill="#D3E3F7"/>
<path d="M526.575 93.6826H388.812V364.538H526.575V93.6826Z" fill="#E5EFFB"/>
<path d="M503.208 227.26C503.208 223.896 505.934 221.17 509.297 221.17C512.661 221.17 515.386 223.896 515.386 227.26C515.386 230.623 512.661 233.349 509.297 233.349C505.934 233.349 503.208 230.623 503.208 227.26Z" fill="#D3E3F7"/>
<path d="M486.33 134.729H429.461V152.681H486.33V134.729Z" fill="#F5F9FD"/>
<path d="M475.775 140.296H440.016V142.143H475.775V140.296Z" fill="#D3E3F7"/>
<path d="M470.769 145.27H445.02V147.116H470.769V145.27Z" fill="#D3E3F7"/>
<path d="M487.012 153.363H428.779V134.047H487.012V153.363ZM430.144 151.998H485.647V135.412H430.144V151.998Z" fill="#BAD4F4"/>
<path d="M392.521 115.686C387.801 113.238 384.018 114.777 384.018 114.777C369.574 113.08 365.36 129.926 365.557 135.722C365.749 141.517 366.413 147.744 359.963 155.273C341.331 177.024 380.355 177.984 380.355 177.984C380.685 160.605 401.517 166.947 400.603 168.707C427.307 175.116 403.256 121.257 392.521 115.686Z" fill="#163560"/>
<path d="M336.802 188.137C336.802 188.137 334.262 184.269 332.215 184.194C330.168 184.119 326.377 183.056 326.681 183.816C326.985 184.573 329.336 184.65 329.562 185.105C329.789 185.561 326.075 186.244 325.012 186.318C323.951 186.393 321.448 186.318 321.525 186.849C321.6 187.38 326.035 189.579 329.163 189.275C332.292 188.971 336.16 190.184 336.16 190.184L336.802 188.137Z" fill="#FFB27D"/>
<path d="M373.54 189.386C373.54 189.386 372.158 192.12 369.654 195.261C366.634 199.041 361.981 203.409 356.137 204.27C353.346 204.681 350.616 204.082 348.108 202.966C348.101 202.964 348.099 202.964 348.099 202.964C341.002 199.813 335.666 192.567 335.666 192.567C334.414 189.155 336.462 186.843 336.462 186.843C336.462 186.843 350.793 190.067 352.158 189.384C353.522 188.702 361.485 165.767 363.378 162.883C365.275 160.001 371.735 158.505 371.735 158.505L373.54 189.386Z" fill="#F9DDBF"/>
<path d="M369.653 195.263C366.634 199.044 361.981 203.412 356.137 204.272C353.346 204.683 350.616 204.084 348.107 202.968C348.385 203.005 355.472 203.88 358.297 198.825C361.179 193.667 364.295 185.48 368.576 188.21C370.425 189.391 370.344 192.317 369.653 195.263Z" fill="#F2CCAA"/>
<path d="M427.004 344.078C427.004 344.078 431.376 348.069 430.523 350.904C429.671 353.739 425.724 355.63 425.191 359.095C424.659 362.56 422.524 364.451 420.605 364.451C418.685 364.451 411.452 364.451 411.452 364.451C411.452 364.451 410.038 362.013 413.452 361.278C416.864 360.543 418.152 356.471 417.94 352.69C417.727 348.909 418.26 343.869 418.26 343.869L425.513 342.188L427.004 344.078Z" fill="#233862"/>
<path d="M389.992 345.773C389.992 345.773 391.566 362.68 389.646 363.623L365.077 363.573C365.077 363.573 365.077 360.738 369.023 360.108C372.97 359.478 379.902 357.168 381.076 352.022C382.249 346.877 389.992 345.773 389.992 345.773Z" fill="#233862"/>
<path d="M407.5 224.488C402.444 213.15 399.352 209.895 399.941 206.376C400.381 203.758 398.603 157.541 398.603 157.541C398.003 157.355 396.8 157.189 396.142 157.043C394.069 156.583 392.351 155.125 391.639 153.124C390.778 150.715 390.094 147.157 390.11 142.698L389.462 142.825L378.573 144.982C378.573 144.982 378.82 148.408 378.828 151.638C378.828 151.664 378.828 151.693 378.828 151.719C378.843 154.524 377.002 156.998 374.309 157.776C372.934 158.173 371.737 158.513 371.737 158.513C371.737 158.513 367.737 169.93 366.974 181.657C366.211 193.384 374.246 198.478 366.913 221.916C359.429 245.847 410.293 230.753 407.5 224.488Z" fill="#FFB27D"/>
<path d="M378.573 144.98C378.573 144.98 378.82 148.407 378.828 151.636C384.922 151.464 388.143 145.906 389.464 142.826L378.573 144.98Z" fill="#E8945B"/>
<path d="M376.538 148.038C376.538 148.038 390.956 148.275 390.967 139.296C390.977 130.315 392.844 124.297 383.64 123.766C374.436 123.236 372.642 126.66 371.911 129.657C371.176 132.652 372.788 147.744 376.538 148.038Z" fill="#FFB27D"/>
<path d="M377.071 123.546C377.071 123.546 381.018 134.082 387.076 135.639C393.135 137.196 395.762 135.574 395.762 135.574C395.762 135.574 391.114 131.883 390.15 125.439C390.152 125.439 380.05 118.53 377.071 123.546Z" fill="#163560"/>
<path d="M378.051 124.4C378.051 124.4 375.123 125.493 373.918 127.63C372.739 129.718 371.737 132.482 371.97 135.874C371.97 135.874 368.995 128.713 372.338 124.661C375.882 120.366 378.051 124.4 378.051 124.4Z" fill="#163560"/>
<path d="M379.675 142.467C379.675 142.467 378.681 143.775 376.69 143.682C375.086 143.605 374.469 142.216 374.469 142.216C374.469 142.216 377.413 141.505 379.675 142.467Z" fill="white"/>
<path d="M405.537 177.984C405.537 177.984 405.482 184.822 405.115 191.015C404.872 195.121 404.494 198.944 403.905 200.305C402.426 203.717 400.758 204.272 400.758 204.272L387.858 207.433L383.322 208.543L369.02 204.27C369.02 204.27 362.505 186.086 365.122 175.849C367.738 165.613 371.735 158.505 371.735 158.505C371.735 158.505 383.407 169.932 398.603 157.535L405.537 177.984Z" fill="#F9DDBF"/>
<path d="M405.117 191.017C404.874 195.123 404.495 198.946 403.906 200.307C402.428 203.719 400.759 204.274 400.759 204.274L387.86 207.435L382.257 205.789C382.257 205.789 400.96 202.954 398.886 186.863L405.117 191.017Z" fill="#F2CCAA"/>
<path d="M369.931 207.032C369.931 207.032 362.847 229.08 362.392 236.587C361.936 244.094 375.931 343.224 376.496 346.682C377.026 349.943 381.074 352.02 381.074 352.02C381.074 352.02 382.937 353.118 385.594 352.369C389.282 351.328 390.446 350.08 390.446 350.08C390.446 350.08 395.96 279.381 392.548 254.126C389.136 228.87 389.095 207.03 389.095 207.03H369.931V207.032Z" fill="#ED7D2B"/>
<path d="M399.941 206.376C399.941 206.376 410.747 220.873 411.753 230.674C412.759 240.475 413.332 274.898 415.479 284.452C417.625 294.006 425.509 312.391 425.509 342.189C425.509 342.189 424.689 343.896 422.159 344.807C421.349 345.099 420.266 345.38 419.213 345.621C417.125 346.099 414.985 345.08 414.033 343.163C408.703 332.43 391.722 297.815 390.853 290.628C390.237 285.543 384.875 251.888 373.181 232.14C370.372 227.4 374.904 208.545 374.904 208.545L399.941 206.376Z" fill="#F99746"/>
<path d="M368.799 203.63C368.799 203.63 371.642 205.88 377.292 205.994C384.039 206.129 400.759 204.274 400.759 204.274C400.759 204.274 401.503 206.35 401.472 208.541C401.472 208.541 381.052 213.693 369.22 209.292C369.22 209.292 367.695 206.421 368.799 203.63Z" fill="#233862"/>
<path d="M375.674 211.807C373.977 211.807 372.594 210.244 372.594 208.322C372.594 206.4 373.975 204.837 375.674 204.837C377.371 204.837 378.752 206.4 378.752 208.322C378.752 210.244 377.371 211.807 375.674 211.807ZM375.674 205.858C374.538 205.858 373.614 206.963 373.614 208.322C373.614 209.681 374.538 210.786 375.674 210.786C376.808 210.786 377.733 209.681 377.733 208.322C377.731 206.963 376.808 205.858 375.674 205.858Z" fill="white"/>
<path d="M422.971 223.185L390.836 230.115L394.721 248.126L426.855 241.196L422.971 223.185Z" fill="#163560"/>
<path d="M390.843 230.135C390.843 230.135 399.826 237.662 409.811 235.044C419.796 232.426 422.978 223.208 422.978 223.208L390.843 230.135Z" fill="#17467F"/>
<path d="M395.338 230.743C394.354 230.743 393.552 229.941 393.552 228.957C393.552 227.973 394.354 227.173 395.338 227.173C396.322 227.173 397.122 227.975 397.122 228.957C397.124 229.941 396.322 230.743 395.338 230.743ZM395.338 227.764C394.68 227.764 394.146 228.299 394.146 228.957C394.146 229.615 394.68 230.15 395.338 230.15C395.996 230.15 396.531 229.615 396.531 228.957C396.531 228.301 395.996 227.764 395.338 227.764Z" fill="#17467F"/>
<path d="M421.498 231.219C421.498 231.219 421.51 233.829 422.006 235.089C422.5 236.348 423.986 238.027 424.48 238.027C424.974 238.027 424.027 235.404 424.274 235.457C424.521 235.51 425.716 239.823 426.582 239.928C427.449 240.034 428.235 235.091 427.781 233.149C427.328 231.207 425.367 228.88 425.367 228.88L421.498 231.219Z" fill="#FFB27D"/>
<path d="M398.603 157.541C398.603 157.541 406.577 158.622 410.87 167.081C414.187 173.617 416.463 194.175 418.804 200.649C421.044 206.844 424.136 218.82 425.859 228.414C425.993 229.157 425.582 229.892 424.879 230.172L421.947 231.334C421.315 231.585 420.594 231.34 420.246 230.755C417.64 226.379 407.365 208.854 403.795 198.715C399.623 186.863 391.819 179.502 391.819 179.502L398.603 157.541Z" fill="#F9DDBF"/>
<path d="M394.751 227.574C394.733 227.28 392.878 197.964 393.232 181.481C393.419 172.826 394.755 166.729 395.845 163.138C397.033 159.22 398.807 157.616 398.854 157.539L399.459 157.719C399.415 157.792 394.492 165.196 394.142 181.501C393.787 197.946 395.64 227.223 395.658 227.517L394.751 227.574Z" fill="#0C2442"/>
<path d="M241.693 363.536H256.846C256.733 362.742 256.346 360.324 255.638 358.097C255.392 357.321 255.105 356.568 254.779 355.914C253.305 352.972 243.945 354.843 243.945 354.843C243.945 354.843 243.076 355.588 242.396 358.433C242.096 359.687 241.831 361.351 241.693 363.536Z" fill="#233862"/>
<path d="M269.509 132.091C269.509 132.091 281.582 134.211 284.312 141.337C287.042 148.463 302.464 263.58 302.464 263.58C302.464 263.58 294.828 269.631 278.435 267.458C262.043 265.285 269.509 132.091 269.509 132.091Z" fill="#91CECF"/>
<path d="M287.481 358.755C287.521 360.816 287.783 362.767 288.53 363.538H318.5C318.119 362.453 317.04 360.823 313.964 360.322C310.467 359.757 305.017 358.073 301.836 354.709C300.702 353.514 299.858 352.105 299.487 350.457C298.078 344.179 287.829 352.38 287.829 352.38C287.829 352.38 287.414 355.685 287.481 358.755Z" fill="#233862"/>
<path d="M300.388 355.702C297.039 356.769 290.638 360.031 286.571 358.496C283.943 357.506 269.254 315.013 268.302 296.426C268.231 295.075 267.966 293.19 267.551 290.89C266.68 286.092 265.159 279.501 263.405 272.227C258.703 252.739 252.347 228.358 252.485 220.565C252.697 208.47 288.53 218.03 288.53 218.03C288.53 218.03 290.994 227.951 291.486 242.316C292.458 270.828 295.133 318.99 302.411 352.437C302.715 353.859 301.777 355.26 300.388 355.702Z" fill="#AF4138"/>
<path d="M275.519 220.61L256.577 357.895C256.577 357.895 248.258 359.902 241.788 358.296C241.788 358.296 236.242 285.282 236.706 267.63C237.167 249.978 232.727 220.397 237.72 217.135C242.714 213.873 275.519 220.61 275.519 220.61Z" fill="#C65447"/>
<path d="M235.325 138.379C235.325 138.379 255.23 125.508 269.509 132.089C271.785 133.138 274.379 136.064 276.238 138.113C281.4 143.799 291.484 234.137 291.484 234.137C291.484 234.137 262.857 243.832 235.327 230.846V138.379H235.325Z" fill="white"/>
<path d="M270.641 131.765C270.641 131.765 290.794 140.023 293.524 146.369C296.253 152.715 305.125 191.682 305.125 196.253C305.125 200.823 289.678 197.273 287.191 189.904C285.126 183.785 278.162 164.983 274.489 153.092L270.641 131.765Z" fill="#ABDDDA"/>
<path d="M266.457 138.057C262.058 138.919 255.595 138 250.864 134.881C253.001 129.778 253.875 125.751 254.187 123.144C254.206 123.005 254.22 122.871 254.232 122.741C254.374 121.391 254.353 120.473 254.287 120.052H265.661C265.661 120.052 268.771 121.474 268.771 122.456C268.771 122.98 268.775 123.485 268.786 123.965C268.808 125.273 268.86 126.415 268.929 127.395C269.146 130.586 269.512 132.089 269.512 132.089C269.512 132.089 270.898 137.186 266.457 138.057Z" fill="#FFB27D"/>
<path d="M268.928 127.395C260.311 129.059 255.31 124.351 254.188 123.144C254.028 122.972 253.947 122.869 253.947 122.869C254.038 122.824 254.133 122.782 254.234 122.741C257.442 121.443 264.72 122.476 268.786 123.965C268.806 125.273 268.859 126.415 268.928 127.395Z" fill="#E2915A"/>
<path d="M251.373 118.183C252.912 126.469 263.606 126.198 268.227 125.678C269.527 125.534 270.345 125.368 270.345 125.368C271.811 124.977 272.629 122.666 273.01 119.641C273.765 113.653 272.811 104.865 271.801 102.617C270.278 99.2351 267.411 95.5759 256.644 98.2165C245.871 100.857 249.396 107.566 251.373 118.183Z" fill="#FFB27D"/>
<path d="M272.2 97.9939C270.728 95.9568 267.607 93.466 264.772 91.9331C258.683 88.6384 250.891 92.0364 250.858 92.0506C242.062 95.9183 239.766 102.647 244.429 113.129C249.36 124.214 254.056 122.966 254.056 122.966C254.056 122.966 253.06 122.347 253.149 118.892C253.153 118.696 253.161 118.532 253.171 118.39C253.216 117.681 252.966 116.972 252.438 116.5C251.344 115.524 250.814 112.576 251.727 111.756C252.831 110.766 254.382 111.968 254.878 112.894C255.311 113.548 256.087 113.777 256.808 113.319C259.546 111.588 257.768 108.127 260.382 106.009C262.998 103.891 268.306 105.669 272.23 103.982C277.368 102.068 273.31 99.5289 272.2 97.9939Z" fill="#233862"/>
<path d="M273.425 272.038C271.691 272.484 269.976 272.85 268.271 273.132C266.763 273.389 265.262 273.579 263.758 273.707C255.238 274.448 246.681 273.249 236.679 270.382C234.427 269.736 232.101 269.003 229.685 268.191C229.428 268.104 230.343 241.657 231.398 214.377C231.505 211.56 231.617 208.733 231.726 205.926C231.775 204.735 231.819 203.553 231.868 202.372C232.826 178.244 233.773 156.455 233.974 155.281C234.432 152.626 234.859 150.362 235.325 148.402C236.687 142.685 238.38 139.551 242.07 136.855C242.428 136.582 245.379 135.096 247.981 133.8C250.137 132.729 252.053 131.793 252.053 131.793C252.055 131.793 252.055 131.793 252.055 131.793C252.912 132.214 253.942 134.178 255.022 136.938C257.002 142.025 259.141 149.813 260.629 155.629C260.633 155.645 260.635 155.654 260.635 155.66C260.635 155.662 260.635 155.662 260.635 155.662C261.593 159.418 262.279 162.342 262.476 163.182C262.808 164.6 263.247 167.344 263.764 171.062C264.464 176.122 265.301 182.993 266.185 190.787C266.277 191.587 266.368 192.399 266.459 193.219C266.564 194.155 266.669 195.101 266.775 196.056C266.809 196.364 266.844 196.67 266.874 196.978C267.216 200.064 267.558 203.251 267.901 206.491C268.184 209.168 272.246 211.104 272.526 213.828C272.688 215.427 273.024 230.18 273.459 234.888C273.769 238.251 273.548 270.457 273.425 272.038Z" fill="#ABDDDA"/>
<path d="M244.047 165.009C244.035 165.064 243.356 189.408 261.668 192.365C279.98 195.321 267.812 196.103 267.812 196.103C267.812 196.103 233.359 194.639 232.79 193.73C232.223 192.821 244.047 165.009 244.047 165.009Z" fill="#91CECF"/>
<path d="M259.518 202.816C259.518 202.816 259.173 203.059 258.515 203.484C258.503 203.488 258.493 203.498 258.481 203.504C255.688 205.289 247.396 210.149 235.325 213.409C234.057 213.753 232.747 214.077 231.398 214.379C231.506 211.562 231.617 208.735 231.726 205.928C230.133 205.803 228.606 205.6 227.188 205.301C227.237 204.93 227.286 204.56 227.334 204.189C228.869 203.559 230.396 202.952 231.868 202.377C233.067 201.909 234.227 201.461 235.325 201.048C240.284 199.165 243.96 197.889 243.96 197.889L258.639 202.539L259.518 202.816Z" fill="#91CECF"/>
<path d="M263.404 202.409C263.404 202.409 261.518 202.881 258.515 203.484C258.503 203.484 258.495 203.486 258.483 203.491C252.946 204.602 243.638 206.164 235.325 206.078C234.1 206.064 232.893 206.018 231.726 205.927C230.133 205.801 228.606 205.599 227.188 205.299C224.149 204.657 221.603 203.572 219.939 201.875C207.572 189.277 226.688 144.065 230.708 139.667C235.4 134.531 243.966 132.729 248.694 132.109C248.892 132.085 249.081 132.059 249.265 132.036C250.928 131.838 251.995 131.797 252.053 131.795C252.055 131.795 252.055 131.795 252.055 131.795C252.055 131.795 251.685 132.988 251.063 135.009C250.822 135.791 250.543 136.7 250.235 137.71C247.331 147.224 241.726 165.919 239.255 176.463C238.35 180.32 237.866 183.087 238.087 183.913C239.051 187.513 249.044 189.366 255.374 190.184C258.015 190.524 260.02 190.686 260.467 190.721C260.5 190.721 260.528 190.723 260.56 190.727L260.927 192.227L261.802 195.828L262.664 199.366L263.404 202.409Z" fill="#ABDDDA"/>
<path d="M297.897 224.081L255.423 222.29L264.039 169.357L306.514 171.145L297.897 224.081Z" fill="#233862"/>
<path d="M260.561 190.731C260.561 190.731 268.829 190.154 269.244 192.082C270.21 196.575 262.136 200.263 259.52 200.011C256.904 199.758 258.657 190.431 260.561 190.731Z" fill="#FFB27D"/>
<path d="M304.193 181.896C304.193 181.896 296.283 179.421 295.433 181.201C293.452 185.348 300.457 190.806 303.059 191.164C305.661 191.525 306.113 182.044 304.193 181.896Z" fill="#FFB27D"/>
<path d="M252.912 129.139C252.912 129.139 249.433 130.797 247.689 133.298C247.689 133.298 260.692 155.873 260.633 155.662C260.577 155.452 256.239 132.03 252.912 129.139Z" fill="#91CECF"/>
<path d="M269.108 129.457C270.254 129.888 272.449 132.14 272.945 133.383L274.49 153.09C274.49 153.09 271.19 138.628 269.511 132.089C269.082 130.429 269.161 129.924 269.108 129.457Z" fill="#91CECF"/>
<path d="M278.119 169.95C278.119 169.95 278.455 168.482 280.389 168.652C282.323 168.822 293.185 169.357 293.185 169.357C293.185 169.357 295.281 169.323 295.085 170.665L278.119 169.95Z" fill="#C65447"/>
<path d="M265.659 120.053C265.659 120.053 267.069 121.338 269.345 120.939C270.693 120.703 271.449 118.949 271.449 118.949C271.449 118.949 268.857 118.483 265.659 120.053Z" fill="white"/>
<path d="M604.007 365.367H40.425C40.0362 365.367 39.7183 365.049 39.7183 364.66V364.245C39.7183 363.856 40.0362 363.539 40.425 363.539H604.007C604.396 363.539 604.714 363.856 604.714 364.245V364.66C604.714 365.049 604.396 365.367 604.007 365.367Z" fill="#2E3552"/>
</svg>
